<svg width="499" height="523" viewBox="0 0 499 523" fill="none" xmlns="http://www.w3.org/2000/svg">
<path d="M333.857 87.5084C334.565 88.7417 334.565 90.2583 333.857 91.4916L291.653 165.001C290.94 166.243 289.617 167.009 288.184 167.009L203.816 167.009C202.383 167.009 201.06 166.243 200.347 165.001L158.143 91.4916C157.435 90.2583 157.435 88.7417 158.143 87.5084L200.347 13.9991C201.06 12.7568 202.383 11.9907 203.816 11.9907L288.184 11.9907C289.617 11.9907 290.94 12.7568 291.653 13.9991L333.857 87.5084Z" fill="#2C3242"/>
<path d="M490.845 177.5C491.56 178.738 491.56 180.262 490.845 181.5L448.405 255.009C447.69 256.247 446.37 257.009 444.941 257.009L360.059 257.009C358.63 257.009 357.31 256.247 356.595 255.009L314.155 181.5C313.44 180.262 313.44 178.738 314.155 177.5L356.595 103.991C357.31 102.753 358.63 101.991 360.059 101.991L444.941 101.991C446.37 101.991 447.69 102.753 448.405 103.991L490.845 177.5Z" fill="#2C3242"/>
<path d="M199.945 72.64C200.66 72.64 201.375 72.7947 202.089 73.104C202.815 73.4027 203.369 73.7813 203.753 74.24L202.665 75.696C202.292 75.312 201.849 75.008 201.337 74.784C200.825 74.56 200.313 74.448 199.801 74.448C199.46 74.448 199.156 74.5013 198.889 74.608C198.633 74.7147 198.431 74.8693 198.281 75.072C198.132 75.264 198.057 75.4773 198.057 75.712C198.057 76.0533 198.159 76.3307 198.361 76.544C198.575 76.7573 198.831 76.9227 199.129 77.04C199.439 77.1573 199.855 77.2853 200.377 77.424C201.135 77.6267 201.753 77.8347 202.233 78.048C202.724 78.2507 203.145 78.576 203.497 79.024C203.849 79.4613 204.025 80.0427 204.025 80.768C204.025 81.3653 203.86 81.9253 203.529 82.448C203.209 82.9707 202.745 83.3867 202.137 83.696C201.54 84.0053 200.836 84.16 200.025 84.16C199.471 84.16 198.911 84.08 198.345 83.92C197.791 83.7493 197.279 83.52 196.809 83.232C196.34 82.944 195.935 82.6133 195.593 82.24L196.793 80.864C197.273 81.3333 197.769 81.7013 198.281 81.968C198.804 82.224 199.385 82.352 200.025 82.352C200.431 82.352 200.788 82.288 201.097 82.16C201.417 82.032 201.663 81.8507 201.833 81.616C202.015 81.3707 202.105 81.0933 202.105 80.784C202.105 80.464 202.004 80.208 201.801 80.016C201.599 79.8133 201.343 79.6587 201.033 79.552C200.735 79.4347 200.324 79.3067 199.801 79.168C199.055 78.976 198.436 78.7787 197.945 78.576C197.465 78.3627 197.049 78.0427 196.697 77.616C196.345 77.1787 196.169 76.592 196.169 75.856C196.169 75.248 196.329 74.704 196.649 74.224C196.98 73.7333 197.428 73.3493 197.993 73.072C198.569 72.784 199.22 72.64 199.945 72.64ZM213.234 84H211.442V76.176H213.234V84ZM212.034 80.08C212.034 80.912 211.901 81.6373 211.634 82.256C211.367 82.864 210.978 83.3333 210.466 83.664C209.965 83.9947 209.367 84.16 208.674 84.16C207.991 84.16 207.362 83.9787 206.786 83.616C206.21 83.2533 205.757 82.7573 205.426 82.128C205.095 81.4987 204.93 80.816 204.93 80.08C204.93 79.344 205.095 78.6667 205.426 78.048C205.757 77.4187 206.21 76.9227 206.786 76.56C207.362 76.1973 207.991 76.016 208.674 76.016C209.367 76.016 209.965 76.1813 210.466 76.512C210.978 76.8427 211.367 77.3173 211.634 77.936C211.901 78.544 212.034 79.2587 212.034 80.08ZM209.058 82.464C209.517 82.464 209.927 82.3627 210.29 82.16C210.653 81.9467 210.935 81.6587 211.138 81.296C211.341 80.9333 211.442 80.528 211.442 80.08C211.442 79.632 211.341 79.232 211.138 78.88C210.935 78.5173 210.653 78.2347 210.29 78.032C209.927 77.8187 209.517 77.712 209.058 77.712C208.621 77.712 208.221 77.8187 207.858 78.032C207.495 78.2453 207.207 78.5333 206.994 78.896C206.781 79.2587 206.674 79.6533 206.674 80.08C206.674 80.5173 206.781 80.9173 206.994 81.28C207.207 81.6427 207.495 81.9307 207.858 82.144C208.221 82.3573 208.621 82.464 209.058 82.464ZM216.687 84H214.911V72.8H216.687V84ZM226.146 84H224.354V76.176H226.146V84ZM224.946 80.08C224.946 80.912 224.813 81.6373 224.546 82.256C224.28 82.864 223.89 83.3333 223.378 83.664C222.877 83.9947 222.28 84.16 221.586 84.16C220.904 84.16 220.274 83.9787 219.698 83.616C219.122 83.2533 218.669 82.7573 218.338 82.128C218.008 81.4987 217.842 80.816 217.842 80.08C217.842 79.344 218.008 78.6667 218.338 78.048C218.669 77.4187 219.122 76.9227 219.698 76.56C220.274 76.1973 220.904 76.016 221.586 76.016C222.28 76.016 222.877 76.1813 223.378 76.512C223.89 76.8427 224.28 77.3173 224.546 77.936C224.813 78.544 224.946 79.2587 224.946 80.08ZM221.97 82.464C222.429 82.464 222.84 82.3627 223.202 82.16C223.565 81.9467 223.848 81.6587 224.05 81.296C224.253 80.9333 224.354 80.528 224.354 80.08C224.354 79.632 224.253 79.232 224.05 78.88C223.848 78.5173 223.565 78.2347 223.202 78.032C222.84 77.8187 222.429 77.712 221.97 77.712C221.533 77.712 221.133 77.8187 220.77 78.032C220.408 78.2453 220.12 78.5333 219.906 78.896C219.693 79.2587 219.586 79.6533 219.586 80.08C219.586 80.5173 219.693 80.9173 219.906 81.28C220.12 81.6427 220.408 81.9307 220.77 82.144C221.133 82.3573 221.533 82.464 221.97 82.464ZM230.72 84.176C230.08 84.176 229.45 84.0747 228.832 83.872C228.224 83.6587 227.722 83.3813 227.328 83.04L228.032 81.696C228.33 81.984 228.73 82.2187 229.232 82.4C229.744 82.5813 230.224 82.672 230.672 82.672C231.056 82.672 231.365 82.592 231.6 82.432C231.845 82.272 231.968 82.064 231.968 81.808C231.968 81.6053 231.898 81.4453 231.76 81.328C231.632 81.2 231.461 81.104 231.248 81.04C231.045 80.976 230.789 80.912 230.48 80.848C229.914 80.7413 229.44 80.6187 229.056 80.48C228.672 80.3413 228.336 80.112 228.048 79.792C227.76 79.472 227.616 79.0347 227.616 78.48C227.616 78 227.744 77.5733 228 77.2C228.256 76.8267 228.613 76.5387 229.072 76.336C229.541 76.1227 230.069 76.016 230.656 76.016C231.221 76.016 231.765 76.096 232.288 76.256C232.81 76.416 233.242 76.6507 233.584 76.96L232.88 78.336C232.592 78.08 232.213 77.8773 231.744 77.728C231.274 77.5787 230.853 77.504 230.48 77.504C230.149 77.504 229.882 77.5787 229.68 77.728C229.488 77.8773 229.392 78.08 229.392 78.336C229.392 78.5173 229.45 78.6667 229.568 78.784C229.696 78.8907 229.861 78.976 230.064 79.04C230.266 79.104 230.522 79.168 230.832 79.232C231.408 79.3707 231.893 79.52 232.288 79.68C232.682 79.8293 233.029 80.0747 233.328 80.416C233.626 80.7467 233.776 81.1893 233.776 81.744C233.776 82.2027 233.642 82.6187 233.376 82.992C233.12 83.3547 232.757 83.6427 232.288 83.856C231.829 84.0693 231.306 84.176 230.72 84.176ZM245.05 80.08C245.05 80.912 244.916 81.6373 244.65 82.256C244.383 82.864 243.994 83.3333 243.482 83.664C242.98 83.9947 242.383 84.16 241.69 84.16C241.007 84.16 240.378 83.9787 239.802 83.616C239.226 83.2533 238.772 82.7573 238.442 82.128C238.111 81.4987 237.946 80.816 237.946 80.08C237.946 79.344 238.111 78.6667 238.442 78.048C238.772 77.4187 239.226 76.9227 239.802 76.56C240.378 76.1973 241.007 76.016 241.69 76.016C242.383 76.016 242.98 76.1813 243.482 76.512C243.994 76.8427 244.383 77.3173 244.65 77.936C244.916 78.544 245.05 79.2587 245.05 80.08ZM242.074 82.464C242.532 82.464 242.943 82.3627 243.306 82.16C243.668 81.9467 243.951 81.6587 244.154 81.296C244.356 80.9333 244.458 80.528 244.458 80.08C244.458 79.632 244.356 79.232 244.154 78.88C243.951 78.5173 243.668 78.2347 243.306 78.032C242.943 77.8187 242.532 77.712 242.074 77.712C241.636 77.712 241.236 77.8187 240.874 78.032C240.511 78.2453 240.223 78.5333 240.01 78.896C239.796 79.2587 239.69 79.6533 239.69 80.08C239.69 80.5173 239.796 80.9173 240.01 81.28C240.223 81.6427 240.511 81.9307 240.874 82.144C241.236 82.3573 241.636 82.464 242.074 82.464ZM246.25 84H244.458V72.8H246.25V84ZM251.466 84.16C250.73 84.16 250.047 83.9787 249.418 83.616C248.799 83.2533 248.308 82.7627 247.946 82.144C247.594 81.5147 247.418 80.816 247.418 80.048C247.418 79.3013 247.594 78.624 247.946 78.016C248.298 77.3973 248.783 76.912 249.402 76.56C250.02 76.1973 250.698 76.016 251.434 76.016C252.127 76.016 252.762 76.1813 253.338 76.512C253.914 76.832 254.367 77.28 254.698 77.856C255.028 78.4213 255.194 79.0507 255.194 79.744C255.183 80 255.162 80.2667 255.13 80.544H248.314L248.33 79.2H253.37C253.327 78.8907 253.21 78.6133 253.018 78.368C252.836 78.112 252.596 77.9147 252.298 77.776C252.01 77.6267 251.69 77.552 251.338 77.552C250.89 77.552 250.495 77.6533 250.154 77.856C249.823 78.048 249.567 78.3307 249.386 78.704C249.204 79.0667 249.114 79.4933 249.114 79.984C249.114 80.5173 249.21 80.9813 249.402 81.376C249.604 81.76 249.887 82.0587 250.25 82.272C250.612 82.4853 251.034 82.592 251.514 82.592C251.951 82.592 252.356 82.5013 252.73 82.32C253.103 82.128 253.375 81.8827 253.546 81.584L254.97 82.48C254.682 83.0027 254.223 83.4133 253.594 83.712C252.975 84.0107 252.266 84.16 251.466 84.16ZM258.608 85.472C258.693 85.4933 258.779 85.504 258.864 85.504C259.173 85.504 259.408 85.3973 259.568 85.184C259.728 84.9813 259.808 84.6667 259.808 84.24V76.176H261.584V84.416C261.584 85.28 261.355 85.9467 260.896 86.416C260.448 86.8853 259.813 87.12 258.992 87.12C258.811 87.12 258.635 87.1093 258.464 87.088L258.608 85.472ZM260.688 72.544C260.997 72.544 261.264 72.6613 261.488 72.896C261.723 73.12 261.84 73.3813 261.84 73.68C261.84 74 261.723 74.272 261.488 74.496C261.264 74.72 260.997 74.832 260.688 74.832C260.379 74.832 260.112 74.72 259.888 74.496C259.664 74.272 259.552 74 259.552 73.68C259.552 73.3707 259.664 73.104 259.888 72.88C260.112 72.656 260.379 72.544 260.688 72.544ZM268.864 76.176H270.64V84H268.864V76.176ZM265.04 80.416C265.04 81.0347 265.211 81.5307 265.552 81.904C265.904 82.2667 266.363 82.448 266.928 82.448C267.515 82.448 267.984 82.2667 268.336 81.904C268.688 81.5307 268.864 81.0347 268.864 80.416H269.408C269.408 81.1627 269.286 81.824 269.04 82.4C268.806 82.9653 268.47 83.4027 268.032 83.712C267.595 84.0107 267.083 84.16 266.496 84.16C265.494 84.16 264.699 83.8453 264.112 83.216C263.536 82.5867 263.248 81.728 263.248 80.64V76.176H265.04V80.416ZM274.106 76.176V84H272.33V76.176H274.106ZM273.226 72.544C273.535 72.544 273.802 72.6613 274.026 72.896C274.261 73.12 274.378 73.3813 274.378 73.68C274.378 74 274.261 74.272 274.026 74.496C273.802 74.72 273.535 74.832 273.226 74.832C272.917 74.832 272.65 74.72 272.426 74.496C272.202 74.272 272.09 74 272.09 73.68C272.09 73.3707 272.202 73.104 272.426 72.88C272.65 72.656 272.917 72.544 273.226 72.544ZM283.082 82.016C282.784 82.6667 282.309 83.1893 281.658 83.584C281.018 83.968 280.293 84.16 279.482 84.16C278.714 84.16 278.016 83.984 277.386 83.632C276.768 83.2693 276.277 82.7787 275.914 82.16C275.562 81.5413 275.386 80.8533 275.386 80.096C275.386 79.3387 275.562 78.6507 275.914 78.032C276.277 77.4027 276.768 76.912 277.386 76.56C278.016 76.1973 278.709 76.016 279.466 76.016C280.224 76.016 280.901 76.192 281.498 76.544C282.106 76.8853 282.554 77.344 282.842 77.92L281.338 78.768C281.178 78.448 280.933 78.1973 280.602 78.016C280.272 77.824 279.893 77.728 279.466 77.728C279.029 77.728 278.629 77.8347 278.266 78.048C277.914 78.2507 277.637 78.5333 277.434 78.896C277.242 79.2587 277.146 79.6587 277.146 80.096C277.146 80.5333 277.242 80.9333 277.434 81.296C277.637 81.6587 277.914 81.9413 278.266 82.144C278.629 82.3467 279.034 82.448 279.482 82.448C279.93 82.448 280.33 82.3467 280.682 82.144C281.045 81.9413 281.317 81.6587 281.498 81.296L283.082 82.016ZM285.972 76.176V84H284.196V76.176H285.972ZM285.092 72.544C285.401 72.544 285.668 72.6613 285.892 72.896C286.126 73.12 286.244 73.3813 286.244 73.68C286.244 74 286.126 74.272 285.892 74.496C285.668 74.72 285.401 74.832 285.092 74.832C284.782 74.832 284.516 74.72 284.292 74.496C284.068 74.272 283.956 74 283.956 73.68C283.956 73.3707 284.068 73.104 284.292 72.88C284.516 72.656 284.782 72.544 285.092 72.544ZM291.316 76.016C292.073 76.016 292.756 76.1973 293.364 76.56C293.982 76.912 294.473 77.3973 294.836 78.016C295.198 78.6347 295.38 79.328 295.38 80.096C295.38 80.8533 295.198 81.5413 294.836 82.16C294.484 82.7787 293.998 83.2693 293.38 83.632C292.761 83.984 292.073 84.16 291.316 84.16C290.558 84.16 289.87 83.984 289.252 83.632C288.633 83.2693 288.148 82.7787 287.796 82.16C287.444 81.5413 287.268 80.8533 287.268 80.096C287.268 79.328 287.444 78.6347 287.796 78.016C288.148 77.3973 288.633 76.912 289.252 76.56C289.87 76.1973 290.558 76.016 291.316 76.016ZM291.316 77.712C290.889 77.712 290.494 77.8187 290.132 78.032C289.78 78.2453 289.502 78.5333 289.3 78.896C289.097 79.248 288.996 79.648 288.996 80.096C288.996 80.5333 289.097 80.9333 289.3 81.296C289.502 81.648 289.78 81.9307 290.132 82.144C290.494 82.3467 290.889 82.448 291.316 82.448C291.742 82.448 292.132 82.3467 292.484 82.144C292.836 81.9307 293.113 81.648 293.316 81.296C293.529 80.9333 293.636 80.5333 293.636 80.096C293.636 79.648 293.529 79.248 293.316 78.896C293.113 78.5333 292.836 78.2453 292.484 78.032C292.132 77.8187 291.742 77.712 291.316 77.712ZM236.369 96.016C237.126 96.016 237.809 96.1973 238.417 96.56C239.036 96.912 239.526 97.3973 239.889 98.016C240.252 98.6347 240.433 99.328 240.433 100.096C240.433 100.853 240.252 101.541 239.889 102.16C239.537 102.779 239.052 103.269 238.433 103.632C237.814 103.984 237.126 104.16 236.369 104.16C235.612 104.16 234.924 103.984 234.305 103.632C233.686 103.269 233.201 102.779 232.849 102.16C232.497 101.541 232.321 100.853 232.321 100.096C232.321 99.328 232.497 98.6347 232.849 98.016C233.201 97.3973 233.686 96.912 234.305 96.56C234.924 96.1973 235.612 96.016 236.369 96.016ZM236.369 97.712C235.942 97.712 235.548 97.8187 235.185 98.032C234.833 98.2453 234.556 98.5333 234.353 98.896C234.15 99.248 234.049 99.648 234.049 100.096C234.049 100.533 234.15 100.933 234.353 101.296C234.556 101.648 234.833 101.931 235.185 102.144C235.548 102.347 235.942 102.448 236.369 102.448C236.796 102.448 237.185 102.347 237.537 102.144C237.889 101.931 238.166 101.648 238.369 101.296C238.582 100.933 238.689 100.533 238.689 100.096C238.689 99.648 238.582 99.248 238.369 98.896C238.166 98.5333 237.889 98.2453 237.537 98.032C237.185 97.8187 236.796 97.712 236.369 97.712ZM241.724 96.176H243.5V104H241.724V96.176ZM243.5 97.296C243.681 96.9227 243.958 96.6187 244.332 96.384C244.716 96.1387 245.105 96.016 245.5 96.016C245.894 96.016 246.225 96.0747 246.492 96.192L246.284 97.92C245.996 97.792 245.676 97.728 245.324 97.728C245.025 97.728 244.732 97.8133 244.444 97.984C244.166 98.144 243.937 98.384 243.756 98.704C243.585 99.0133 243.5 99.3867 243.5 99.824V97.296ZM254.85 104H253.058V96.176H254.85V104ZM253.65 100.08C253.65 100.912 253.516 101.637 253.25 102.256C252.983 102.864 252.594 103.333 252.082 103.664C251.58 103.995 250.983 104.16 250.29 104.16C249.607 104.16 248.978 103.979 248.402 103.616C247.826 103.253 247.372 102.757 247.042 102.128C246.711 101.499 246.546 100.816 246.546 100.08C246.546 99.344 246.711 98.6667 247.042 98.048C247.372 97.4187 247.826 96.9227 248.402 96.56C248.978 96.1973 249.607 96.016 250.29 96.016C250.983 96.016 251.58 96.1813 252.082 96.512C252.594 96.8427 252.983 97.3173 253.25 97.936C253.516 98.544 253.65 99.2587 253.65 100.08ZM250.674 102.464C251.132 102.464 251.543 102.363 251.906 102.16C252.268 101.947 252.551 101.659 252.754 101.296C252.956 100.933 253.058 100.528 253.058 100.08C253.058 99.632 252.956 99.232 252.754 98.88C252.551 98.5173 252.268 98.2347 251.906 98.032C251.543 97.8187 251.132 97.712 250.674 97.712C250.236 97.712 249.836 97.8187 249.474 98.032C249.111 98.2453 248.823 98.5333 248.61 98.896C248.396 99.2587 248.29 99.6533 248.29 100.08C248.29 100.517 248.396 100.917 248.61 101.28C248.823 101.643 249.111 101.931 249.474 102.144C249.836 102.357 250.236 102.464 250.674 102.464ZM258.303 104H256.527V92.8H258.303V104Z" fill="#F4F7FA"/>
<path d="M177.845 177.5C178.56 178.738 178.56 180.262 177.845 181.5L135.405 255.009C134.69 256.247 133.37 257.009 131.941 257.009L47.0594 257.009C45.6303 257.009 44.3098 256.247 43.5953 255.009L1.15472 181.5C0.440182 180.262 0.440182 178.738 1.15471 177.5L43.5953 103.991C44.3098 102.753 45.6304 101.991 47.0594 101.991L131.941 101.991C133.37 101.991 134.69 102.753 135.405 103.991L177.845 177.5Z" fill="#2C3242"/>
<path d="M43.4278 183.136C43.2465 183.723 42.9158 184.245 42.4358 184.704C41.9665 185.163 41.3958 185.52 40.7238 185.776C40.0518 186.032 39.3371 186.16 38.5798 186.16C37.5238 186.16 36.5638 185.904 35.6998 185.392C34.8465 184.88 34.1745 184.187 33.6838 183.312C33.1931 182.437 32.9478 181.461 32.9478 180.384C32.9478 179.317 33.1931 178.347 33.6838 177.472C34.1745 176.597 34.8465 175.909 35.6998 175.408C36.5638 174.896 37.5238 174.64 38.5798 174.64C39.3051 174.64 39.9931 174.757 40.6438 174.992C41.2945 175.227 41.8491 175.557 42.3078 175.984C42.7771 176.4 43.1131 176.88 43.3158 177.424L41.6358 178.24C41.4011 177.696 41.0065 177.264 40.4518 176.944C39.9078 176.624 39.2838 176.464 38.5798 176.464C37.8651 176.464 37.2251 176.635 36.6598 176.976C36.0945 177.317 35.6571 177.787 35.3478 178.384C35.0385 178.971 34.8838 179.637 34.8838 180.384C34.8838 181.131 35.0385 181.808 35.3478 182.416C35.6571 183.013 36.0945 183.483 36.6598 183.824C37.2251 184.165 37.8651 184.336 38.5798 184.336C39.3265 184.336 39.9825 184.16 40.5478 183.808C41.1238 183.445 41.5185 182.965 41.7318 182.368L43.4278 183.136ZM52.4871 186H50.6951V178.176H52.4871V186ZM51.2871 182.08C51.2871 182.912 51.1537 183.637 50.8871 184.256C50.6204 184.864 50.2311 185.333 49.7191 185.664C49.2177 185.995 48.6204 186.16 47.9271 186.16C47.2444 186.16 46.6151 185.979 46.0391 185.616C45.4631 185.253 45.0097 184.757 44.6791 184.128C44.3484 183.499 44.1831 182.816 44.1831 182.08C44.1831 181.344 44.3484 180.667 44.6791 180.048C45.0097 179.419 45.4631 178.923 46.0391 178.56C46.6151 178.197 47.2444 178.016 47.9271 178.016C48.6204 178.016 49.2177 178.181 49.7191 178.512C50.2311 178.843 50.6204 179.317 50.8871 179.936C51.1537 180.544 51.2871 181.259 51.2871 182.08ZM48.3111 184.464C48.7697 184.464 49.1804 184.363 49.5431 184.16C49.9057 183.947 50.1884 183.659 50.3911 183.296C50.5937 182.933 50.6951 182.528 50.6951 182.08C50.6951 181.632 50.5937 181.232 50.3911 180.88C50.1884 180.517 49.9057 180.235 49.5431 180.032C49.1804 179.819 48.7697 179.712 48.3111 179.712C47.8737 179.712 47.4737 179.819 47.1111 180.032C46.7484 180.245 46.4604 180.533 46.2471 180.896C46.0337 181.259 45.9271 181.653 45.9271 182.08C45.9271 182.517 46.0337 182.917 46.2471 183.28C46.4604 183.643 46.7484 183.931 47.1111 184.144C47.4737 184.357 47.8737 184.464 48.3111 184.464ZM49.7031 177.28H48.0551L49.3831 174.88H51.5271L49.7031 177.28ZM61.2039 186H59.4119V181.616C59.4119 181.029 59.2573 180.571 58.9479 180.24C58.6493 179.899 58.2333 179.728 57.6999 179.728C57.3906 179.728 57.1026 179.797 56.8359 179.936C56.5799 180.064 56.3666 180.272 56.1959 180.56C56.0359 180.837 55.9559 181.189 55.9559 181.616L55.4599 181.376C55.4599 180.544 55.6039 179.883 55.8919 179.392C56.1799 178.891 56.5373 178.539 56.9639 178.336C57.4013 178.123 57.8599 178.016 58.3399 178.016C59.1719 178.016 59.8226 178.256 60.2919 178.736C60.7613 179.216 61.0653 179.973 61.2039 181.008V186ZM66.4519 186H64.6439V181.616C64.6439 181.029 64.4946 180.571 64.1959 180.24C63.8973 179.899 63.4813 179.728 62.9479 179.728C62.6386 179.728 62.3506 179.797 62.0839 179.936C61.8173 180.064 61.6039 180.272 61.4439 180.56C61.2839 180.837 61.2039 181.189 61.2039 181.616L60.5159 180.112C60.5799 179.707 60.7399 179.344 60.9959 179.024C61.2626 178.704 61.5933 178.459 61.9879 178.288C62.3826 178.107 62.8039 178.016 63.2519 178.016C63.8813 178.016 64.4359 178.149 64.9159 178.416C65.3959 178.672 65.7693 179.045 66.0359 179.536C66.3133 180.016 66.4519 180.576 66.4519 181.216V186ZM55.9559 186H54.1799V178.176H55.9559V186ZM76.0246 186H74.2326V178.176H76.0246V186ZM74.8246 182.08C74.8246 182.912 74.6912 183.637 74.4246 184.256C74.1579 184.864 73.7686 185.333 73.2566 185.664C72.7552 185.995 72.1579 186.16 71.4646 186.16C70.7819 186.16 70.1526 185.979 69.5766 185.616C69.0006 185.253 68.5472 184.757 68.2166 184.128C67.8859 183.499 67.7206 182.816 67.7206 182.08C67.7206 181.344 67.8859 180.667 68.2166 180.048C68.5472 179.419 69.0006 178.923 69.5766 178.56C70.1526 178.197 70.7819 178.016 71.4646 178.016C72.1579 178.016 72.7552 178.181 73.2566 178.512C73.7686 178.843 74.1579 179.317 74.4246 179.936C74.6912 180.544 74.8246 181.259 74.8246 182.08ZM71.8486 184.464C72.3072 184.464 72.7179 184.363 73.0806 184.16C73.4432 183.947 73.7259 183.659 73.9286 183.296C74.1312 182.933 74.2326 182.528 74.2326 182.08C74.2326 181.632 74.1312 181.232 73.9286 180.88C73.7259 180.517 73.4432 180.235 73.0806 180.032C72.7179 179.819 72.3072 179.712 71.8486 179.712C71.4112 179.712 71.0112 179.819 70.6486 180.032C70.2859 180.245 69.9979 180.533 69.7846 180.896C69.5712 181.259 69.4646 181.653 69.4646 182.08C69.4646 182.517 69.5712 182.917 69.7846 183.28C69.9979 183.643 70.2859 183.931 70.6486 184.144C71.0112 184.357 71.4112 184.464 71.8486 184.464ZM77.7018 178.176H79.4778V186H77.7018V178.176ZM79.4778 179.296C79.6591 178.923 79.9365 178.619 80.3098 178.384C80.6938 178.139 81.0831 178.016 81.4778 178.016C81.8725 178.016 82.2031 178.075 82.4698 178.192L82.2618 179.92C81.9738 179.792 81.6538 179.728 81.3018 179.728C81.0031 179.728 80.7098 179.813 80.4218 179.984C80.1445 180.144 79.9151 180.384 79.7338 180.704C79.5631 181.013 79.4778 181.387 79.4778 181.824V179.296ZM90.8277 186H89.0357V178.176H90.8277V186ZM89.6277 182.08C89.6277 182.912 89.4944 183.637 89.2277 184.256C88.961 184.864 88.5717 185.333 88.0597 185.664C87.5584 185.995 86.961 186.16 86.2677 186.16C85.585 186.16 84.9557 185.979 84.3797 185.616C83.8037 185.253 83.3504 184.757 83.0197 184.128C82.689 183.499 82.5237 182.816 82.5237 182.08C82.5237 181.344 82.689 180.667 83.0197 180.048C83.3504 179.419 83.8037 178.923 84.3797 178.56C84.9557 178.197 85.585 178.016 86.2677 178.016C86.961 178.016 87.5584 178.181 88.0597 178.512C88.5717 178.843 88.961 179.317 89.2277 179.936C89.4944 180.544 89.6277 181.259 89.6277 182.08ZM86.6517 184.464C87.1104 184.464 87.521 184.363 87.8837 184.16C88.2464 183.947 88.529 183.659 88.7317 183.296C88.9344 182.933 89.0357 182.528 89.0357 182.08C89.0357 181.632 88.9344 181.232 88.7317 180.88C88.529 180.517 88.2464 180.235 87.8837 180.032C87.521 179.819 87.1104 179.712 86.6517 179.712C86.2144 179.712 85.8144 179.819 85.4517 180.032C85.089 180.245 84.801 180.533 84.5877 180.896C84.3744 181.259 84.2677 181.653 84.2677 182.08C84.2677 182.517 84.3744 182.917 84.5877 183.28C84.801 183.643 85.089 183.931 85.4517 184.144C85.8144 184.357 86.2144 184.464 86.6517 184.464ZM95.4009 186.176C94.7609 186.176 94.1316 186.075 93.5129 185.872C92.9049 185.659 92.4036 185.381 92.0089 185.04L92.7129 183.696C93.0116 183.984 93.4116 184.219 93.9129 184.4C94.4249 184.581 94.9049 184.672 95.3529 184.672C95.7369 184.672 96.0463 184.592 96.2809 184.432C96.5263 184.272 96.6489 184.064 96.6489 183.808C96.6489 183.605 96.5796 183.445 96.4409 183.328C96.3129 183.2 96.1423 183.104 95.9289 183.04C95.7263 182.976 95.4703 182.912 95.1609 182.848C94.5956 182.741 94.1209 182.619 93.7369 182.48C93.3529 182.341 93.0169 182.112 92.7289 181.792C92.4409 181.472 92.2969 181.035 92.2969 180.48C92.2969 180 92.4249 179.573 92.6809 179.2C92.9369 178.827 93.2943 178.539 93.7529 178.336C94.2223 178.123 94.7503 178.016 95.3369 178.016C95.9023 178.016 96.4463 178.096 96.9689 178.256C97.4916 178.416 97.9236 178.651 98.2649 178.96L97.5609 180.336C97.2729 180.08 96.8943 179.877 96.4249 179.728C95.9556 179.579 95.5343 179.504 95.1609 179.504C94.8303 179.504 94.5636 179.579 94.3609 179.728C94.1689 179.877 94.0729 180.08 94.0729 180.336C94.0729 180.517 94.1316 180.667 94.2489 180.784C94.3769 180.891 94.5423 180.976 94.7449 181.04C94.9476 181.104 95.2036 181.168 95.5129 181.232C96.0889 181.371 96.5743 181.52 96.9689 181.68C97.3636 181.829 97.7103 182.075 98.0089 182.416C98.3076 182.747 98.4569 183.189 98.4569 183.744C98.4569 184.203 98.3236 184.619 98.0569 184.992C97.8009 185.355 97.4383 185.643 96.9689 185.856C96.5103 186.069 95.9876 186.176 95.4009 186.176ZM108.371 186.16C107.315 186.16 106.355 185.909 105.491 185.408C104.637 184.896 103.96 184.203 103.459 183.328C102.968 182.443 102.723 181.461 102.723 180.384C102.723 179.317 102.968 178.347 103.459 177.472C103.96 176.587 104.637 175.893 105.491 175.392C106.355 174.891 107.315 174.64 108.371 174.64C109.096 174.64 109.784 174.757 110.435 174.992C111.085 175.227 111.64 175.557 112.099 175.984C112.568 176.4 112.899 176.88 113.091 177.424L111.427 178.24C111.181 177.696 110.787 177.264 110.243 176.944C109.699 176.624 109.075 176.464 108.371 176.464C107.677 176.464 107.048 176.635 106.483 176.976C105.917 177.317 105.469 177.787 105.139 178.384C104.819 178.981 104.659 179.648 104.659 180.384C104.659 181.12 104.824 181.792 105.155 182.4C105.485 183.008 105.939 183.483 106.515 183.824C107.101 184.165 107.763 184.336 108.499 184.336C109.16 184.336 109.752 184.187 110.275 183.888C110.797 183.579 111.208 183.157 111.507 182.624C111.816 182.091 111.971 181.488 111.971 180.816C111.971 180.613 111.955 180.421 111.923 180.24C111.901 180.048 111.864 179.877 111.811 179.728H113.731C113.752 179.867 113.768 180.032 113.779 180.224C113.8 180.405 113.811 180.592 113.811 180.784C113.811 181.819 113.571 182.747 113.091 183.568C112.621 184.379 111.971 185.013 111.139 185.472C110.317 185.931 109.395 186.16 108.371 186.16ZM108.403 179.728H113.267L113.155 181.52H108.403V179.728ZM118.866 186.16C118.13 186.16 117.447 185.979 116.818 185.616C116.199 185.253 115.708 184.763 115.346 184.144C114.994 183.515 114.818 182.816 114.818 182.048C114.818 181.301 114.994 180.624 115.346 180.016C115.698 179.397 116.183 178.912 116.802 178.56C117.42 178.197 118.098 178.016 118.834 178.016C119.527 178.016 120.162 178.181 120.738 178.512C121.314 178.832 121.767 179.28 122.098 179.856C122.428 180.421 122.594 181.051 122.594 181.744C122.583 182 122.562 182.267 122.53 182.544H115.714L115.73 181.2H120.77C120.727 180.891 120.61 180.613 120.418 180.368C120.236 180.112 119.996 179.915 119.698 179.776C119.41 179.627 119.09 179.552 118.738 179.552C118.29 179.552 117.895 179.653 117.554 179.856C117.223 180.048 116.967 180.331 116.786 180.704C116.604 181.067 116.514 181.493 116.514 181.984C116.514 182.517 116.61 182.981 116.802 183.376C117.004 183.76 117.287 184.059 117.65 184.272C118.012 184.485 118.434 184.592 118.914 184.592C119.351 184.592 119.756 184.501 120.13 184.32C120.503 184.128 120.775 183.883 120.946 183.584L122.37 184.48C122.082 185.003 121.623 185.413 120.994 185.712C120.375 186.011 119.666 186.16 118.866 186.16ZM126.585 186.176C125.945 186.176 125.316 186.075 124.697 185.872C124.089 185.659 123.588 185.381 123.193 185.04L123.897 183.696C124.196 183.984 124.596 184.219 125.097 184.4C125.609 184.581 126.089 184.672 126.537 184.672C126.921 184.672 127.231 184.592 127.465 184.432C127.711 184.272 127.833 184.064 127.833 183.808C127.833 183.605 127.764 183.445 127.625 183.328C127.497 183.2 127.327 183.104 127.113 183.04C126.911 182.976 126.655 182.912 126.345 182.848C125.78 182.741 125.305 182.619 124.921 182.48C124.537 182.341 124.201 182.112 123.913 181.792C123.625 181.472 123.481 181.035 123.481 180.48C123.481 180 123.609 179.573 123.865 179.2C124.121 178.827 124.479 178.539 124.937 178.336C125.407 178.123 125.935 178.016 126.521 178.016C127.087 178.016 127.631 178.096 128.153 178.256C128.676 178.416 129.108 178.651 129.449 178.96L128.745 180.336C128.457 180.08 128.079 179.877 127.609 179.728C127.14 179.579 126.719 179.504 126.345 179.504C126.015 179.504 125.748 179.579 125.545 179.728C125.353 179.877 125.257 180.08 125.257 180.336C125.257 180.517 125.316 180.667 125.433 180.784C125.561 180.891 125.727 180.976 125.929 181.04C126.132 181.104 126.388 181.168 126.697 181.232C127.273 181.371 127.759 181.52 128.153 181.68C128.548 181.829 128.895 182.075 129.193 182.416C129.492 182.747 129.641 183.189 129.641 183.744C129.641 184.203 129.508 184.619 129.241 184.992C128.985 185.355 128.623 185.643 128.153 185.856C127.695 186.069 127.172 186.176 126.585 186.176ZM134.497 186.16C133.761 186.16 133.078 185.979 132.449 185.616C131.83 185.253 131.34 184.763 130.977 184.144C130.625 183.515 130.449 182.816 130.449 182.048C130.449 181.301 130.625 180.624 130.977 180.016C131.329 179.397 131.814 178.912 132.433 178.56C133.052 178.197 133.729 178.016 134.465 178.016C135.158 178.016 135.793 178.181 136.369 178.512C136.945 178.832 137.398 179.28 137.729 179.856C138.06 180.421 138.225 181.051 138.225 181.744C138.214 182 138.193 182.267 138.161 182.544H131.345L131.361 181.2H136.401C136.358 180.891 136.241 180.613 136.049 180.368C135.868 180.112 135.628 179.915 135.329 179.776C135.041 179.627 134.721 179.552 134.369 179.552C133.921 179.552 133.526 179.653 133.185 179.856C132.854 180.048 132.598 180.331 132.417 180.704C132.236 181.067 132.145 181.493 132.145 181.984C132.145 182.517 132.241 182.981 132.433 183.376C132.636 183.76 132.918 184.059 133.281 184.272C133.644 184.485 134.065 184.592 134.545 184.592C134.982 184.592 135.388 184.501 135.761 184.32C136.134 184.128 136.406 183.883 136.577 183.584L138.001 184.48C137.713 185.003 137.254 185.413 136.625 185.712C136.006 186.011 135.297 186.16 134.497 186.16ZM141.3 186H139.524V174.8H141.3V186ZM144.756 186H142.98V174.8H144.756V186Z" fill="#F4F7FA"/>
<path d="M333.857 266.508C334.565 267.742 334.565 269.258 333.857 270.492L291.653 344.001C290.94 345.243 289.617 346.009 288.184 346.009L203.816 346.009C202.383 346.009 201.06 345.243 200.347 344.001L158.143 270.492C157.435 269.258 157.435 267.742 158.143 266.508L200.347 192.999C201.06 191.757 202.383 190.991 203.816 190.991L288.184 190.991C289.617 190.991 290.94 191.757 291.653 192.999L333.857 266.508Z" fill="#2C3242"/>
<path d="M223.729 262.8V264.592H218.993V267.488H223.217V269.28H218.993V274H217.121V262.8H223.729ZM226.476 266.176V274H224.7V266.176H226.476ZM225.596 262.544C225.906 262.544 226.172 262.661 226.396 262.896C226.631 263.12 226.748 263.381 226.748 263.68C226.748 264 226.631 264.272 226.396 264.496C226.172 264.72 225.906 264.832 225.596 264.832C225.287 264.832 225.02 264.72 224.796 264.496C224.572 264.272 224.46 264 224.46 263.68C224.46 263.371 224.572 263.104 224.796 262.88C225.02 262.656 225.287 262.544 225.596 262.544ZM231.052 274.176C230.412 274.176 229.783 274.075 229.164 273.872C228.556 273.659 228.055 273.381 227.66 273.04L228.364 271.696C228.663 271.984 229.063 272.219 229.564 272.4C230.076 272.581 230.556 272.672 231.004 272.672C231.388 272.672 231.698 272.592 231.932 272.432C232.178 272.272 232.3 272.064 232.3 271.808C232.3 271.605 232.231 271.445 232.092 271.328C231.964 271.2 231.794 271.104 231.58 271.04C231.378 270.976 231.122 270.912 230.812 270.848C230.247 270.741 229.772 270.619 229.388 270.48C229.004 270.341 228.668 270.112 228.38 269.792C228.092 269.472 227.948 269.035 227.948 268.48C227.948 268 228.076 267.573 228.332 267.2C228.588 266.827 228.946 266.539 229.404 266.336C229.874 266.123 230.402 266.016 230.988 266.016C231.554 266.016 232.098 266.096 232.621 266.256C233.143 266.416 233.575 266.651 233.917 266.96L233.213 268.336C232.924 268.08 232.546 267.877 232.076 267.728C231.607 267.579 231.186 267.504 230.812 267.504C230.482 267.504 230.215 267.579 230.012 267.728C229.82 267.877 229.724 268.08 229.724 268.336C229.724 268.517 229.783 268.667 229.9 268.784C230.028 268.891 230.194 268.976 230.396 269.04C230.599 269.104 230.855 269.168 231.164 269.232C231.74 269.371 232.226 269.52 232.621 269.68C233.015 269.829 233.362 270.075 233.661 270.416C233.959 270.747 234.109 271.189 234.109 271.744C234.109 272.203 233.975 272.619 233.708 272.992C233.453 273.355 233.09 273.643 232.621 273.856C232.162 274.069 231.639 274.176 231.052 274.176ZM242.596 272.016C242.298 272.667 241.823 273.189 241.172 273.584C240.532 273.968 239.807 274.16 238.996 274.16C238.228 274.16 237.53 273.984 236.9 273.632C236.282 273.269 235.791 272.779 235.428 272.16C235.076 271.541 234.9 270.853 234.9 270.096C234.9 269.339 235.076 268.651 235.428 268.032C235.791 267.403 236.282 266.912 236.9 266.56C237.53 266.197 238.223 266.016 238.98 266.016C239.738 266.016 240.415 266.192 241.012 266.544C241.62 266.885 242.068 267.344 242.356 267.92L240.852 268.768C240.692 268.448 240.447 268.197 240.116 268.016C239.786 267.824 239.407 267.728 238.98 267.728C238.543 267.728 238.143 267.835 237.78 268.048C237.428 268.251 237.151 268.533 236.948 268.896C236.756 269.259 236.66 269.659 236.66 270.096C236.66 270.533 236.756 270.933 236.948 271.296C237.151 271.659 237.428 271.941 237.78 272.144C238.143 272.347 238.548 272.448 238.996 272.448C239.444 272.448 239.844 272.347 240.196 272.144C240.559 271.941 240.831 271.659 241.012 271.296L242.596 272.016ZM251.27 274H249.478V266.176H251.27V274ZM250.07 270.08C250.07 270.912 249.937 271.637 249.67 272.256C249.403 272.864 249.014 273.333 248.502 273.664C248.001 273.995 247.403 274.16 246.71 274.16C246.027 274.16 245.398 273.979 244.822 273.616C244.246 273.253 243.793 272.757 243.462 272.128C243.131 271.499 242.966 270.816 242.966 270.08C242.966 269.344 243.131 268.667 243.462 268.048C243.793 267.419 244.246 266.923 244.822 266.56C245.398 266.197 246.027 266.016 246.71 266.016C247.403 266.016 248.001 266.181 248.502 266.512C249.014 266.843 249.403 267.317 249.67 267.936C249.937 268.544 250.07 269.259 250.07 270.08ZM247.094 272.464C247.553 272.464 247.963 272.363 248.326 272.16C248.689 271.947 248.971 271.659 249.174 271.296C249.377 270.933 249.478 270.528 249.478 270.08C249.478 269.632 249.377 269.232 249.174 268.88C248.971 268.517 248.689 268.235 248.326 268.032C247.963 267.819 247.553 267.712 247.094 267.712C246.657 267.712 246.257 267.819 245.894 268.032C245.531 268.245 245.243 268.533 245.03 268.896C244.817 269.259 244.71 269.653 244.71 270.08C244.71 270.517 244.817 270.917 245.03 271.28C245.243 271.643 245.531 271.931 245.894 272.144C246.257 272.357 246.657 272.464 247.094 272.464ZM254.723 274H252.947V262.8H254.723V274ZM258.179 266.176V274H256.403V266.176H258.179ZM258.003 265.28H256.355L257.683 262.88H259.827L258.003 265.28ZM267.764 274H265.972V266.176H267.764V274ZM266.564 270.08C266.564 270.912 266.43 271.637 266.164 272.256C265.897 272.864 265.508 273.333 264.996 273.664C264.494 273.995 263.897 274.16 263.204 274.16C262.521 274.16 261.892 273.979 261.316 273.616C260.74 273.253 260.286 272.757 259.956 272.128C259.625 271.499 259.46 270.816 259.46 270.08C259.46 269.344 259.625 268.667 259.956 268.048C260.286 267.419 260.74 266.923 261.316 266.56C261.892 266.197 262.521 266.016 263.204 266.016C263.897 266.016 264.494 266.181 264.996 266.512C265.508 266.843 265.897 267.317 266.164 267.936C266.43 268.544 266.564 269.259 266.564 270.08ZM263.588 272.464C264.046 272.464 264.457 272.363 264.82 272.16C265.182 271.947 265.465 271.659 265.668 271.296C265.87 270.933 265.972 270.528 265.972 270.08C265.972 269.632 265.87 269.232 265.668 268.88C265.465 268.517 265.182 268.235 264.82 268.032C264.457 267.819 264.046 267.712 263.588 267.712C263.15 267.712 262.75 267.819 262.388 268.032C262.025 268.245 261.737 268.533 261.524 268.896C261.31 269.259 261.204 269.653 261.204 270.08C261.204 270.517 261.31 270.917 261.524 271.28C261.737 271.643 262.025 271.931 262.388 272.144C262.75 272.357 263.15 272.464 263.588 272.464ZM272.337 274.176C271.697 274.176 271.068 274.075 270.449 273.872C269.841 273.659 269.34 273.381 268.945 273.04L269.649 271.696C269.948 271.984 270.348 272.219 270.849 272.4C271.361 272.581 271.841 272.672 272.289 272.672C272.673 272.672 272.982 272.592 273.217 272.432C273.462 272.272 273.585 272.064 273.585 271.808C273.585 271.605 273.516 271.445 273.377 271.328C273.249 271.2 273.078 271.104 272.865 271.04C272.662 270.976 272.406 270.912 272.097 270.848C271.532 270.741 271.057 270.619 270.673 270.48C270.289 270.341 269.953 270.112 269.665 269.792C269.377 269.472 269.233 269.035 269.233 268.48C269.233 268 269.361 267.573 269.617 267.2C269.873 266.827 270.23 266.539 270.689 266.336C271.158 266.123 271.686 266.016 272.273 266.016C272.838 266.016 273.382 266.096 273.905 266.256C274.428 266.416 274.86 266.651 275.201 266.96L274.497 268.336C274.209 268.08 273.83 267.877 273.361 267.728C272.892 267.579 272.47 267.504 272.097 267.504C271.766 267.504 271.5 267.579 271.297 267.728C271.105 267.877 271.009 268.08 271.009 268.336C271.009 268.517 271.068 268.667 271.185 268.784C271.313 268.891 271.478 268.976 271.681 269.04C271.884 269.104 272.14 269.168 272.449 269.232C273.025 269.371 273.51 269.52 273.905 269.68C274.3 269.829 274.646 270.075 274.945 270.416C275.244 270.747 275.393 271.189 275.393 271.744C275.393 272.203 275.26 272.619 274.993 272.992C274.737 273.355 274.374 273.643 273.905 273.856C273.446 274.069 272.924 274.176 272.337 274.176Z" fill="#F4F7FA"/>
<path d="M377.534 160.64C378.249 160.64 378.964 160.795 379.678 161.104C380.404 161.403 380.958 161.781 381.342 162.24L380.254 163.696C379.881 163.312 379.438 163.008 378.926 162.784C378.414 162.56 377.902 162.448 377.39 162.448C377.049 162.448 376.745 162.501 376.478 162.608C376.222 162.715 376.02 162.869 375.87 163.072C375.721 163.264 375.646 163.477 375.646 163.712C375.646 164.053 375.748 164.331 375.95 164.544C376.164 164.757 376.42 164.923 376.718 165.04C377.028 165.157 377.444 165.285 377.966 165.424C378.724 165.627 379.342 165.835 379.822 166.048C380.313 166.251 380.734 166.576 381.086 167.024C381.438 167.461 381.615 168.043 381.615 168.768C381.615 169.365 381.449 169.925 381.118 170.448C380.798 170.971 380.334 171.387 379.726 171.696C379.129 172.005 378.425 172.16 377.614 172.16C377.06 172.16 376.5 172.08 375.934 171.92C375.38 171.749 374.868 171.52 374.398 171.232C373.929 170.944 373.524 170.613 373.182 170.24L374.382 168.864C374.862 169.333 375.358 169.701 375.87 169.968C376.393 170.224 376.974 170.352 377.614 170.352C378.02 170.352 378.377 170.288 378.686 170.16C379.006 170.032 379.252 169.851 379.422 169.616C379.604 169.371 379.694 169.093 379.694 168.784C379.694 168.464 379.593 168.208 379.39 168.016C379.188 167.813 378.932 167.659 378.622 167.552C378.324 167.435 377.913 167.307 377.39 167.168C376.644 166.976 376.025 166.779 375.534 166.576C375.054 166.363 374.638 166.043 374.286 165.616C373.934 165.179 373.758 164.592 373.758 163.856C373.758 163.248 373.918 162.704 374.238 162.224C374.569 161.733 375.017 161.349 375.582 161.072C376.158 160.784 376.809 160.64 377.534 160.64ZM390.823 172H389.031V164.176H390.823V172ZM389.623 168.08C389.623 168.912 389.49 169.637 389.223 170.256C388.956 170.864 388.567 171.333 388.055 171.664C387.554 171.995 386.956 172.16 386.263 172.16C385.58 172.16 384.951 171.979 384.375 171.616C383.799 171.253 383.346 170.757 383.015 170.128C382.684 169.499 382.519 168.816 382.519 168.08C382.519 167.344 382.684 166.667 383.015 166.048C383.346 165.419 383.799 164.923 384.375 164.56C384.951 164.197 385.58 164.016 386.263 164.016C386.956 164.016 387.554 164.181 388.055 164.512C388.567 164.843 388.956 165.317 389.223 165.936C389.49 166.544 389.623 167.259 389.623 168.08ZM386.647 170.464C387.106 170.464 387.516 170.363 387.879 170.16C388.242 169.947 388.524 169.659 388.727 169.296C388.93 168.933 389.031 168.528 389.031 168.08C389.031 167.632 388.93 167.232 388.727 166.88C388.524 166.517 388.242 166.235 387.879 166.032C387.516 165.819 387.106 165.712 386.647 165.712C386.21 165.712 385.81 165.819 385.447 166.032C385.084 166.245 384.796 166.533 384.583 166.896C384.37 167.259 384.263 167.653 384.263 168.08C384.263 168.517 384.37 168.917 384.583 169.28C384.796 169.643 385.084 169.931 385.447 170.144C385.81 170.357 386.21 170.464 386.647 170.464ZM394.276 172H392.5V160.8H394.276V172ZM403.735 172H401.943V164.176H403.735V172ZM402.535 168.08C402.535 168.912 402.402 169.637 402.135 170.256C401.869 170.864 401.479 171.333 400.967 171.664C400.466 171.995 399.869 172.16 399.175 172.16C398.493 172.16 397.863 171.979 397.287 171.616C396.711 171.253 396.258 170.757 395.927 170.128C395.597 169.499 395.431 168.816 395.431 168.08C395.431 167.344 395.597 166.667 395.927 166.048C396.258 165.419 396.711 164.923 397.287 164.56C397.863 164.197 398.493 164.016 399.175 164.016C399.869 164.016 400.466 164.181 400.967 164.512C401.479 164.843 401.869 165.317 402.135 165.936C402.402 166.544 402.535 167.259 402.535 168.08ZM399.559 170.464C400.018 170.464 400.429 170.363 400.791 170.16C401.154 169.947 401.437 169.659 401.639 169.296C401.842 168.933 401.943 168.528 401.943 168.08C401.943 167.632 401.842 167.232 401.639 166.88C401.437 166.517 401.154 166.235 400.791 166.032C400.429 165.819 400.018 165.712 399.559 165.712C399.122 165.712 398.722 165.819 398.359 166.032C397.997 166.245 397.709 166.533 397.495 166.896C397.282 167.259 397.175 167.653 397.175 168.08C397.175 168.517 397.282 168.917 397.495 169.28C397.709 169.643 397.997 169.931 398.359 170.144C398.722 170.357 399.122 170.464 399.559 170.464ZM408.309 172.176C407.669 172.176 407.039 172.075 406.421 171.872C405.813 171.659 405.311 171.381 404.917 171.04L405.621 169.696C405.919 169.984 406.319 170.219 406.821 170.4C407.333 170.581 407.813 170.672 408.261 170.672C408.645 170.672 408.954 170.592 409.189 170.432C409.434 170.272 409.557 170.064 409.557 169.808C409.557 169.605 409.487 169.445 409.349 169.328C409.221 169.2 409.05 169.104 408.837 169.04C408.634 168.976 408.378 168.912 408.069 168.848C407.503 168.741 407.029 168.619 406.645 168.48C406.261 168.341 405.925 168.112 405.637 167.792C405.349 167.472 405.205 167.035 405.205 166.48C405.205 166 405.333 165.573 405.589 165.2C405.845 164.827 406.202 164.539 406.661 164.336C407.13 164.123 407.658 164.016 408.245 164.016C408.81 164.016 409.354 164.096 409.877 164.256C410.399 164.416 410.831 164.651 411.173 164.96L410.469 166.336C410.181 166.08 409.802 165.877 409.333 165.728C408.863 165.579 408.442 165.504 408.069 165.504C407.738 165.504 407.471 165.579 407.269 165.728C407.077 165.877 406.981 166.08 406.981 166.336C406.981 166.517 407.039 166.667 407.157 166.784C407.285 166.891 407.45 166.976 407.653 167.04C407.855 167.104 408.111 167.168 408.421 167.232C408.997 167.371 409.482 167.52 409.877 167.68C410.271 167.829 410.618 168.075 410.917 168.416C411.215 168.747 411.365 169.189 411.365 169.744C411.365 170.203 411.231 170.619 410.965 170.992C410.709 171.355 410.346 171.643 409.877 171.856C409.418 172.069 408.895 172.176 408.309 172.176ZM422.639 168.08C422.639 168.912 422.505 169.637 422.239 170.256C421.972 170.864 421.583 171.333 421.071 171.664C420.569 171.995 419.972 172.16 419.279 172.16C418.596 172.16 417.967 171.979 417.391 171.616C416.815 171.253 416.361 170.757 416.031 170.128C415.7 169.499 415.535 168.816 415.535 168.08C415.535 167.344 415.7 166.667 416.031 166.048C416.361 165.419 416.815 164.923 417.391 164.56C417.967 164.197 418.596 164.016 419.279 164.016C419.972 164.016 420.569 164.181 421.071 164.512C421.583 164.843 421.972 165.317 422.239 165.936C422.505 166.544 422.639 167.259 422.639 168.08ZM419.663 170.464C420.121 170.464 420.532 170.363 420.895 170.16C421.257 169.947 421.54 169.659 421.743 169.296C421.945 168.933 422.047 168.528 422.047 168.08C422.047 167.632 421.945 167.232 421.743 166.88C421.54 166.517 421.257 166.235 420.895 166.032C420.532 165.819 420.121 165.712 419.663 165.712C419.225 165.712 418.825 165.819 418.463 166.032C418.1 166.245 417.812 166.533 417.599 166.896C417.385 167.259 417.279 167.653 417.279 168.08C417.279 168.517 417.385 168.917 417.599 169.28C417.812 169.643 418.1 169.931 418.463 170.144C418.825 170.357 419.225 170.464 419.663 170.464ZM423.839 172H422.047V160.8H423.839V172ZM429.055 172.16C428.319 172.16 427.636 171.979 427.007 171.616C426.388 171.253 425.898 170.763 425.535 170.144C425.183 169.515 425.007 168.816 425.007 168.048C425.007 167.301 425.183 166.624 425.535 166.016C425.887 165.397 426.372 164.912 426.991 164.56C427.61 164.197 428.287 164.016 429.023 164.016C429.716 164.016 430.351 164.181 430.927 164.512C431.503 164.832 431.956 165.28 432.287 165.856C432.618 166.421 432.783 167.051 432.783 167.744C432.772 168 432.751 168.267 432.719 168.544H425.903L425.919 167.2H430.959C430.916 166.891 430.799 166.613 430.607 166.368C430.426 166.112 430.186 165.915 429.887 165.776C429.599 165.627 429.279 165.552 428.927 165.552C428.479 165.552 428.084 165.653 427.743 165.856C427.412 166.048 427.156 166.331 426.975 166.704C426.794 167.067 426.703 167.493 426.703 167.984C426.703 168.517 426.799 168.981 426.991 169.376C427.194 169.76 427.476 170.059 427.839 170.272C428.202 170.485 428.623 170.592 429.103 170.592C429.54 170.592 429.946 170.501 430.319 170.32C430.692 170.128 430.964 169.883 431.135 169.584L432.559 170.48C432.271 171.003 431.812 171.413 431.183 171.712C430.564 172.011 429.855 172.16 429.055 172.16ZM376.304 192H374.512V184.176H376.304V192ZM375.104 188.08C375.104 188.912 374.971 189.637 374.704 190.256C374.438 190.864 374.048 191.333 373.536 191.664C373.035 191.995 372.438 192.16 371.744 192.16C371.062 192.16 370.432 191.979 369.856 191.616C369.28 191.253 368.827 190.757 368.496 190.128C368.166 189.499 368 188.816 368 188.08C368 187.344 368.166 186.667 368.496 186.048C368.827 185.419 369.28 184.923 369.856 184.56C370.432 184.197 371.062 184.016 371.744 184.016C372.438 184.016 373.035 184.181 373.536 184.512C374.048 184.843 374.438 185.317 374.704 185.936C374.971 186.544 375.104 187.259 375.104 188.08ZM372.128 190.464C372.587 190.464 372.998 190.363 373.36 190.16C373.723 189.947 374.006 189.659 374.208 189.296C374.411 188.933 374.512 188.528 374.512 188.08C374.512 187.632 374.411 187.232 374.208 186.88C374.006 186.517 373.723 186.235 373.36 186.032C372.998 185.819 372.587 185.712 372.128 185.712C371.691 185.712 371.291 185.819 370.928 186.032C370.566 186.245 370.278 186.533 370.064 186.896C369.851 187.259 369.744 187.653 369.744 188.08C369.744 188.517 369.851 188.917 370.064 189.28C370.278 189.643 370.566 189.931 370.928 190.144C371.291 190.357 371.691 190.464 372.128 190.464ZM383.581 184.176H385.357V192H383.581V184.176ZM379.757 188.416C379.757 189.035 379.928 189.531 380.269 189.904C380.621 190.267 381.08 190.448 381.645 190.448C382.232 190.448 382.701 190.267 383.053 189.904C383.405 189.531 383.581 189.035 383.581 188.416H384.125C384.125 189.163 384.003 189.824 383.757 190.4C383.523 190.965 383.187 191.403 382.749 191.712C382.312 192.011 381.8 192.16 381.213 192.16C380.211 192.16 379.416 191.845 378.829 191.216C378.253 190.587 377.965 189.728 377.965 188.64V184.176H379.757V188.416ZM393.751 188.08C393.751 188.912 393.618 189.637 393.351 190.256C393.084 190.864 392.695 191.333 392.183 191.664C391.682 191.995 391.084 192.16 390.391 192.16C389.708 192.16 389.079 191.979 388.503 191.616C387.927 191.253 387.474 190.757 387.143 190.128C386.812 189.499 386.647 188.816 386.647 188.08C386.647 187.344 386.812 186.667 387.143 186.048C387.474 185.419 387.927 184.923 388.503 184.56C389.079 184.197 389.708 184.016 390.391 184.016C391.084 184.016 391.682 184.181 392.183 184.512C392.695 184.843 393.084 185.317 393.351 185.936C393.618 186.544 393.751 187.259 393.751 188.08ZM390.775 190.464C391.234 190.464 391.644 190.363 392.007 190.16C392.37 189.947 392.652 189.659 392.855 189.296C393.058 188.933 393.159 188.528 393.159 188.08C393.159 187.632 393.058 187.232 392.855 186.88C392.652 186.517 392.37 186.235 392.007 186.032C391.644 185.819 391.234 185.712 390.775 185.712C390.338 185.712 389.938 185.819 389.575 186.032C389.212 186.245 388.924 186.533 388.711 186.896C388.498 187.259 388.391 187.653 388.391 188.08C388.391 188.517 388.498 188.917 388.711 189.28C388.924 189.643 389.212 189.931 389.575 190.144C389.938 190.357 390.338 190.464 390.775 190.464ZM394.951 192H393.159V180.8H394.951V192ZM398.404 184.176V192H396.628V184.176H398.404ZM397.524 180.544C397.834 180.544 398.1 180.661 398.324 180.896C398.559 181.12 398.676 181.381 398.676 181.68C398.676 182 398.559 182.272 398.324 182.496C398.1 182.72 397.834 182.832 397.524 182.832C397.215 182.832 396.948 182.72 396.724 182.496C396.5 182.272 396.388 182 396.388 181.68C396.388 181.371 396.5 181.104 396.724 180.88C396.948 180.656 397.215 180.544 397.524 180.544ZM403.749 192.16C403.013 192.16 402.33 191.979 401.701 191.616C401.082 191.253 400.591 190.763 400.229 190.144C399.877 189.515 399.701 188.816 399.701 188.048C399.701 187.301 399.877 186.624 400.229 186.016C400.581 185.397 401.066 184.912 401.685 184.56C402.303 184.197 402.981 184.016 403.717 184.016C404.41 184.016 405.045 184.181 405.621 184.512C406.197 184.832 406.65 185.28 406.981 185.856C407.311 186.421 407.477 187.051 407.477 187.744C407.466 188 407.445 188.267 407.413 188.544H400.597L400.613 187.2H405.653C405.61 186.891 405.493 186.613 405.301 186.368C405.119 186.112 404.879 185.915 404.581 185.776C404.293 185.627 403.973 185.552 403.621 185.552C403.173 185.552 402.778 185.653 402.437 185.856C402.106 186.048 401.85 186.331 401.669 186.704C401.487 187.067 401.397 187.493 401.397 187.984C401.397 188.517 401.493 188.981 401.685 189.376C401.887 189.76 402.17 190.059 402.533 190.272C402.895 190.485 403.317 190.592 403.797 190.592C404.234 190.592 404.639 190.501 405.013 190.32C405.386 190.128 405.658 189.883 405.829 189.584L407.253 190.48C406.965 191.003 406.506 191.413 405.877 191.712C405.258 192.011 404.549 192.16 403.749 192.16ZM410.551 192H408.775V184.176H410.551V192ZM414.375 187.76C414.375 187.141 414.199 186.651 413.847 186.288C413.506 185.915 413.053 185.728 412.487 185.728C411.901 185.728 411.431 185.915 411.079 186.288C410.727 186.651 410.551 187.141 410.551 187.76H410.007C410.007 187.013 410.125 186.357 410.359 185.792C410.605 185.216 410.946 184.779 411.383 184.48C411.821 184.171 412.333 184.016 412.919 184.016C413.922 184.016 414.711 184.331 415.287 184.96C415.874 185.589 416.167 186.448 416.167 187.536V192H414.375V187.76ZM425.137 190.016C424.838 190.667 424.364 191.189 423.713 191.584C423.073 191.968 422.348 192.16 421.537 192.16C420.769 192.16 420.07 191.984 419.441 191.632C418.822 191.269 418.332 190.779 417.969 190.16C417.617 189.541 417.441 188.853 417.441 188.096C417.441 187.339 417.617 186.651 417.969 186.032C418.332 185.403 418.822 184.912 419.441 184.56C420.07 184.197 420.764 184.016 421.521 184.016C422.278 184.016 422.956 184.192 423.553 184.544C424.161 184.885 424.609 185.344 424.897 185.92L423.393 186.768C423.233 186.448 422.988 186.197 422.657 186.016C422.326 185.824 421.948 185.728 421.521 185.728C421.084 185.728 420.684 185.835 420.321 186.048C419.969 186.251 419.692 186.533 419.489 186.896C419.297 187.259 419.201 187.659 419.201 188.096C419.201 188.533 419.297 188.933 419.489 189.296C419.692 189.659 419.969 189.941 420.321 190.144C420.684 190.347 421.089 190.448 421.537 190.448C421.985 190.448 422.385 190.347 422.737 190.144C423.1 189.941 423.372 189.659 423.553 189.296L425.137 190.016ZM428.026 184.176V192H426.25V184.176H428.026ZM427.146 180.544C427.456 180.544 427.722 180.661 427.946 180.896C428.181 181.12 428.298 181.381 428.298 181.68C428.298 182 428.181 182.272 427.946 182.496C427.722 182.72 427.456 182.832 427.146 182.832C426.837 182.832 426.57 182.72 426.346 182.496C426.122 182.272 426.01 182 426.01 181.68C426.01 181.371 426.122 181.104 426.346 180.88C426.57 180.656 426.837 180.544 427.146 180.544ZM437.61 192H435.818V184.176H437.61V192ZM436.41 188.08C436.41 188.912 436.277 189.637 436.01 190.256C435.744 190.864 435.354 191.333 434.842 191.664C434.341 191.995 433.744 192.16 433.05 192.16C432.368 192.16 431.738 191.979 431.162 191.616C430.586 191.253 430.133 190.757 429.802 190.128C429.472 189.499 429.306 188.816 429.306 188.08C429.306 187.344 429.472 186.667 429.802 186.048C430.133 185.419 430.586 184.923 431.162 184.56C431.738 184.197 432.368 184.016 433.05 184.016C433.744 184.016 434.341 184.181 434.842 184.512C435.354 184.843 435.744 185.317 436.01 185.936C436.277 186.544 436.41 187.259 436.41 188.08ZM433.434 190.464C433.893 190.464 434.304 190.363 434.666 190.16C435.029 189.947 435.312 189.659 435.514 189.296C435.717 188.933 435.818 188.528 435.818 188.08C435.818 187.632 435.717 187.232 435.514 186.88C435.312 186.517 435.029 186.235 434.666 186.032C434.304 185.819 433.893 185.712 433.434 185.712C432.997 185.712 432.597 185.819 432.234 186.032C431.872 186.245 431.584 186.533 431.37 186.896C431.157 187.259 431.05 187.653 431.05 188.08C431.05 188.517 431.157 188.917 431.37 189.28C431.584 189.643 431.872 189.931 432.234 190.144C432.597 190.357 432.997 190.464 433.434 190.464Z" fill="#F4F7FA"/>
<path d="M490.845 353.5C491.56 354.738 491.56 356.262 490.845 357.5L448.405 431.009C447.69 432.247 446.37 433.009 444.941 433.009L360.059 433.009C358.63 433.009 357.31 432.247 356.595 431.009L314.155 357.5C313.44 356.262 313.44 354.738 314.155 353.5L356.595 279.991C357.31 278.753 358.63 277.991 360.059 277.991L444.941 277.991C446.37 277.991 447.69 278.753 448.405 279.991L490.845 353.5Z" fill="#2C3242"/>
<path d="M346.094 348.144C345.272 348.144 344.526 347.957 343.854 347.584C343.192 347.2 342.67 346.672 342.286 346C341.912 345.317 341.726 344.56 341.726 343.728V336.8H343.598V343.728C343.598 344.219 343.704 344.667 343.918 345.072C344.142 345.467 344.44 345.776 344.814 346C345.198 346.224 345.624 346.336 346.094 346.336C346.563 346.336 346.984 346.224 347.358 346C347.742 345.776 348.04 345.467 348.254 345.072C348.478 344.667 348.59 344.219 348.59 343.728V336.8H350.462V343.728C350.462 344.56 350.27 345.317 349.886 346C349.512 346.672 348.99 347.2 348.318 347.584C347.656 347.957 346.915 348.144 346.094 348.144ZM354.003 348H352.227V340.176H354.003V348ZM357.827 343.76C357.827 343.141 357.651 342.651 357.299 342.288C356.957 341.915 356.504 341.728 355.939 341.728C355.352 341.728 354.883 341.915 354.531 342.288C354.179 342.651 354.003 343.141 354.003 343.76H353.459C353.459 343.013 353.576 342.357 353.811 341.792C354.056 341.216 354.397 340.779 354.835 340.48C355.272 340.171 355.784 340.016 356.371 340.016C357.373 340.016 358.163 340.331 358.739 340.96C359.325 341.589 359.619 342.448 359.619 343.536V348H357.827V343.76ZM363.068 340.176V348H361.292V340.176H363.068ZM362.188 336.544C362.498 336.544 362.764 336.661 362.988 336.896C363.223 337.12 363.34 337.381 363.34 337.68C363.34 338 363.223 338.272 362.988 338.496C362.764 338.72 362.498 338.832 362.188 338.832C361.879 338.832 361.612 338.72 361.388 338.496C361.164 338.272 361.052 338 361.052 337.68C361.052 337.371 361.164 337.104 361.388 336.88C361.612 336.656 361.879 336.544 362.188 336.544ZM371.453 344.08C371.453 344.912 371.319 345.637 371.053 346.256C370.786 346.864 370.397 347.333 369.885 347.664C369.383 347.995 368.786 348.16 368.093 348.16C367.41 348.16 366.781 347.979 366.205 347.616C365.629 347.253 365.175 346.757 364.845 346.128C364.514 345.499 364.349 344.816 364.349 344.08C364.349 343.344 364.514 342.667 364.845 342.048C365.175 341.419 365.629 340.923 366.205 340.56C366.781 340.197 367.41 340.016 368.093 340.016C368.786 340.016 369.383 340.181 369.885 340.512C370.397 340.843 370.786 341.317 371.053 341.936C371.319 342.544 371.453 343.259 371.453 344.08ZM368.477 346.464C368.935 346.464 369.346 346.363 369.709 346.16C370.071 345.947 370.354 345.659 370.557 345.296C370.759 344.933 370.861 344.528 370.861 344.08C370.861 343.632 370.759 343.232 370.557 342.88C370.354 342.517 370.071 342.235 369.709 342.032C369.346 341.819 368.935 341.712 368.477 341.712C368.039 341.712 367.639 341.819 367.277 342.032C366.914 342.245 366.626 342.533 366.413 342.896C366.199 343.259 366.093 343.653 366.093 344.08C366.093 344.517 366.199 344.917 366.413 345.28C366.626 345.643 366.914 345.931 367.277 346.144C367.639 346.357 368.039 346.464 368.477 346.464ZM372.653 348H370.861V336.8H372.653V348ZM382.109 348H380.317V340.176H382.109V348ZM380.909 344.08C380.909 344.912 380.776 345.637 380.509 346.256C380.242 346.864 379.853 347.333 379.341 347.664C378.84 347.995 378.242 348.16 377.549 348.16C376.866 348.16 376.237 347.979 375.661 347.616C375.085 347.253 374.632 346.757 374.301 346.128C373.97 345.499 373.805 344.816 373.805 344.08C373.805 343.344 373.97 342.667 374.301 342.048C374.632 341.419 375.085 340.923 375.661 340.56C376.237 340.197 376.866 340.016 377.549 340.016C378.242 340.016 378.84 340.181 379.341 340.512C379.853 340.843 380.242 341.317 380.509 341.936C380.776 342.544 380.909 343.259 380.909 344.08ZM377.933 346.464C378.392 346.464 378.802 346.363 379.165 346.16C379.528 345.947 379.81 345.659 380.013 345.296C380.216 344.933 380.317 344.528 380.317 344.08C380.317 343.632 380.216 343.232 380.013 342.88C379.81 342.517 379.528 342.235 379.165 342.032C378.802 341.819 378.392 341.712 377.933 341.712C377.496 341.712 377.096 341.819 376.733 342.032C376.37 342.245 376.082 342.533 375.869 342.896C375.656 343.259 375.549 343.653 375.549 344.08C375.549 344.517 375.656 344.917 375.869 345.28C376.082 345.643 376.37 345.931 376.733 346.144C377.096 346.357 377.496 346.464 377.933 346.464ZM390.49 344.08C390.49 344.912 390.357 345.637 390.09 346.256C389.824 346.864 389.434 347.333 388.922 347.664C388.421 347.995 387.824 348.16 387.13 348.16C386.448 348.16 385.818 347.979 385.242 347.616C384.666 347.253 384.213 346.757 383.882 346.128C383.552 345.499 383.386 344.816 383.386 344.08C383.386 343.344 383.552 342.667 383.882 342.048C384.213 341.419 384.666 340.923 385.242 340.56C385.818 340.197 386.448 340.016 387.13 340.016C387.824 340.016 388.421 340.181 388.922 340.512C389.434 340.843 389.824 341.317 390.09 341.936C390.357 342.544 390.49 343.259 390.49 344.08ZM387.514 346.464C387.973 346.464 388.384 346.363 388.746 346.16C389.109 345.947 389.392 345.659 389.594 345.296C389.797 344.933 389.898 344.528 389.898 344.08C389.898 343.632 389.797 343.232 389.594 342.88C389.392 342.517 389.109 342.235 388.746 342.032C388.384 341.819 387.973 341.712 387.514 341.712C387.077 341.712 386.677 341.819 386.314 342.032C385.952 342.245 385.664 342.533 385.45 342.896C385.237 343.259 385.13 343.653 385.13 344.08C385.13 344.517 385.237 344.917 385.45 345.28C385.664 345.643 385.952 345.931 386.314 346.144C386.677 346.357 387.077 346.464 387.514 346.464ZM391.69 348H389.898V336.8H391.69V348ZM396.906 348.16C396.17 348.16 395.488 347.979 394.858 347.616C394.24 347.253 393.749 346.763 393.386 346.144C393.034 345.515 392.858 344.816 392.858 344.048C392.858 343.301 393.034 342.624 393.386 342.016C393.738 341.397 394.224 340.912 394.842 340.56C395.461 340.197 396.138 340.016 396.874 340.016C397.568 340.016 398.202 340.181 398.778 340.512C399.354 340.832 399.808 341.28 400.138 341.856C400.469 342.421 400.634 343.051 400.634 343.744C400.624 344 400.602 344.267 400.57 344.544H393.754L393.77 343.2H398.81C398.768 342.891 398.65 342.613 398.458 342.368C398.277 342.112 398.037 341.915 397.738 341.776C397.45 341.627 397.13 341.552 396.778 341.552C396.33 341.552 395.936 341.653 395.594 341.856C395.264 342.048 395.008 342.331 394.826 342.704C394.645 343.067 394.554 343.493 394.554 343.984C394.554 344.517 394.65 344.981 394.842 345.376C395.045 345.76 395.328 346.059 395.69 346.272C396.053 346.485 396.474 346.592 396.954 346.592C397.392 346.592 397.797 346.501 398.17 346.32C398.544 346.128 398.816 345.883 398.986 345.584L400.41 346.48C400.122 347.003 399.664 347.413 399.034 347.712C398.416 348.011 397.706 348.16 396.906 348.16ZM404.626 348.176C403.986 348.176 403.357 348.075 402.738 347.872C402.13 347.659 401.629 347.381 401.234 347.04L401.938 345.696C402.237 345.984 402.637 346.219 403.138 346.4C403.65 346.581 404.13 346.672 404.578 346.672C404.962 346.672 405.271 346.592 405.506 346.432C405.751 346.272 405.874 346.064 405.874 345.808C405.874 345.605 405.805 345.445 405.666 345.328C405.538 345.2 405.367 345.104 405.154 345.04C404.951 344.976 404.695 344.912 404.386 344.848C403.821 344.741 403.346 344.619 402.962 344.48C402.578 344.341 402.242 344.112 401.954 343.792C401.666 343.472 401.522 343.035 401.522 342.48C401.522 342 401.65 341.573 401.906 341.2C402.162 340.827 402.519 340.539 402.978 340.336C403.447 340.123 403.975 340.016 404.562 340.016C405.127 340.016 405.671 340.096 406.194 340.256C406.717 340.416 407.149 340.651 407.49 340.96L406.786 342.336C406.498 342.08 406.119 341.877 405.65 341.728C405.181 341.579 404.759 341.504 404.386 341.504C404.055 341.504 403.789 341.579 403.586 341.728C403.394 341.877 403.298 342.08 403.298 342.336C403.298 342.517 403.357 342.667 403.474 342.784C403.602 342.891 403.767 342.976 403.97 343.04C404.173 343.104 404.429 343.168 404.738 343.232C405.314 343.371 405.799 343.52 406.194 343.68C406.589 343.829 406.935 344.075 407.234 344.416C407.533 344.747 407.682 345.189 407.682 345.744C407.682 346.203 407.549 346.619 407.282 346.992C407.026 347.355 406.663 347.643 406.194 347.856C405.735 348.069 405.213 348.176 404.626 348.176ZM412.332 336.8H414.588L418.316 345.248L422.156 336.8H424.076V348H422.204V340.48L418.86 348H417.484L414.204 340.48V348H412.332V336.8ZM429.513 340.016C430.27 340.016 430.953 340.197 431.561 340.56C432.179 340.912 432.67 341.397 433.033 342.016C433.395 342.635 433.577 343.328 433.577 344.096C433.577 344.853 433.395 345.541 433.033 346.16C432.681 346.779 432.195 347.269 431.577 347.632C430.958 347.984 430.27 348.16 429.513 348.16C428.755 348.16 428.067 347.984 427.449 347.632C426.83 347.269 426.345 346.779 425.993 346.16C425.641 345.541 425.465 344.853 425.465 344.096C425.465 343.328 425.641 342.635 425.993 342.016C426.345 341.397 426.83 340.912 427.449 340.56C428.067 340.197 428.755 340.016 429.513 340.016ZM429.513 341.712C429.086 341.712 428.691 341.819 428.329 342.032C427.977 342.245 427.699 342.533 427.497 342.896C427.294 343.248 427.193 343.648 427.193 344.096C427.193 344.533 427.294 344.933 427.497 345.296C427.699 345.648 427.977 345.931 428.329 346.144C428.691 346.347 429.086 346.448 429.513 346.448C429.939 346.448 430.329 346.347 430.681 346.144C431.033 345.931 431.31 345.648 431.513 345.296C431.726 344.933 431.833 344.533 431.833 344.096C431.833 343.648 431.726 343.248 431.513 342.896C431.31 342.533 431.033 342.245 430.681 342.032C430.329 341.819 429.939 341.712 429.513 341.712ZM430.217 339.28H428.569L429.897 336.88H432.041L430.217 339.28ZM438.447 348H436.911L433.631 340.176H435.567L437.679 345.616L439.775 340.176H441.727L438.447 348ZM444.443 340.176V348H442.667V340.176H444.443ZM443.563 336.544C443.873 336.544 444.139 336.661 444.363 336.896C444.598 337.12 444.715 337.381 444.715 337.68C444.715 338 444.598 338.272 444.363 338.496C444.139 338.72 443.873 338.832 443.563 338.832C443.254 338.832 442.987 338.72 442.763 338.496C442.539 338.272 442.427 338 442.427 337.68C442.427 337.371 442.539 337.104 442.763 336.88C442.987 336.656 443.254 336.544 443.563 336.544ZM447.993 348H446.217V336.8H447.993V348ZM453.213 348.16C452.477 348.16 451.794 347.979 451.165 347.616C450.546 347.253 450.055 346.763 449.693 346.144C449.341 345.515 449.165 344.816 449.165 344.048C449.165 343.301 449.341 342.624 449.693 342.016C450.045 341.397 450.53 340.912 451.149 340.56C451.767 340.197 452.445 340.016 453.181 340.016C453.874 340.016 454.509 340.181 455.085 340.512C455.661 340.832 456.114 341.28 456.445 341.856C456.775 342.421 456.941 343.051 456.941 343.744C456.93 344 456.909 344.267 456.877 344.544H450.061L450.077 343.2H455.117C455.074 342.891 454.957 342.613 454.765 342.368C454.583 342.112 454.343 341.915 454.045 341.776C453.757 341.627 453.437 341.552 453.085 341.552C452.637 341.552 452.242 341.653 451.901 341.856C451.57 342.048 451.314 342.331 451.133 342.704C450.951 343.067 450.861 343.493 450.861 343.984C450.861 344.517 450.957 344.981 451.149 345.376C451.351 345.76 451.634 346.059 451.997 346.272C452.359 346.485 452.781 346.592 453.261 346.592C453.698 346.592 454.103 346.501 454.477 346.32C454.85 346.128 455.122 345.883 455.293 345.584L456.717 346.48C456.429 347.003 455.97 347.413 455.341 347.712C454.722 348.011 454.013 348.16 453.213 348.16ZM460.932 348.176C460.292 348.176 459.663 348.075 459.044 347.872C458.436 347.659 457.935 347.381 457.54 347.04L458.244 345.696C458.543 345.984 458.943 346.219 459.444 346.4C459.956 346.581 460.436 346.672 460.884 346.672C461.268 346.672 461.578 346.592 461.812 346.432C462.058 346.272 462.18 346.064 462.18 345.808C462.18 345.605 462.111 345.445 461.972 345.328C461.844 345.2 461.674 345.104 461.46 345.04C461.258 344.976 461.002 344.912 460.692 344.848C460.127 344.741 459.652 344.619 459.268 344.48C458.884 344.341 458.548 344.112 458.26 343.792C457.972 343.472 457.828 343.035 457.828 342.48C457.828 342 457.956 341.573 458.212 341.2C458.468 340.827 458.826 340.539 459.284 340.336C459.754 340.123 460.282 340.016 460.868 340.016C461.434 340.016 461.978 340.096 462.5 340.256C463.023 340.416 463.455 340.651 463.796 340.96L463.092 342.336C462.804 342.08 462.426 341.877 461.956 341.728C461.487 341.579 461.066 341.504 460.692 341.504C460.362 341.504 460.095 341.579 459.892 341.728C459.7 341.877 459.604 342.08 459.604 342.336C459.604 342.517 459.663 342.667 459.78 342.784C459.908 342.891 460.074 342.976 460.276 343.04C460.479 343.104 460.735 343.168 461.044 343.232C461.62 343.371 462.106 343.52 462.5 343.68C462.895 343.829 463.242 344.075 463.54 344.416C463.839 344.747 463.988 345.189 463.988 345.744C463.988 346.203 463.855 346.619 463.588 346.992C463.332 347.355 462.97 347.643 462.5 347.856C462.042 348.069 461.519 348.176 460.932 348.176ZM352.437 364.08C352.437 364.912 352.304 365.637 352.037 366.256C351.77 366.864 351.381 367.333 350.869 367.664C350.368 367.995 349.77 368.16 349.077 368.16C348.394 368.16 347.765 367.979 347.189 367.616C346.613 367.253 346.16 366.757 345.829 366.128C345.498 365.499 345.333 364.816 345.333 364.08C345.333 363.344 345.498 362.667 345.829 362.048C346.16 361.419 346.613 360.923 347.189 360.56C347.765 360.197 348.394 360.016 349.077 360.016C349.77 360.016 350.368 360.181 350.869 360.512C351.381 360.843 351.77 361.317 352.037 361.936C352.304 362.544 352.437 363.259 352.437 364.08ZM349.461 366.464C349.92 366.464 350.33 366.363 350.693 366.16C351.056 365.947 351.338 365.659 351.541 365.296C351.744 364.933 351.845 364.528 351.845 364.08C351.845 363.632 351.744 363.232 351.541 362.88C351.338 362.517 351.056 362.235 350.693 362.032C350.33 361.819 349.92 361.712 349.461 361.712C349.024 361.712 348.624 361.819 348.261 362.032C347.898 362.245 347.61 362.533 347.397 362.896C347.184 363.259 347.077 363.653 347.077 364.08C347.077 364.517 347.184 364.917 347.397 365.28C347.61 365.643 347.898 365.931 348.261 366.144C348.624 366.357 349.024 366.464 349.461 366.464ZM353.637 368H351.845V356.8H353.637V368ZM358.853 368.16C358.117 368.16 357.435 367.979 356.805 367.616C356.187 367.253 355.696 366.763 355.333 366.144C354.981 365.515 354.805 364.816 354.805 364.048C354.805 363.301 354.981 362.624 355.333 362.016C355.685 361.397 356.171 360.912 356.789 360.56C357.408 360.197 358.085 360.016 358.821 360.016C359.515 360.016 360.149 360.181 360.725 360.512C361.301 360.832 361.755 361.28 362.085 361.856C362.416 362.421 362.581 363.051 362.581 363.744C362.571 364 362.549 364.267 362.517 364.544H355.701L355.717 363.2H360.757C360.715 362.891 360.597 362.613 360.405 362.368C360.224 362.112 359.984 361.915 359.685 361.776C359.397 361.627 359.077 361.552 358.725 361.552C358.277 361.552 357.883 361.653 357.541 361.856C357.211 362.048 356.955 362.331 356.773 362.704C356.592 363.067 356.501 363.493 356.501 363.984C356.501 364.517 356.597 364.981 356.789 365.376C356.992 365.76 357.275 366.059 357.637 366.272C358 366.485 358.421 366.592 358.901 366.592C359.339 366.592 359.744 366.501 360.117 366.32C360.491 366.128 360.763 365.883 360.933 365.584L362.357 366.48C362.069 367.003 361.611 367.413 360.981 367.712C360.363 368.011 359.653 368.16 358.853 368.16ZM368.972 360.176V368H367.196V360.176H368.972ZM368.092 356.544C368.401 356.544 368.668 356.661 368.892 356.896C369.126 357.12 369.244 357.381 369.244 357.68C369.244 358 369.126 358.272 368.892 358.496C368.668 358.72 368.401 358.832 368.092 358.832C367.782 358.832 367.516 358.72 367.292 358.496C367.068 358.272 366.956 358 366.956 357.68C366.956 357.371 367.068 357.104 367.292 356.88C367.516 356.656 367.782 356.544 368.092 356.544ZM372.428 368H370.652V360.176H372.428V368ZM376.252 363.76C376.252 363.141 376.076 362.651 375.724 362.288C375.382 361.915 374.929 361.728 374.364 361.728C373.777 361.728 373.308 361.915 372.956 362.288C372.604 362.651 372.428 363.141 372.428 363.76H371.884C371.884 363.013 372.001 362.357 372.236 361.792C372.481 361.216 372.822 360.779 373.26 360.48C373.697 360.171 374.209 360.016 374.796 360.016C375.798 360.016 376.588 360.331 377.164 360.96C377.75 361.589 378.044 362.448 378.044 363.536V368H376.252V363.76ZM383.281 368H381.745L378.465 360.176H380.401L382.513 365.616L384.609 360.176H386.561L383.281 368ZM390.697 368.16C389.961 368.16 389.278 367.979 388.649 367.616C388.03 367.253 387.54 366.763 387.177 366.144C386.825 365.515 386.649 364.816 386.649 364.048C386.649 363.301 386.825 362.624 387.177 362.016C387.529 361.397 388.014 360.912 388.633 360.56C389.252 360.197 389.929 360.016 390.665 360.016C391.358 360.016 391.993 360.181 392.569 360.512C393.145 360.832 393.598 361.28 393.929 361.856C394.26 362.421 394.425 363.051 394.425 363.744C394.414 364 394.393 364.267 394.361 364.544H387.545L387.561 363.2H392.601C392.558 362.891 392.441 362.613 392.249 362.368C392.068 362.112 391.828 361.915 391.529 361.776C391.241 361.627 390.921 361.552 390.569 361.552C390.121 361.552 389.726 361.653 389.385 361.856C389.054 362.048 388.798 362.331 388.617 362.704C388.436 363.067 388.345 363.493 388.345 363.984C388.345 364.517 388.441 364.981 388.633 365.376C388.836 365.76 389.118 366.059 389.481 366.272C389.844 366.485 390.265 366.592 390.745 366.592C391.182 366.592 391.588 366.501 391.961 366.32C392.334 366.128 392.606 365.883 392.777 365.584L394.201 366.48C393.913 367.003 393.454 367.413 392.825 367.712C392.206 368.011 391.497 368.16 390.697 368.16ZM398.417 368.176C397.777 368.176 397.147 368.075 396.529 367.872C395.921 367.659 395.419 367.381 395.025 367.04L395.729 365.696C396.027 365.984 396.427 366.219 396.929 366.4C397.441 366.581 397.921 366.672 398.369 366.672C398.753 366.672 399.062 366.592 399.297 366.432C399.542 366.272 399.665 366.064 399.665 365.808C399.665 365.605 399.595 365.445 399.457 365.328C399.329 365.2 399.158 365.104 398.945 365.04C398.742 364.976 398.486 364.912 398.177 364.848C397.611 364.741 397.137 364.619 396.753 364.48C396.369 364.341 396.033 364.112 395.745 363.792C395.457 363.472 395.313 363.035 395.313 362.48C395.313 362 395.441 361.573 395.697 361.2C395.953 360.827 396.31 360.539 396.769 360.336C397.238 360.123 397.766 360.016 398.353 360.016C398.918 360.016 399.462 360.096 399.985 360.256C400.507 360.416 400.939 360.651 401.281 360.96L400.577 362.336C400.289 362.08 399.91 361.877 399.441 361.728C398.971 361.579 398.55 361.504 398.177 361.504C397.846 361.504 397.579 361.579 397.377 361.728C397.185 361.877 397.089 362.08 397.089 362.336C397.089 362.517 397.147 362.667 397.265 362.784C397.393 362.891 397.558 362.976 397.761 363.04C397.963 363.104 398.219 363.168 398.529 363.232C399.105 363.371 399.59 363.52 399.985 363.68C400.379 363.829 400.726 364.075 401.025 364.416C401.323 364.747 401.473 365.189 401.473 365.744C401.473 366.203 401.339 366.619 401.073 366.992C400.817 367.355 400.454 367.643 399.985 367.856C399.526 368.069 399.003 368.176 398.417 368.176ZM406.219 368.112C405.334 368.112 404.619 367.845 404.075 367.312C403.542 366.768 403.275 366.021 403.275 365.072V358.08H405.051V364.992C405.051 365.44 405.185 365.797 405.451 366.064C405.729 366.32 406.07 366.448 406.475 366.448C406.571 366.448 406.678 366.437 406.795 366.416C406.913 366.395 407.009 366.373 407.083 366.352L407.179 367.92C407.051 367.973 406.902 368.016 406.731 368.048C406.561 368.091 406.39 368.112 406.219 368.112ZM401.771 360.176H407.099V361.872H401.771V360.176ZM410.178 360.176V368H408.402V360.176H410.178ZM409.298 356.544C409.607 356.544 409.874 356.661 410.098 356.896C410.332 357.12 410.45 357.381 410.45 357.68C410.45 358 410.332 358.272 410.098 358.496C409.874 358.72 409.607 358.832 409.298 358.832C408.988 358.832 408.722 358.72 408.498 358.496C408.274 358.272 408.162 358 408.162 357.68C408.162 357.371 408.274 357.104 408.498 356.88C408.722 356.656 408.988 356.544 409.298 356.544ZM415.586 371.264C414.893 371.264 414.21 371.147 413.538 370.912C412.877 370.677 412.37 370.357 412.018 369.952L412.914 368.736C413.234 369.024 413.623 369.248 414.082 369.408C414.551 369.579 415.053 369.664 415.586 369.664C415.991 369.664 416.375 369.568 416.738 369.376C417.111 369.184 417.41 368.923 417.634 368.592C417.858 368.272 417.97 367.904 417.97 367.488V366.96H419.762V367.488C419.762 368.235 419.575 368.891 419.202 369.456C418.839 370.032 418.338 370.475 417.698 370.784C417.069 371.104 416.365 371.264 415.586 371.264ZM419.762 367.216H417.97V360.16H419.762V367.216ZM418.562 364C418.562 364.811 418.429 365.515 418.162 366.112C417.895 366.709 417.506 367.173 416.994 367.504C416.493 367.824 415.895 367.984 415.202 367.984C414.519 367.984 413.89 367.808 413.314 367.456C412.738 367.093 412.285 366.608 411.954 366C411.623 365.381 411.458 364.715 411.458 364C411.458 363.275 411.623 362.608 411.954 362C412.285 361.392 412.738 360.912 413.314 360.56C413.89 360.197 414.519 360.016 415.202 360.016C415.895 360.016 416.493 360.181 416.994 360.512C417.506 360.832 417.895 361.291 418.162 361.888C418.429 362.485 418.562 363.189 418.562 364ZM415.586 366.336C416.045 366.336 416.455 366.235 416.818 366.032C417.181 365.829 417.463 365.552 417.666 365.2C417.869 364.837 417.97 364.437 417.97 364C417.97 363.552 417.869 363.152 417.666 362.8C417.463 362.437 417.181 362.155 416.818 361.952C416.455 361.749 416.045 361.648 415.586 361.648C415.149 361.648 414.749 361.755 414.386 361.968C414.023 362.171 413.735 362.453 413.522 362.816C413.309 363.168 413.202 363.563 413.202 364C413.202 364.427 413.309 364.821 413.522 365.184C413.735 365.536 414.023 365.819 414.386 366.032C414.749 366.235 415.149 366.336 415.586 366.336ZM429.343 368H427.551V360.176H429.343V368ZM428.143 364.08C428.143 364.912 428.01 365.637 427.743 366.256C427.477 366.864 427.087 367.333 426.575 367.664C426.074 367.995 425.477 368.16 424.783 368.16C424.101 368.16 423.471 367.979 422.895 367.616C422.319 367.253 421.866 366.757 421.535 366.128C421.205 365.499 421.039 364.816 421.039 364.08C421.039 363.344 421.205 362.667 421.535 362.048C421.866 361.419 422.319 360.923 422.895 360.56C423.471 360.197 424.101 360.016 424.783 360.016C425.477 360.016 426.074 360.181 426.575 360.512C427.087 360.843 427.477 361.317 427.743 361.936C428.01 362.544 428.143 363.259 428.143 364.08ZM425.167 366.464C425.626 366.464 426.037 366.363 426.399 366.16C426.762 365.947 427.045 365.659 427.247 365.296C427.45 364.933 427.551 364.528 427.551 364.08C427.551 363.632 427.45 363.232 427.247 362.88C427.045 362.517 426.762 362.235 426.399 362.032C426.037 361.819 425.626 361.712 425.167 361.712C424.73 361.712 424.33 361.819 423.967 362.032C423.605 362.245 423.317 362.533 423.103 362.896C422.89 363.259 422.783 363.653 422.783 364.08C422.783 364.517 422.89 364.917 423.103 365.28C423.317 365.643 423.605 365.931 423.967 366.144C424.33 366.357 424.73 366.464 425.167 366.464ZM438.317 366.016C438.018 366.667 437.543 367.189 436.893 367.584C436.253 367.968 435.527 368.16 434.717 368.16C433.949 368.16 433.25 367.984 432.621 367.632C432.002 367.269 431.511 366.779 431.149 366.16C430.797 365.541 430.621 364.853 430.621 364.096C430.621 363.339 430.797 362.651 431.149 362.032C431.511 361.403 432.002 360.912 432.621 360.56C433.25 360.197 433.943 360.016 434.701 360.016C435.458 360.016 436.135 360.192 436.733 360.544C437.341 360.885 437.789 361.344 438.077 361.92L436.573 362.768C436.413 362.448 436.167 362.197 435.837 362.016C435.506 361.824 435.127 361.728 434.701 361.728C434.263 361.728 433.863 361.835 433.501 362.048C433.149 362.251 432.871 362.533 432.669 362.896C432.477 363.259 432.381 363.659 432.381 364.096C432.381 364.533 432.477 364.933 432.669 365.296C432.871 365.659 433.149 365.941 433.501 366.144C433.863 366.347 434.269 366.448 434.717 366.448C435.165 366.448 435.565 366.347 435.917 366.144C436.279 365.941 436.551 365.659 436.733 365.296L438.317 366.016ZM441.206 360.176V368H439.43V360.176H441.206ZM440.326 356.544C440.635 356.544 440.902 356.661 441.126 356.896C441.361 357.12 441.478 357.381 441.478 357.68C441.478 358 441.361 358.272 441.126 358.496C440.902 358.72 440.635 358.832 440.326 358.832C440.017 358.832 439.75 358.72 439.526 358.496C439.302 358.272 439.19 358 439.19 357.68C439.19 357.371 439.302 357.104 439.526 356.88C439.75 356.656 440.017 356.544 440.326 356.544ZM446.55 360.016C447.308 360.016 447.99 360.197 448.598 360.56C449.217 360.912 449.708 361.397 450.07 362.016C450.433 362.635 450.614 363.328 450.614 364.096C450.614 364.853 450.433 365.541 450.07 366.16C449.718 366.779 449.233 367.269 448.614 367.632C447.996 367.984 447.308 368.16 446.55 368.16C445.793 368.16 445.105 367.984 444.486 367.632C443.868 367.269 443.382 366.779 443.03 366.16C442.678 365.541 442.502 364.853 442.502 364.096C442.502 363.328 442.678 362.635 443.03 362.016C443.382 361.397 443.868 360.912 444.486 360.56C445.105 360.197 445.793 360.016 446.55 360.016ZM446.55 361.712C446.124 361.712 445.729 361.819 445.366 362.032C445.014 362.245 444.737 362.533 444.534 362.896C444.332 363.248 444.23 363.648 444.23 364.096C444.23 364.533 444.332 364.933 444.534 365.296C444.737 365.648 445.014 365.931 445.366 366.144C445.729 366.347 446.124 366.448 446.55 366.448C446.977 366.448 447.366 366.347 447.718 366.144C448.07 365.931 448.348 365.648 448.55 365.296C448.764 364.933 448.87 364.533 448.87 364.096C448.87 363.648 448.764 363.248 448.55 362.896C448.348 362.533 448.07 362.245 447.718 362.032C447.366 361.819 446.977 361.712 446.55 361.712ZM447.254 359.28H445.606L446.934 356.88H449.078L447.254 359.28ZM453.665 368H451.889V360.176H453.665V368ZM457.489 363.76C457.489 363.141 457.313 362.651 456.961 362.288C456.62 361.915 456.167 361.728 455.601 361.728C455.015 361.728 454.545 361.915 454.193 362.288C453.841 362.651 453.665 363.141 453.665 363.76H453.121C453.121 363.013 453.239 362.357 453.473 361.792C453.719 361.216 454.06 360.779 454.497 360.48C454.935 360.171 455.447 360.016 456.033 360.016C457.036 360.016 457.825 360.331 458.401 360.96C458.988 361.589 459.281 362.448 459.281 363.536V368H457.489V363.76Z" fill="#F4F7FA"/>
<path d="M334.845 442.5C335.56 443.738 335.56 445.262 334.845 446.5L292.405 520.009C291.69 521.247 290.37 522.009 288.941 522.009L204.059 522.009C202.63 522.009 201.31 521.247 200.595 520.009L158.155 446.5C157.44 445.262 157.44 443.738 158.155 442.5L200.595 368.991C201.31 367.753 202.63 366.991 204.059 366.991L288.941 366.991C290.37 366.991 291.69 367.753 292.405 368.991L334.845 442.5Z" fill="#2C3242"/>
<path d="M210.994 441.352C211.068 441.352 211.159 441.352 211.266 441.352C211.778 441.352 212.167 441.208 212.434 440.92C212.7 440.621 212.834 440.147 212.834 439.496V431.8H214.706V439.976C214.706 440.627 214.583 441.192 214.338 441.672C214.092 442.141 213.751 442.504 213.314 442.76C212.876 443.005 212.37 443.128 211.794 443.128C211.431 443.128 211.132 443.107 210.898 443.064L210.994 441.352ZM221.999 435.176H223.775V443H221.999V435.176ZM218.175 439.416C218.175 440.035 218.345 440.531 218.687 440.904C219.039 441.267 219.497 441.448 220.063 441.448C220.649 441.448 221.119 441.267 221.471 440.904C221.823 440.531 221.999 440.035 221.999 439.416H222.543C222.543 440.163 222.42 440.824 222.175 441.4C221.94 441.965 221.604 442.403 221.167 442.712C220.729 443.011 220.217 443.16 219.631 443.16C218.628 443.16 217.833 442.845 217.247 442.216C216.671 441.587 216.383 440.728 216.383 439.64V435.176H218.175V439.416ZM227.24 435.176V443H225.464V435.176H227.24ZM226.36 431.544C226.67 431.544 226.936 431.661 227.16 431.896C227.395 432.12 227.512 432.381 227.512 432.68C227.512 433 227.395 433.272 227.16 433.496C226.936 433.72 226.67 433.832 226.36 433.832C226.051 433.832 225.784 433.72 225.56 433.496C225.336 433.272 225.224 433 225.224 432.68C225.224 432.371 225.336 432.104 225.56 431.88C225.784 431.656 226.051 431.544 226.36 431.544ZM236.217 441.016C235.918 441.667 235.443 442.189 234.793 442.584C234.153 442.968 233.427 443.16 232.617 443.16C231.849 443.16 231.15 442.984 230.521 442.632C229.902 442.269 229.411 441.779 229.049 441.16C228.697 440.541 228.521 439.853 228.521 439.096C228.521 438.339 228.697 437.651 229.049 437.032C229.411 436.403 229.902 435.912 230.521 435.56C231.15 435.197 231.843 435.016 232.601 435.016C233.358 435.016 234.035 435.192 234.633 435.544C235.241 435.885 235.689 436.344 235.977 436.92L234.473 437.768C234.313 437.448 234.067 437.197 233.737 437.016C233.406 436.824 233.027 436.728 232.601 436.728C232.163 436.728 231.763 436.835 231.401 437.048C231.049 437.251 230.771 437.533 230.569 437.896C230.377 438.259 230.281 438.659 230.281 439.096C230.281 439.533 230.377 439.933 230.569 440.296C230.771 440.659 231.049 440.941 231.401 441.144C231.763 441.347 232.169 441.448 232.617 441.448C233.065 441.448 233.465 441.347 233.817 441.144C234.179 440.941 234.451 440.659 234.633 440.296L236.217 441.016ZM239.106 435.176V443H237.33V435.176H239.106ZM238.226 431.544C238.535 431.544 238.802 431.661 239.026 431.896C239.261 432.12 239.378 432.381 239.378 432.68C239.378 433 239.261 433.272 239.026 433.496C238.802 433.72 238.535 433.832 238.226 433.832C237.917 433.832 237.65 433.72 237.426 433.496C237.202 433.272 237.09 433 237.09 432.68C237.09 432.371 237.202 432.104 237.426 431.88C237.65 431.656 237.917 431.544 238.226 431.544ZM244.45 435.016C245.208 435.016 245.89 435.197 246.498 435.56C247.117 435.912 247.608 436.397 247.97 437.016C248.333 437.635 248.514 438.328 248.514 439.096C248.514 439.853 248.333 440.541 247.97 441.16C247.618 441.779 247.133 442.269 246.514 442.632C245.896 442.984 245.208 443.16 244.45 443.16C243.693 443.16 243.005 442.984 242.386 442.632C241.768 442.269 241.282 441.779 240.93 441.16C240.578 440.541 240.402 439.853 240.402 439.096C240.402 438.328 240.578 437.635 240.93 437.016C241.282 436.397 241.768 435.912 242.386 435.56C243.005 435.197 243.693 435.016 244.45 435.016ZM244.45 436.712C244.024 436.712 243.629 436.819 243.266 437.032C242.914 437.245 242.637 437.533 242.434 437.896C242.232 438.248 242.13 438.648 242.13 439.096C242.13 439.533 242.232 439.933 242.434 440.296C242.637 440.648 242.914 440.931 243.266 441.144C243.629 441.347 244.024 441.448 244.45 441.448C244.877 441.448 245.266 441.347 245.618 441.144C245.97 440.931 246.248 440.648 246.45 440.296C246.664 439.933 246.77 439.533 246.77 439.096C246.77 438.648 246.664 438.248 246.45 437.896C246.248 437.533 245.97 437.245 245.618 437.032C245.266 436.819 244.877 436.712 244.45 436.712ZM252.498 443.176C251.858 443.176 251.228 443.075 250.61 442.872C250.002 442.659 249.5 442.381 249.106 442.04L249.81 440.696C250.108 440.984 250.508 441.219 251.01 441.4C251.522 441.581 252.002 441.672 252.45 441.672C252.834 441.672 253.143 441.592 253.378 441.432C253.623 441.272 253.746 441.064 253.746 440.808C253.746 440.605 253.676 440.445 253.538 440.328C253.41 440.2 253.239 440.104 253.026 440.04C252.823 439.976 252.567 439.912 252.258 439.848C251.692 439.741 251.218 439.619 250.834 439.48C250.45 439.341 250.114 439.112 249.826 438.792C249.538 438.472 249.394 438.035 249.394 437.48C249.394 437 249.522 436.573 249.778 436.2C250.034 435.827 250.391 435.539 250.85 435.336C251.319 435.123 251.847 435.016 252.434 435.016C252.999 435.016 253.543 435.096 254.066 435.256C254.588 435.416 255.02 435.651 255.362 435.96L254.658 437.336C254.37 437.08 253.991 436.877 253.522 436.728C253.052 436.579 252.631 436.504 252.258 436.504C251.927 436.504 251.66 436.579 251.458 436.728C251.266 436.877 251.17 437.08 251.17 437.336C251.17 437.517 251.228 437.667 251.346 437.784C251.474 437.891 251.639 437.976 251.842 438.04C252.044 438.104 252.3 438.168 252.61 438.232C253.186 438.371 253.671 438.52 254.066 438.68C254.46 438.829 254.807 439.075 255.106 439.416C255.404 439.747 255.554 440.189 255.554 440.744C255.554 441.203 255.42 441.619 255.154 441.992C254.898 442.355 254.535 442.643 254.066 442.856C253.607 443.069 253.084 443.176 252.498 443.176ZM261.324 439.096C261.324 438.264 261.457 437.544 261.724 436.936C261.99 436.317 262.374 435.843 262.876 435.512C263.388 435.181 263.99 435.016 264.684 435.016C265.366 435.016 265.99 435.197 266.556 435.56C267.132 435.923 267.585 436.419 267.916 437.048C268.246 437.677 268.412 438.36 268.412 439.096C268.412 439.832 268.246 440.515 267.916 441.144C267.585 441.763 267.132 442.253 266.556 442.616C265.99 442.979 265.366 443.16 264.684 443.16C263.99 443.16 263.388 442.995 262.876 442.664C262.374 442.333 261.99 441.864 261.724 441.256C261.457 440.637 261.324 439.917 261.324 439.096ZM264.3 436.712C263.841 436.712 263.43 436.819 263.068 437.032C262.705 437.235 262.417 437.517 262.204 437.88C262.001 438.243 261.9 438.648 261.9 439.096C261.9 439.533 262.001 439.933 262.204 440.296C262.417 440.659 262.705 440.947 263.068 441.16C263.43 441.363 263.841 441.464 264.3 441.464C264.737 441.464 265.137 441.357 265.5 441.144C265.862 440.931 266.15 440.643 266.364 440.28C266.577 439.917 266.684 439.523 266.684 439.096C266.684 438.659 266.577 438.259 266.364 437.896C266.15 437.533 265.862 437.245 265.5 437.032C265.137 436.819 264.737 436.712 264.3 436.712ZM260.124 435.176H261.9V445.736H260.124V435.176ZM273.244 435.016C274.001 435.016 274.684 435.197 275.292 435.56C275.911 435.912 276.401 436.397 276.764 437.016C277.127 437.635 277.308 438.328 277.308 439.096C277.308 439.853 277.127 440.541 276.764 441.16C276.412 441.779 275.927 442.269 275.308 442.632C274.689 442.984 274.001 443.16 273.244 443.16C272.487 443.16 271.799 442.984 271.18 442.632C270.561 442.269 270.076 441.779 269.724 441.16C269.372 440.541 269.196 439.853 269.196 439.096C269.196 438.328 269.372 437.635 269.724 437.016C270.076 436.397 270.561 435.912 271.18 435.56C271.799 435.197 272.487 435.016 273.244 435.016ZM273.244 436.712C272.817 436.712 272.423 436.819 272.06 437.032C271.708 437.245 271.431 437.533 271.228 437.896C271.025 438.248 270.924 438.648 270.924 439.096C270.924 439.533 271.025 439.933 271.228 440.296C271.431 440.648 271.708 440.931 272.06 441.144C272.423 441.347 272.817 441.448 273.244 441.448C273.671 441.448 274.06 441.347 274.412 441.144C274.764 440.931 275.041 440.648 275.244 440.296C275.457 439.933 275.564 439.533 275.564 439.096C275.564 438.648 275.457 438.248 275.244 437.896C275.041 437.533 274.764 437.245 274.412 437.032C274.06 436.819 273.671 436.712 273.244 436.712ZM278.599 435.176H280.375V443H278.599V435.176ZM280.375 436.296C280.556 435.923 280.833 435.619 281.207 435.384C281.591 435.139 281.98 435.016 282.375 435.016C282.769 435.016 283.1 435.075 283.367 435.192L283.159 436.92C282.871 436.792 282.551 436.728 282.199 436.728C281.9 436.728 281.607 436.813 281.319 436.984C281.041 437.144 280.812 437.384 280.631 437.704C280.46 438.013 280.375 438.387 280.375 438.824V436.296ZM223.744 464.472C223.829 464.493 223.915 464.504 224 464.504C224.309 464.504 224.544 464.397 224.704 464.184C224.864 463.981 224.944 463.667 224.944 463.24V455.176H226.72V463.416C226.72 464.28 226.491 464.947 226.032 465.416C225.584 465.885 224.949 466.12 224.128 466.12C223.947 466.12 223.771 466.109 223.6 466.088L223.744 464.472ZM225.824 451.544C226.133 451.544 226.4 451.661 226.624 451.896C226.859 452.12 226.976 452.381 226.976 452.68C226.976 453 226.859 453.272 226.624 453.496C226.4 453.72 226.133 453.832 225.824 453.832C225.515 453.832 225.248 453.72 225.024 453.496C224.8 453.272 224.688 453 224.688 452.68C224.688 452.371 224.8 452.104 225.024 451.88C225.248 451.656 225.515 451.544 225.824 451.544ZM234 455.176H235.776V463H234V455.176ZM230.176 459.416C230.176 460.035 230.347 460.531 230.688 460.904C231.04 461.267 231.499 461.448 232.064 461.448C232.651 461.448 233.12 461.267 233.472 460.904C233.824 460.531 234 460.035 234 459.416H234.544C234.544 460.163 234.422 460.824 234.176 461.4C233.942 461.965 233.606 462.403 233.168 462.712C232.731 463.011 232.219 463.16 231.632 463.16C230.63 463.16 229.835 462.845 229.248 462.216C228.672 461.587 228.384 460.728 228.384 459.64V455.176H230.176V459.416ZM237.466 455.176H239.242V463H237.466V455.176ZM239.242 456.296C239.423 455.923 239.701 455.619 240.074 455.384C240.458 455.139 240.847 455.016 241.242 455.016C241.637 455.016 241.967 455.075 242.234 455.192L242.026 456.92C241.738 456.792 241.418 456.728 241.066 456.728C240.767 456.728 240.474 456.813 240.186 456.984C239.909 457.144 239.679 457.384 239.498 457.704C239.327 458.013 239.242 458.387 239.242 458.824V456.296ZM250.592 463H248.8V455.176H250.592V463ZM249.392 459.08C249.392 459.912 249.258 460.637 248.992 461.256C248.725 461.864 248.336 462.333 247.824 462.664C247.322 462.995 246.725 463.16 246.032 463.16C245.349 463.16 244.72 462.979 244.144 462.616C243.568 462.253 243.114 461.757 242.784 461.128C242.453 460.499 242.288 459.816 242.288 459.08C242.288 458.344 242.453 457.667 242.784 457.048C243.114 456.419 243.568 455.923 244.144 455.56C244.72 455.197 245.349 455.016 246.032 455.016C246.725 455.016 247.322 455.181 247.824 455.512C248.336 455.843 248.725 456.317 248.992 456.936C249.258 457.544 249.392 458.259 249.392 459.08ZM246.416 461.464C246.874 461.464 247.285 461.363 247.648 461.16C248.01 460.947 248.293 460.659 248.496 460.296C248.698 459.933 248.8 459.528 248.8 459.08C248.8 458.632 248.698 458.232 248.496 457.88C248.293 457.517 248.01 457.235 247.648 457.032C247.285 456.819 246.874 456.712 246.416 456.712C245.978 456.712 245.578 456.819 245.216 457.032C244.853 457.245 244.565 457.533 244.352 457.896C244.138 458.259 244.032 458.653 244.032 459.08C244.032 459.517 244.138 459.917 244.352 460.28C244.565 460.643 244.853 460.931 245.216 461.144C245.578 461.357 245.978 461.464 246.416 461.464ZM258.973 459.08C258.973 459.912 258.84 460.637 258.573 461.256C258.306 461.864 257.917 462.333 257.405 462.664C256.904 462.995 256.306 463.16 255.613 463.16C254.93 463.16 254.301 462.979 253.725 462.616C253.149 462.253 252.696 461.757 252.365 461.128C252.034 460.499 251.869 459.816 251.869 459.08C251.869 458.344 252.034 457.667 252.365 457.048C252.696 456.419 253.149 455.923 253.725 455.56C254.301 455.197 254.93 455.016 255.613 455.016C256.306 455.016 256.904 455.181 257.405 455.512C257.917 455.843 258.306 456.317 258.573 456.936C258.84 457.544 258.973 458.259 258.973 459.08ZM255.997 461.464C256.456 461.464 256.866 461.363 257.229 461.16C257.592 460.947 257.874 460.659 258.077 460.296C258.28 459.933 258.381 459.528 258.381 459.08C258.381 458.632 258.28 458.232 258.077 457.88C257.874 457.517 257.592 457.235 257.229 457.032C256.866 456.819 256.456 456.712 255.997 456.712C255.56 456.712 255.16 456.819 254.797 457.032C254.434 457.245 254.146 457.533 253.933 457.896C253.72 458.259 253.613 458.653 253.613 459.08C253.613 459.517 253.72 459.917 253.933 460.28C254.146 460.643 254.434 460.931 254.797 461.144C255.16 461.357 255.56 461.464 255.997 461.464ZM260.173 463H258.381V451.8H260.173V463ZM265.389 455.016C266.147 455.016 266.829 455.197 267.437 455.56C268.056 455.912 268.547 456.397 268.909 457.016C269.272 457.635 269.453 458.328 269.453 459.096C269.453 459.853 269.272 460.541 268.909 461.16C268.557 461.779 268.072 462.269 267.453 462.632C266.835 462.984 266.147 463.16 265.389 463.16C264.632 463.16 263.944 462.984 263.325 462.632C262.707 462.269 262.221 461.779 261.869 461.16C261.517 460.541 261.341 459.853 261.341 459.096C261.341 458.328 261.517 457.635 261.869 457.016C262.221 456.397 262.707 455.912 263.325 455.56C263.944 455.197 264.632 455.016 265.389 455.016ZM265.389 456.712C264.963 456.712 264.568 456.819 264.205 457.032C263.853 457.245 263.576 457.533 263.373 457.896C263.171 458.248 263.069 458.648 263.069 459.096C263.069 459.533 263.171 459.933 263.373 460.296C263.576 460.648 263.853 460.931 264.205 461.144C264.568 461.347 264.963 461.448 265.389 461.448C265.816 461.448 266.205 461.347 266.557 461.144C266.909 460.931 267.187 460.648 267.389 460.296C267.603 459.933 267.709 459.533 267.709 459.096C267.709 458.648 267.603 458.248 267.389 457.896C267.187 457.533 266.909 457.245 266.557 457.032C266.205 456.819 265.816 456.712 265.389 456.712Z" fill="#F4F7FA"/>
</svg>
