<svg width="492" height="523" viewBox="0 0 492 523" fill="none" xmlns="http://www.w3.org/2000/svg">
<path d="M333.857 87.5084C334.565 88.7417 334.565 90.2583 333.857 91.4916L291.653 165.001C290.94 166.243 289.617 167.009 288.184 167.009H203.816C202.383 167.009 201.06 166.243 200.347 165.001L158.143 91.4916C157.435 90.2583 157.435 88.7417 158.143 87.5084L200.347 13.9991C201.06 12.7568 202.383 11.9907 203.816 11.9907H288.184C289.617 11.9907 290.94 12.7568 291.653 13.9991L333.857 87.5084Z" fill="#F4F7FA" fill-opacity="0.05"/>
<path d="M490.845 177.5C491.56 178.738 491.56 180.262 490.845 181.5L448.405 255.009C447.69 256.247 446.37 257.009 444.941 257.009H360.059C358.63 257.009 357.31 256.247 356.595 255.009L314.155 181.5C313.44 180.262 313.44 178.738 314.155 177.5L356.595 103.991C357.31 102.753 358.63 101.991 360.059 101.991H444.941C446.37 101.991 447.69 102.753 448.405 103.991L490.845 177.5Z" fill="#F4F7FA" fill-opacity="0.05"/>
<path d="M219.235 73.64C219.949 73.64 220.664 73.7947 221.379 74.104C222.104 74.4027 222.659 74.7813 223.043 75.24L221.955 76.696C221.581 76.312 221.139 76.008 220.627 75.784C220.115 75.56 219.603 75.448 219.091 75.448C218.749 75.448 218.445 75.5013 218.179 75.608C217.923 75.7147 217.72 75.8693 217.571 76.072C217.421 76.264 217.347 76.4773 217.347 76.712C217.347 77.0533 217.448 77.3307 217.651 77.544C217.864 77.7573 218.12 77.9227 218.419 78.04C218.728 78.1573 219.144 78.2853 219.667 78.424C220.424 78.6267 221.043 78.8347 221.523 79.048C222.013 79.2507 222.435 79.576 222.786 80.024C223.139 80.4613 223.315 81.0427 223.315 81.768C223.315 82.3653 223.149 82.9253 222.819 83.448C222.499 83.9707 222.035 84.3867 221.427 84.696C220.829 85.0053 220.125 85.16 219.315 85.16C218.76 85.16 218.2 85.08 217.635 84.92C217.08 84.7493 216.568 84.52 216.099 84.232C215.629 83.944 215.224 83.6133 214.883 83.24L216.083 81.864C216.563 82.3333 217.059 82.7013 217.571 82.968C218.093 83.224 218.675 83.352 219.315 83.352C219.72 83.352 220.077 83.288 220.387 83.16C220.707 83.032 220.952 82.8507 221.123 82.616C221.304 82.3707 221.395 82.0933 221.395 81.784C221.395 81.464 221.293 81.208 221.091 81.016C220.888 80.8133 220.632 80.6587 220.323 80.552C220.024 80.4347 219.613 80.3067 219.091 80.168C218.344 79.976 217.725 79.7787 217.235 79.576C216.755 79.3627 216.339 79.0427 215.987 78.616C215.635 78.1787 215.459 77.592 215.459 76.856C215.459 76.248 215.619 75.704 215.939 75.224C216.269 74.7333 216.717 74.3493 217.283 74.072C217.859 73.784 218.509 73.64 219.235 73.64ZM232.723 85H230.931V77.176H232.723V85ZM231.523 81.08C231.523 81.912 231.39 82.6373 231.123 83.256C230.856 83.864 230.467 84.3333 229.955 84.664C229.454 84.9947 228.856 85.16 228.163 85.16C227.48 85.16 226.851 84.9787 226.275 84.616C225.699 84.2533 225.246 83.7573 224.915 83.128C224.584 82.4987 224.419 81.816 224.419 81.08C224.419 80.344 224.584 79.6667 224.915 79.048C225.246 78.4187 225.699 77.9227 226.275 77.56C226.851 77.1973 227.48 77.016 228.163 77.016C228.856 77.016 229.454 77.1813 229.955 77.512C230.467 77.8427 230.856 78.3173 231.123 78.936C231.39 79.544 231.523 80.2587 231.523 81.08ZM228.547 83.464C229.006 83.464 229.416 83.3627 229.779 83.16C230.142 82.9467 230.424 82.6587 230.627 82.296C230.83 81.9333 230.931 81.528 230.931 81.08C230.931 80.632 230.83 80.232 230.627 79.88C230.424 79.5173 230.142 79.2347 229.779 79.032C229.416 78.8187 229.006 78.712 228.547 78.712C228.11 78.712 227.71 78.8187 227.347 79.032C226.984 79.2453 226.696 79.5333 226.483 79.896C226.27 80.2587 226.163 80.6533 226.163 81.08C226.163 81.5173 226.27 81.9173 226.483 82.28C226.696 82.6427 226.984 82.9307 227.347 83.144C227.71 83.3573 228.11 83.464 228.547 83.464ZM236.376 85H234.6V73.8H236.376V85ZM246.036 85H244.244V77.176H246.036V85ZM244.836 81.08C244.836 81.912 244.702 82.6373 244.436 83.256C244.169 83.864 243.78 84.3333 243.268 84.664C242.766 84.9947 242.169 85.16 241.476 85.16C240.793 85.16 240.164 84.9787 239.588 84.616C239.012 84.2533 238.558 83.7573 238.228 83.128C237.897 82.4987 237.732 81.816 237.732 81.08C237.732 80.344 237.897 79.6667 238.228 79.048C238.558 78.4187 239.012 77.9227 239.588 77.56C240.164 77.1973 240.793 77.016 241.476 77.016C242.169 77.016 242.766 77.1813 243.268 77.512C243.78 77.8427 244.169 78.3173 244.436 78.936C244.702 79.544 244.836 80.2587 244.836 81.08ZM241.86 83.464C242.318 83.464 242.729 83.3627 243.092 83.16C243.454 82.9467 243.737 82.6587 243.94 82.296C244.142 81.9333 244.244 81.528 244.244 81.08C244.244 80.632 244.142 80.232 243.94 79.88C243.737 79.5173 243.454 79.2347 243.092 79.032C242.729 78.8187 242.318 78.712 241.86 78.712C241.422 78.712 241.022 78.8187 240.66 79.032C240.297 79.2453 240.009 79.5333 239.796 79.896C239.582 80.2587 239.476 80.6533 239.476 81.08C239.476 81.5173 239.582 81.9173 239.796 82.28C240.009 82.6427 240.297 82.9307 240.66 83.144C241.022 83.3573 241.422 83.464 241.86 83.464ZM250.809 85.176C250.169 85.176 249.539 85.0747 248.921 84.872C248.313 84.6587 247.811 84.3813 247.417 84.04L248.121 82.696C248.419 82.984 248.819 83.2187 249.321 83.4C249.833 83.5813 250.313 83.672 250.761 83.672C251.145 83.672 251.454 83.592 251.689 83.432C251.934 83.272 252.057 83.064 252.057 82.808C252.057 82.6053 251.987 82.4453 251.849 82.328C251.721 82.2 251.55 82.104 251.337 82.04C251.134 81.976 250.878 81.912 250.569 81.848C250.003 81.7413 249.529 81.6187 249.145 81.48C248.761 81.3413 248.425 81.112 248.137 80.792C247.849 80.472 247.705 80.0347 247.705 79.48C247.705 79 247.833 78.5733 248.089 78.2C248.345 77.8267 248.702 77.5387 249.161 77.336C249.63 77.1227 250.158 77.016 250.745 77.016C251.31 77.016 251.854 77.096 252.377 77.256C252.899 77.416 253.331 77.6507 253.673 77.96L252.969 79.336C252.681 79.08 252.302 78.8773 251.833 78.728C251.363 78.5787 250.942 78.504 250.569 78.504C250.238 78.504 249.971 78.5787 249.769 78.728C249.577 78.8773 249.481 79.08 249.481 79.336C249.481 79.5173 249.539 79.6667 249.657 79.784C249.785 79.8907 249.95 79.976 250.153 80.04C250.355 80.104 250.611 80.168 250.921 80.232C251.497 80.3707 251.982 80.52 252.377 80.68C252.771 80.8293 253.118 81.0747 253.417 81.416C253.715 81.7467 253.865 82.1893 253.865 82.744C253.865 83.2027 253.731 83.6187 253.465 83.992C253.209 84.3547 252.846 84.6427 252.377 84.856C251.918 85.0693 251.395 85.176 250.809 85.176ZM265.539 81.08C265.539 81.912 265.405 82.6373 265.139 83.256C264.872 83.864 264.483 84.3333 263.971 84.664C263.469 84.9947 262.872 85.16 262.179 85.16C261.496 85.16 260.867 84.9787 260.291 84.616C259.715 84.2533 259.261 83.7573 258.931 83.128C258.6 82.4987 258.435 81.816 258.435 81.08C258.435 80.344 258.6 79.6667 258.931 79.048C259.261 78.4187 259.715 77.9227 260.291 77.56C260.867 77.1973 261.496 77.016 262.179 77.016C262.872 77.016 263.469 77.1813 263.971 77.512C264.483 77.8427 264.872 78.3173 265.139 78.936C265.405 79.544 265.539 80.2587 265.539 81.08ZM262.563 83.464C263.021 83.464 263.432 83.3627 263.795 83.16C264.157 82.9467 264.44 82.6587 264.643 82.296C264.845 81.9333 264.947 81.528 264.947 81.08C264.947 80.632 264.845 80.232 264.643 79.88C264.44 79.5173 264.157 79.2347 263.795 79.032C263.432 78.8187 263.021 78.712 262.563 78.712C262.125 78.712 261.725 78.8187 261.363 79.032C261 79.2453 260.712 79.5333 260.499 79.896C260.285 80.2587 260.179 80.6533 260.179 81.08C260.179 81.5173 260.285 81.9173 260.499 82.28C260.712 82.6427 261 82.9307 261.363 83.144C261.725 83.3573 262.125 83.464 262.563 83.464ZM266.739 85H264.947V73.8H266.739V85ZM272.155 85.16C271.419 85.16 270.736 84.9787 270.107 84.616C269.488 84.2533 268.998 83.7627 268.635 83.144C268.283 82.5147 268.107 81.816 268.107 81.048C268.107 80.3013 268.283 79.624 268.635 79.016C268.987 78.3973 269.472 77.912 270.091 77.56C270.71 77.1973 271.387 77.016 272.123 77.016C272.816 77.016 273.451 77.1813 274.027 77.512C274.603 77.832 275.056 78.28 275.387 78.856C275.718 79.4213 275.883 80.0507 275.883 80.744C275.872 81 275.851 81.2667 275.819 81.544H269.003L269.019 80.2H274.059C274.016 79.8907 273.899 79.6133 273.707 79.368C273.526 79.112 273.286 78.9147 272.987 78.776C272.699 78.6267 272.379 78.552 272.027 78.552C271.579 78.552 271.184 78.6533 270.843 78.856C270.512 79.048 270.256 79.3307 270.075 79.704C269.894 80.0667 269.803 80.4933 269.803 80.984C269.803 81.5173 269.899 81.9813 270.091 82.376C270.294 82.76 270.576 83.0587 270.939 83.272C271.302 83.4853 271.723 83.592 272.203 83.592C272.64 83.592 273.046 83.5013 273.419 83.32C273.792 83.128 274.064 82.8827 274.235 82.584L275.659 83.48C275.371 84.0027 274.912 84.4133 274.283 84.712C273.664 85.0107 272.955 85.16 272.155 85.16ZM210.416 108.472C210.501 108.493 210.587 108.504 210.672 108.504C210.981 108.504 211.216 108.397 211.376 108.184C211.536 107.981 211.616 107.667 211.616 107.24V99.176H213.392V107.416C213.392 108.28 213.163 108.947 212.704 109.416C212.256 109.885 211.621 110.12 210.8 110.12C210.619 110.12 210.443 110.109 210.272 110.088L210.416 108.472ZM212.496 95.544C212.805 95.544 213.072 95.6613 213.296 95.896C213.531 96.12 213.648 96.3813 213.648 96.68C213.648 97 213.531 97.272 213.296 97.496C213.072 97.72 212.805 97.832 212.496 97.832C212.187 97.832 211.92 97.72 211.696 97.496C211.472 97.272 211.36 97 211.36 96.68C211.36 96.3707 211.472 96.104 211.696 95.88C211.92 95.656 212.187 95.544 212.496 95.544ZM220.872 99.176H222.648V107H220.872V99.176ZM217.048 103.416C217.048 104.035 217.219 104.531 217.56 104.904C217.912 105.267 218.371 105.448 218.936 105.448C219.523 105.448 219.992 105.267 220.344 104.904C220.696 104.531 220.872 104.035 220.872 103.416H221.416C221.416 104.163 221.293 104.824 221.048 105.4C220.813 105.965 220.477 106.403 220.04 106.712C219.603 107.011 219.091 107.16 218.504 107.16C217.501 107.16 216.707 106.845 216.12 106.216C215.544 105.587 215.256 104.728 215.256 103.64V99.176H217.048V103.416ZM226.314 99.176V107H224.538V99.176H226.314ZM225.434 95.544C225.743 95.544 226.01 95.6613 226.234 95.896C226.468 96.12 226.586 96.3813 226.586 96.68C226.586 97 226.468 97.272 226.234 97.496C226.01 97.72 225.743 97.832 225.434 97.832C225.124 97.832 224.858 97.72 224.634 97.496C224.41 97.272 224.298 97 224.298 96.68C224.298 96.3707 224.41 96.104 224.634 95.88C224.858 95.656 225.124 95.544 225.434 95.544ZM235.49 105.016C235.191 105.667 234.717 106.189 234.066 106.584C233.426 106.968 232.701 107.16 231.89 107.16C231.122 107.16 230.423 106.984 229.794 106.632C229.175 106.269 228.685 105.779 228.322 105.16C227.97 104.541 227.794 103.853 227.794 103.096C227.794 102.339 227.97 101.651 228.322 101.032C228.685 100.403 229.175 99.912 229.794 99.56C230.423 99.1973 231.117 99.016 231.874 99.016C232.631 99.016 233.309 99.192 233.906 99.544C234.514 99.8853 234.962 100.344 235.25 100.92L233.746 101.768C233.586 101.448 233.341 101.197 233.01 101.016C232.679 100.824 232.301 100.728 231.874 100.728C231.437 100.728 231.037 100.835 230.674 101.048C230.322 101.251 230.045 101.533 229.842 101.896C229.65 102.259 229.554 102.659 229.554 103.096C229.554 103.533 229.65 103.933 229.842 104.296C230.045 104.659 230.322 104.941 230.674 105.144C231.037 105.347 231.442 105.448 231.89 105.448C232.338 105.448 232.738 105.347 233.09 105.144C233.453 104.941 233.725 104.659 233.906 104.296L235.49 105.016ZM238.579 99.176V107H236.803V99.176H238.579ZM237.699 95.544C238.009 95.544 238.275 95.6613 238.499 95.896C238.734 96.12 238.851 96.3813 238.851 96.68C238.851 97 238.734 97.272 238.499 97.496C238.275 97.72 238.009 97.832 237.699 97.832C237.39 97.832 237.123 97.72 236.899 97.496C236.675 97.272 236.563 97 236.563 96.68C236.563 96.3707 236.675 96.104 236.899 95.88C237.123 95.656 237.39 95.544 237.699 95.544ZM244.124 99.016C244.881 99.016 245.564 99.1973 246.172 99.56C246.79 99.912 247.281 100.397 247.644 101.016C248.006 101.635 248.188 102.328 248.188 103.096C248.188 103.853 248.006 104.541 247.644 105.16C247.292 105.779 246.806 106.269 246.188 106.632C245.569 106.984 244.881 107.16 244.124 107.16C243.366 107.16 242.678 106.984 242.06 106.632C241.441 106.269 240.956 105.779 240.604 105.16C240.252 104.541 240.076 103.853 240.076 103.096C240.076 102.328 240.252 101.635 240.604 101.016C240.956 100.397 241.441 99.912 242.06 99.56C242.678 99.1973 243.366 99.016 244.124 99.016ZM244.124 100.712C243.697 100.712 243.302 100.819 242.94 101.032C242.588 101.245 242.31 101.533 242.108 101.896C241.905 102.248 241.804 102.648 241.804 103.096C241.804 103.533 241.905 103.933 242.108 104.296C242.31 104.648 242.588 104.931 242.94 105.144C243.302 105.347 243.697 105.448 244.124 105.448C244.55 105.448 244.94 105.347 245.292 105.144C245.644 104.931 245.921 104.648 246.124 104.296C246.337 103.933 246.444 103.533 246.444 103.096C246.444 102.648 246.337 102.248 246.124 101.896C245.921 101.533 245.644 101.245 245.292 101.032C244.94 100.819 244.55 100.712 244.124 100.712ZM256.858 99.016C257.615 99.016 258.298 99.1973 258.906 99.56C259.525 99.912 260.015 100.397 260.378 101.016C260.741 101.635 260.922 102.328 260.922 103.096C260.922 103.853 260.741 104.541 260.378 105.16C260.026 105.779 259.541 106.269 258.922 106.632C258.303 106.984 257.615 107.16 256.858 107.16C256.101 107.16 255.413 106.984 254.794 106.632C254.175 106.269 253.69 105.779 253.338 105.16C252.986 104.541 252.81 103.853 252.81 103.096C252.81 102.328 252.986 101.635 253.338 101.016C253.69 100.397 254.175 99.912 254.794 99.56C255.413 99.1973 256.101 99.016 256.858 99.016ZM256.858 100.712C256.431 100.712 256.037 100.819 255.674 101.032C255.322 101.245 255.045 101.533 254.842 101.896C254.639 102.248 254.538 102.648 254.538 103.096C254.538 103.533 254.639 103.933 254.842 104.296C255.045 104.648 255.322 104.931 255.674 105.144C256.037 105.347 256.431 105.448 256.858 105.448C257.285 105.448 257.674 105.347 258.026 105.144C258.378 104.931 258.655 104.648 258.858 104.296C259.071 103.933 259.178 103.533 259.178 103.096C259.178 102.648 259.071 102.248 258.858 101.896C258.655 101.533 258.378 101.245 258.026 101.032C257.674 100.819 257.285 100.712 256.858 100.712ZM262.413 99.176H264.189V107H262.413V99.176ZM264.189 100.296C264.37 99.9227 264.647 99.6187 265.021 99.384C265.405 99.1387 265.794 99.016 266.189 99.016C266.583 99.016 266.914 99.0747 267.181 99.192L266.973 100.92C266.685 100.792 266.365 100.728 266.013 100.728C265.714 100.728 265.421 100.813 265.133 100.984C264.855 101.144 264.626 101.384 264.445 101.704C264.274 102.013 264.189 102.387 264.189 102.824V100.296ZM275.739 107H273.947V99.176H275.739V107ZM274.539 103.08C274.539 103.912 274.405 104.637 274.139 105.256C273.872 105.864 273.483 106.333 272.971 106.664C272.469 106.995 271.872 107.16 271.179 107.16C270.496 107.16 269.867 106.979 269.291 106.616C268.715 106.253 268.261 105.757 267.931 105.128C267.6 104.499 267.435 103.816 267.435 103.08C267.435 102.344 267.6 101.667 267.931 101.048C268.261 100.419 268.715 99.9227 269.291 99.56C269.867 99.1973 270.496 99.016 271.179 99.016C271.872 99.016 272.469 99.1813 272.971 99.512C273.483 99.8427 273.872 100.317 274.139 100.936C274.405 101.544 274.539 102.259 274.539 103.08ZM271.563 105.464C272.021 105.464 272.432 105.363 272.795 105.16C273.157 104.947 273.44 104.659 273.643 104.296C273.845 103.933 273.947 103.528 273.947 103.08C273.947 102.632 273.845 102.232 273.643 101.88C273.44 101.517 273.157 101.235 272.795 101.032C272.432 100.819 272.021 100.712 271.563 100.712C271.125 100.712 270.725 100.819 270.363 101.032C270 101.245 269.712 101.533 269.499 101.896C269.285 102.259 269.179 102.653 269.179 103.08C269.179 103.517 269.285 103.917 269.499 104.28C269.712 104.643 270 104.931 270.363 105.144C270.725 105.357 271.125 105.464 271.563 105.464ZM279.392 107H277.616V95.8H279.392V107Z" fill="#F4F7FA"/>
<path d="M177.845 177.5C178.56 178.738 178.56 180.262 177.845 181.5L135.405 255.009C134.69 256.247 133.37 257.009 131.941 257.009H47.0594C45.6303 257.009 44.3098 256.247 43.5953 255.009L1.15467 181.5C0.440143 180.262 0.440142 178.738 1.15467 177.5L43.5953 103.991C44.3098 102.753 45.6304 101.991 47.0594 101.991H131.941C133.37 101.991 134.69 102.753 135.405 103.991L177.845 177.5Z" fill="#F4F7FA" fill-opacity="0.05"/>
<path d="M42.1278 186.136C41.9465 186.723 41.6158 187.245 41.1358 187.704C40.6665 188.163 40.0958 188.52 39.4238 188.776C38.7518 189.032 38.0371 189.16 37.2798 189.16C36.2238 189.16 35.2638 188.904 34.3998 188.392C33.5465 187.88 32.8745 187.187 32.3838 186.312C31.8931 185.437 31.6478 184.461 31.6478 183.384C31.6478 182.317 31.8931 181.347 32.3838 180.472C32.8745 179.597 33.5465 178.909 34.3998 178.408C35.2638 177.896 36.2238 177.64 37.2798 177.64C38.0051 177.64 38.6931 177.757 39.3438 177.992C39.9945 178.227 40.5491 178.557 41.0078 178.984C41.4771 179.4 41.8131 179.88 42.0158 180.424L40.3358 181.24C40.1011 180.696 39.7065 180.264 39.1518 179.944C38.6078 179.624 37.9838 179.464 37.2798 179.464C36.5651 179.464 35.9251 179.635 35.3598 179.976C34.7945 180.317 34.3571 180.787 34.0478 181.384C33.7385 181.971 33.5838 182.637 33.5838 183.384C33.5838 184.131 33.7385 184.808 34.0478 185.416C34.3571 186.013 34.7945 186.483 35.3598 186.824C35.9251 187.165 36.5651 187.336 37.2798 187.336C38.0265 187.336 38.6825 187.16 39.2478 186.808C39.8238 186.445 40.2185 185.965 40.4318 185.368L42.1278 186.136ZM51.3871 189H49.5951V181.176H51.3871V189ZM50.1871 185.08C50.1871 185.912 50.0537 186.637 49.7871 187.256C49.5204 187.864 49.1311 188.333 48.6191 188.664C48.1177 188.995 47.5204 189.16 46.8271 189.16C46.1444 189.16 45.5151 188.979 44.9391 188.616C44.3631 188.253 43.9097 187.757 43.5791 187.128C43.2484 186.499 43.0831 185.816 43.0831 185.08C43.0831 184.344 43.2484 183.667 43.5791 183.048C43.9097 182.419 44.3631 181.923 44.9391 181.56C45.5151 181.197 46.1444 181.016 46.8271 181.016C47.5204 181.016 48.1177 181.181 48.6191 181.512C49.1311 181.843 49.5204 182.317 49.7871 182.936C50.0537 183.544 50.1871 184.259 50.1871 185.08ZM47.2111 187.464C47.6697 187.464 48.0804 187.363 48.4431 187.16C48.8057 186.947 49.0884 186.659 49.2911 186.296C49.4937 185.933 49.5951 185.528 49.5951 185.08C49.5951 184.632 49.4937 184.232 49.2911 183.88C49.0884 183.517 48.8057 183.235 48.4431 183.032C48.0804 182.819 47.6697 182.712 47.2111 182.712C46.7737 182.712 46.3737 182.819 46.0111 183.032C45.6484 183.245 45.3604 183.533 45.1471 183.896C44.9337 184.259 44.8271 184.653 44.8271 185.08C44.8271 185.517 44.9337 185.917 45.1471 186.28C45.3604 186.643 45.6484 186.931 46.0111 187.144C46.3737 187.357 46.7737 187.464 47.2111 187.464ZM48.6031 180.28H46.9551L48.2831 177.88H50.4271L48.6031 180.28ZM60.3039 189H58.5119V184.616C58.5119 184.029 58.3573 183.571 58.0479 183.24C57.7493 182.899 57.3333 182.728 56.7999 182.728C56.4906 182.728 56.2026 182.797 55.9359 182.936C55.6799 183.064 55.4666 183.272 55.2959 183.56C55.1359 183.837 55.0559 184.189 55.0559 184.616L54.5599 184.376C54.5599 183.544 54.7039 182.883 54.9919 182.392C55.2799 181.891 55.6373 181.539 56.0639 181.336C56.5013 181.123 56.9599 181.016 57.4399 181.016C58.2719 181.016 58.9226 181.256 59.3919 181.736C59.8613 182.216 60.1653 182.973 60.3039 184.008V189ZM65.5519 189H63.7439V184.616C63.7439 184.029 63.5946 183.571 63.2959 183.24C62.9973 182.899 62.5813 182.728 62.0479 182.728C61.7386 182.728 61.4506 182.797 61.1839 182.936C60.9173 183.064 60.7039 183.272 60.5439 183.56C60.3839 183.837 60.3039 184.189 60.3039 184.616L59.6159 183.112C59.6799 182.707 59.8399 182.344 60.0959 182.024C60.3626 181.704 60.6933 181.459 61.0879 181.288C61.4826 181.107 61.9039 181.016 62.3519 181.016C62.9813 181.016 63.5359 181.149 64.0159 181.416C64.4959 181.672 64.8693 182.045 65.1359 182.536C65.4133 183.016 65.5519 183.576 65.5519 184.216V189ZM55.0559 189H53.2799V181.176H55.0559V189ZM75.3246 189H73.5326V181.176H75.3246V189ZM74.1246 185.08C74.1246 185.912 73.9912 186.637 73.7246 187.256C73.4579 187.864 73.0686 188.333 72.5566 188.664C72.0552 188.995 71.4579 189.16 70.7646 189.16C70.0819 189.16 69.4526 188.979 68.8766 188.616C68.3006 188.253 67.8472 187.757 67.5166 187.128C67.1859 186.499 67.0206 185.816 67.0206 185.08C67.0206 184.344 67.1859 183.667 67.5166 183.048C67.8472 182.419 68.3006 181.923 68.8766 181.56C69.4526 181.197 70.0819 181.016 70.7646 181.016C71.4579 181.016 72.0552 181.181 72.5566 181.512C73.0686 181.843 73.4579 182.317 73.7246 182.936C73.9912 183.544 74.1246 184.259 74.1246 185.08ZM71.1486 187.464C71.6072 187.464 72.0179 187.363 72.3806 187.16C72.7432 186.947 73.0259 186.659 73.2286 186.296C73.4312 185.933 73.5326 185.528 73.5326 185.08C73.5326 184.632 73.4312 184.232 73.2286 183.88C73.0259 183.517 72.7432 183.235 72.3806 183.032C72.0179 182.819 71.6072 182.712 71.1486 182.712C70.7112 182.712 70.3112 182.819 69.9486 183.032C69.5859 183.245 69.2979 183.533 69.0846 183.896C68.8712 184.259 68.7646 184.653 68.7646 185.08C68.7646 185.517 68.8712 185.917 69.0846 186.28C69.2979 186.643 69.5859 186.931 69.9486 187.144C70.3112 187.357 70.7112 187.464 71.1486 187.464ZM77.2018 181.176H78.9778V189H77.2018V181.176ZM78.9778 182.296C79.1591 181.923 79.4365 181.619 79.8098 181.384C80.1938 181.139 80.5831 181.016 80.9778 181.016C81.3725 181.016 81.7031 181.075 81.9698 181.192L81.7618 182.92C81.4738 182.792 81.1538 182.728 80.8018 182.728C80.5031 182.728 80.2098 182.813 79.9218 182.984C79.6445 183.144 79.4151 183.384 79.2338 183.704C79.0631 184.013 78.9778 184.387 78.9778 184.824V182.296ZM90.5277 189H88.7357V181.176H90.5277V189ZM89.3277 185.08C89.3277 185.912 89.1944 186.637 88.9277 187.256C88.661 187.864 88.2717 188.333 87.7597 188.664C87.2584 188.995 86.661 189.16 85.9677 189.16C85.285 189.16 84.6557 188.979 84.0797 188.616C83.5037 188.253 83.0504 187.757 82.7197 187.128C82.389 186.499 82.2237 185.816 82.2237 185.08C82.2237 184.344 82.389 183.667 82.7197 183.048C83.0504 182.419 83.5037 181.923 84.0797 181.56C84.6557 181.197 85.285 181.016 85.9677 181.016C86.661 181.016 87.2584 181.181 87.7597 181.512C88.2717 181.843 88.661 182.317 88.9277 182.936C89.1944 183.544 89.3277 184.259 89.3277 185.08ZM86.3517 187.464C86.8104 187.464 87.221 187.363 87.5837 187.16C87.9464 186.947 88.229 186.659 88.4317 186.296C88.6344 185.933 88.7357 185.528 88.7357 185.08C88.7357 184.632 88.6344 184.232 88.4317 183.88C88.229 183.517 87.9464 183.235 87.5837 183.032C87.221 182.819 86.8104 182.712 86.3517 182.712C85.9144 182.712 85.5144 182.819 85.1517 183.032C84.789 183.245 84.501 183.533 84.2877 183.896C84.0744 184.259 83.9677 184.653 83.9677 185.08C83.9677 185.517 84.0744 185.917 84.2877 186.28C84.501 186.643 84.789 186.931 85.1517 187.144C85.5144 187.357 85.9144 187.464 86.3517 187.464ZM95.3009 189.176C94.6609 189.176 94.0316 189.075 93.4129 188.872C92.8049 188.659 92.3036 188.381 91.9089 188.04L92.6129 186.696C92.9116 186.984 93.3116 187.219 93.8129 187.4C94.3249 187.581 94.8049 187.672 95.2529 187.672C95.6369 187.672 95.9463 187.592 96.1809 187.432C96.4263 187.272 96.5489 187.064 96.5489 186.808C96.5489 186.605 96.4796 186.445 96.3409 186.328C96.2129 186.2 96.0423 186.104 95.8289 186.04C95.6263 185.976 95.3703 185.912 95.0609 185.848C94.4956 185.741 94.0209 185.619 93.6369 185.48C93.2529 185.341 92.9169 185.112 92.6289 184.792C92.3409 184.472 92.1969 184.035 92.1969 183.48C92.1969 183 92.3249 182.573 92.5809 182.2C92.8369 181.827 93.1943 181.539 93.6529 181.336C94.1223 181.123 94.6503 181.016 95.2369 181.016C95.8023 181.016 96.3463 181.096 96.8689 181.256C97.3916 181.416 97.8236 181.651 98.1649 181.96L97.4609 183.336C97.1729 183.08 96.7943 182.877 96.3249 182.728C95.8556 182.579 95.4343 182.504 95.0609 182.504C94.7303 182.504 94.4636 182.579 94.2609 182.728C94.0689 182.877 93.9729 183.08 93.9729 183.336C93.9729 183.517 94.0316 183.667 94.1489 183.784C94.2769 183.891 94.4423 183.976 94.6449 184.04C94.8476 184.104 95.1036 184.168 95.4129 184.232C95.9889 184.371 96.4743 184.52 96.8689 184.68C97.2636 184.829 97.6103 185.075 97.9089 185.416C98.2076 185.747 98.3569 186.189 98.3569 186.744C98.3569 187.203 98.2236 187.619 97.9569 187.992C97.7009 188.355 97.3383 188.643 96.8689 188.856C96.4103 189.069 95.8876 189.176 95.3009 189.176ZM108.671 189.16C107.615 189.16 106.655 188.909 105.791 188.408C104.937 187.896 104.26 187.203 103.759 186.328C103.268 185.443 103.023 184.461 103.023 183.384C103.023 182.317 103.268 181.347 103.759 180.472C104.26 179.587 104.937 178.893 105.791 178.392C106.655 177.891 107.615 177.64 108.671 177.64C109.396 177.64 110.084 177.757 110.735 177.992C111.385 178.227 111.94 178.557 112.399 178.984C112.868 179.4 113.199 179.88 113.391 180.424L111.727 181.24C111.481 180.696 111.087 180.264 110.543 179.944C109.999 179.624 109.375 179.464 108.671 179.464C107.977 179.464 107.348 179.635 106.783 179.976C106.217 180.317 105.769 180.787 105.439 181.384C105.119 181.981 104.959 182.648 104.959 183.384C104.959 184.12 105.124 184.792 105.455 185.4C105.785 186.008 106.239 186.483 106.815 186.824C107.401 187.165 108.063 187.336 108.799 187.336C109.46 187.336 110.052 187.187 110.575 186.888C111.097 186.579 111.508 186.157 111.807 185.624C112.116 185.091 112.271 184.488 112.271 183.816C112.271 183.613 112.255 183.421 112.223 183.24C112.201 183.048 112.164 182.877 112.111 182.728H114.031C114.052 182.867 114.068 183.032 114.079 183.224C114.1 183.405 114.111 183.592 114.111 183.784C114.111 184.819 113.871 185.747 113.391 186.568C112.921 187.379 112.271 188.013 111.439 188.472C110.617 188.931 109.695 189.16 108.671 189.16ZM108.703 182.728H113.567L113.455 184.52H108.703V182.728ZM119.366 189.16C118.63 189.16 117.947 188.979 117.318 188.616C116.699 188.253 116.208 187.763 115.846 187.144C115.494 186.515 115.318 185.816 115.318 185.048C115.318 184.301 115.494 183.624 115.846 183.016C116.198 182.397 116.683 181.912 117.302 181.56C117.92 181.197 118.598 181.016 119.334 181.016C120.027 181.016 120.662 181.181 121.238 181.512C121.814 181.832 122.267 182.28 122.598 182.856C122.928 183.421 123.094 184.051 123.094 184.744C123.083 185 123.062 185.267 123.03 185.544H116.214L116.23 184.2H121.27C121.227 183.891 121.11 183.613 120.918 183.368C120.736 183.112 120.496 182.915 120.198 182.776C119.91 182.627 119.59 182.552 119.238 182.552C118.79 182.552 118.395 182.653 118.054 182.856C117.723 183.048 117.467 183.331 117.286 183.704C117.104 184.067 117.014 184.493 117.014 184.984C117.014 185.517 117.11 185.981 117.302 186.376C117.504 186.76 117.787 187.059 118.15 187.272C118.512 187.485 118.934 187.592 119.414 187.592C119.851 187.592 120.256 187.501 120.63 187.32C121.003 187.128 121.275 186.883 121.446 186.584L122.87 187.48C122.582 188.003 122.123 188.413 121.494 188.712C120.875 189.011 120.166 189.16 119.366 189.16ZM127.285 189.176C126.645 189.176 126.016 189.075 125.397 188.872C124.789 188.659 124.288 188.381 123.893 188.04L124.597 186.696C124.896 186.984 125.296 187.219 125.797 187.4C126.309 187.581 126.789 187.672 127.237 187.672C127.621 187.672 127.931 187.592 128.165 187.432C128.411 187.272 128.533 187.064 128.533 186.808C128.533 186.605 128.464 186.445 128.325 186.328C128.197 186.2 128.027 186.104 127.813 186.04C127.611 185.976 127.355 185.912 127.045 185.848C126.48 185.741 126.005 185.619 125.621 185.48C125.237 185.341 124.901 185.112 124.613 184.792C124.325 184.472 124.181 184.035 124.181 183.48C124.181 183 124.309 182.573 124.565 182.2C124.821 181.827 125.179 181.539 125.637 181.336C126.107 181.123 126.635 181.016 127.221 181.016C127.787 181.016 128.331 181.096 128.853 181.256C129.376 181.416 129.808 181.651 130.149 181.96L129.445 183.336C129.157 183.08 128.779 182.877 128.309 182.728C127.84 182.579 127.419 182.504 127.045 182.504C126.715 182.504 126.448 182.579 126.245 182.728C126.053 182.877 125.957 183.08 125.957 183.336C125.957 183.517 126.016 183.667 126.133 183.784C126.261 183.891 126.427 183.976 126.629 184.04C126.832 184.104 127.088 184.168 127.397 184.232C127.973 184.371 128.459 184.52 128.853 184.68C129.248 184.829 129.595 185.075 129.893 185.416C130.192 185.747 130.341 186.189 130.341 186.744C130.341 187.203 130.208 187.619 129.941 187.992C129.685 188.355 129.323 188.643 128.853 188.856C128.395 189.069 127.872 189.176 127.285 189.176ZM135.397 189.16C134.661 189.16 133.978 188.979 133.349 188.616C132.73 188.253 132.24 187.763 131.877 187.144C131.525 186.515 131.349 185.816 131.349 185.048C131.349 184.301 131.525 183.624 131.877 183.016C132.229 182.397 132.714 181.912 133.333 181.56C133.952 181.197 134.629 181.016 135.365 181.016C136.058 181.016 136.693 181.181 137.269 181.512C137.845 181.832 138.298 182.28 138.629 182.856C138.96 183.421 139.125 184.051 139.125 184.744C139.114 185 139.093 185.267 139.061 185.544H132.245L132.261 184.2H137.301C137.258 183.891 137.141 183.613 136.949 183.368C136.768 183.112 136.528 182.915 136.229 182.776C135.941 182.627 135.621 182.552 135.269 182.552C134.821 182.552 134.426 182.653 134.085 182.856C133.754 183.048 133.498 183.331 133.317 183.704C133.136 184.067 133.045 184.493 133.045 184.984C133.045 185.517 133.141 185.981 133.333 186.376C133.536 186.76 133.818 187.059 134.181 187.272C134.544 187.485 134.965 187.592 135.445 187.592C135.882 187.592 136.288 187.501 136.661 187.32C137.034 187.128 137.306 186.883 137.477 186.584L138.901 187.48C138.613 188.003 138.154 188.413 137.525 188.712C136.906 189.011 136.197 189.16 135.397 189.16ZM142.4 189H140.624V177.8H142.4V189ZM146.056 189H144.28V177.8H146.056V189Z" fill="#F4F7FA"/>
<path d="M333.857 266.508C334.565 267.742 334.565 269.258 333.857 270.492L291.653 344.001C290.94 345.243 289.617 346.009 288.184 346.009H203.816C202.383 346.009 201.06 345.243 200.347 344.001L158.143 270.492C157.435 269.258 157.435 267.742 158.143 266.508L200.347 192.999C201.06 191.757 202.383 190.991 203.816 190.991H288.184C289.617 190.991 290.94 191.757 291.653 192.999L333.857 266.508Z" fill="#F4F7FA" fill-opacity="0.05"/>
<path d="M222.929 265.8V267.592H218.193V270.488H222.417V272.28H218.193V277H216.321V265.8H222.929ZM225.876 269.176V277H224.1V269.176H225.876ZM224.996 265.544C225.306 265.544 225.572 265.661 225.796 265.896C226.031 266.12 226.148 266.381 226.148 266.68C226.148 267 226.031 267.272 225.796 267.496C225.572 267.72 225.306 267.832 224.996 267.832C224.687 267.832 224.42 267.72 224.196 267.496C223.972 267.272 223.86 267 223.86 266.68C223.86 266.371 223.972 266.104 224.196 265.88C224.42 265.656 224.687 265.544 224.996 265.544ZM230.653 277.176C230.013 277.176 229.383 277.075 228.765 276.872C228.157 276.659 227.655 276.381 227.261 276.04L227.965 274.696C228.263 274.984 228.663 275.219 229.164 275.4C229.677 275.581 230.157 275.672 230.605 275.672C230.989 275.672 231.298 275.592 231.533 275.432C231.778 275.272 231.901 275.064 231.901 274.808C231.901 274.605 231.831 274.445 231.693 274.328C231.565 274.2 231.394 274.104 231.181 274.04C230.978 273.976 230.722 273.912 230.413 273.848C229.847 273.741 229.373 273.619 228.989 273.48C228.605 273.341 228.269 273.112 227.981 272.792C227.693 272.472 227.549 272.035 227.549 271.48C227.549 271 227.677 270.573 227.933 270.2C228.189 269.827 228.546 269.539 229.005 269.336C229.474 269.123 230.002 269.016 230.589 269.016C231.154 269.016 231.698 269.096 232.221 269.256C232.743 269.416 233.175 269.651 233.517 269.96L232.813 271.336C232.525 271.08 232.146 270.877 231.677 270.728C231.207 270.579 230.786 270.504 230.413 270.504C230.082 270.504 229.815 270.579 229.613 270.728C229.421 270.877 229.325 271.08 229.325 271.336C229.325 271.517 229.383 271.667 229.501 271.784C229.629 271.891 229.794 271.976 229.997 272.04C230.199 272.104 230.455 272.168 230.765 272.232C231.341 272.371 231.826 272.52 232.221 272.68C232.615 272.829 232.962 273.075 233.261 273.416C233.559 273.747 233.709 274.189 233.709 274.744C233.709 275.203 233.575 275.619 233.309 275.992C233.053 276.355 232.69 276.643 232.221 276.856C231.762 277.069 231.239 277.176 230.653 277.176ZM242.396 275.016C242.098 275.667 241.623 276.189 240.972 276.584C240.332 276.968 239.607 277.16 238.796 277.16C238.028 277.16 237.33 276.984 236.7 276.632C236.082 276.269 235.591 275.779 235.228 275.16C234.876 274.541 234.7 273.853 234.7 273.096C234.7 272.339 234.876 271.651 235.228 271.032C235.591 270.403 236.082 269.912 236.7 269.56C237.33 269.197 238.023 269.016 238.78 269.016C239.538 269.016 240.215 269.192 240.812 269.544C241.42 269.885 241.868 270.344 242.156 270.92L240.652 271.768C240.492 271.448 240.247 271.197 239.916 271.016C239.586 270.824 239.207 270.728 238.78 270.728C238.343 270.728 237.943 270.835 237.58 271.048C237.228 271.251 236.951 271.533 236.748 271.896C236.556 272.259 236.46 272.659 236.46 273.096C236.46 273.533 236.556 273.933 236.748 274.296C236.951 274.659 237.228 274.941 237.58 275.144C237.943 275.347 238.348 275.448 238.796 275.448C239.244 275.448 239.644 275.347 239.996 275.144C240.359 274.941 240.631 274.659 240.812 274.296L242.396 275.016ZM251.27 277H249.478V269.176H251.27V277ZM250.07 273.08C250.07 273.912 249.937 274.637 249.67 275.256C249.403 275.864 249.014 276.333 248.502 276.664C248.001 276.995 247.403 277.16 246.71 277.16C246.027 277.16 245.398 276.979 244.822 276.616C244.246 276.253 243.793 275.757 243.462 275.128C243.131 274.499 242.966 273.816 242.966 273.08C242.966 272.344 243.131 271.667 243.462 271.048C243.793 270.419 244.246 269.923 244.822 269.56C245.398 269.197 246.027 269.016 246.71 269.016C247.403 269.016 248.001 269.181 248.502 269.512C249.014 269.843 249.403 270.317 249.67 270.936C249.937 271.544 250.07 272.259 250.07 273.08ZM247.094 275.464C247.553 275.464 247.963 275.363 248.326 275.16C248.689 274.947 248.971 274.659 249.174 274.296C249.377 273.933 249.478 273.528 249.478 273.08C249.478 272.632 249.377 272.232 249.174 271.88C248.971 271.517 248.689 271.235 248.326 271.032C247.963 270.819 247.553 270.712 247.094 270.712C246.657 270.712 246.257 270.819 245.894 271.032C245.531 271.245 245.243 271.533 245.03 271.896C244.817 272.259 244.71 272.653 244.71 273.08C244.71 273.517 244.817 273.917 245.03 274.28C245.243 274.643 245.531 274.931 245.894 275.144C246.257 275.357 246.657 275.464 247.094 275.464ZM254.923 277H253.147V265.8H254.923V277ZM258.579 269.176V277H256.803V269.176H258.579ZM258.403 268.28H256.755L258.083 265.88H260.227L258.403 268.28ZM268.364 277H266.572V269.176H268.364V277ZM267.164 273.08C267.164 273.912 267.03 274.637 266.764 275.256C266.497 275.864 266.108 276.333 265.596 276.664C265.094 276.995 264.497 277.16 263.804 277.16C263.121 277.16 262.492 276.979 261.916 276.616C261.34 276.253 260.886 275.757 260.556 275.128C260.225 274.499 260.06 273.816 260.06 273.08C260.06 272.344 260.225 271.667 260.556 271.048C260.886 270.419 261.34 269.923 261.916 269.56C262.492 269.197 263.121 269.016 263.804 269.016C264.497 269.016 265.094 269.181 265.596 269.512C266.108 269.843 266.497 270.317 266.764 270.936C267.03 271.544 267.164 272.259 267.164 273.08ZM264.188 275.464C264.646 275.464 265.057 275.363 265.42 275.16C265.782 274.947 266.065 274.659 266.268 274.296C266.47 273.933 266.572 273.528 266.572 273.08C266.572 272.632 266.47 272.232 266.268 271.88C266.065 271.517 265.782 271.235 265.42 271.032C265.057 270.819 264.646 270.712 264.188 270.712C263.75 270.712 263.35 270.819 262.988 271.032C262.625 271.245 262.337 271.533 262.124 271.896C261.91 272.259 261.804 272.653 261.804 273.08C261.804 273.517 261.91 273.917 262.124 274.28C262.337 274.643 262.625 274.931 262.988 275.144C263.35 275.357 263.75 275.464 264.188 275.464ZM273.137 277.176C272.497 277.176 271.868 277.075 271.249 276.872C270.641 276.659 270.14 276.381 269.745 276.04L270.449 274.696C270.748 274.984 271.148 275.219 271.649 275.4C272.161 275.581 272.641 275.672 273.089 275.672C273.473 275.672 273.782 275.592 274.017 275.432C274.262 275.272 274.385 275.064 274.385 274.808C274.385 274.605 274.316 274.445 274.177 274.328C274.049 274.2 273.878 274.104 273.665 274.04C273.462 273.976 273.206 273.912 272.897 273.848C272.332 273.741 271.857 273.619 271.473 273.48C271.089 273.341 270.753 273.112 270.465 272.792C270.177 272.472 270.033 272.035 270.033 271.48C270.033 271 270.161 270.573 270.417 270.2C270.673 269.827 271.03 269.539 271.489 269.336C271.958 269.123 272.486 269.016 273.073 269.016C273.638 269.016 274.182 269.096 274.705 269.256C275.228 269.416 275.66 269.651 276.001 269.96L275.297 271.336C275.009 271.08 274.63 270.877 274.161 270.728C273.692 270.579 273.27 270.504 272.897 270.504C272.566 270.504 272.3 270.579 272.097 270.728C271.905 270.877 271.809 271.08 271.809 271.336C271.809 271.517 271.868 271.667 271.985 271.784C272.113 271.891 272.278 271.976 272.481 272.04C272.684 272.104 272.94 272.168 273.249 272.232C273.825 272.371 274.31 272.52 274.705 272.68C275.1 272.829 275.446 273.075 275.745 273.416C276.044 273.747 276.193 274.189 276.193 274.744C276.193 275.203 276.06 275.619 275.793 275.992C275.537 276.355 275.174 276.643 274.705 276.856C274.246 277.069 273.724 277.176 273.137 277.176Z" fill="#F4F7FA"/>
<path d="M375.735 161.64C376.449 161.64 377.164 161.795 377.879 162.104C378.604 162.403 379.159 162.781 379.543 163.24L378.455 164.696C378.081 164.312 377.639 164.008 377.127 163.784C376.615 163.56 376.103 163.448 375.591 163.448C375.249 163.448 374.945 163.501 374.679 163.608C374.423 163.715 374.22 163.869 374.071 164.072C373.921 164.264 373.847 164.477 373.847 164.712C373.847 165.053 373.948 165.331 374.151 165.544C374.364 165.757 374.62 165.923 374.919 166.04C375.228 166.157 375.644 166.285 376.167 166.424C376.924 166.627 377.543 166.835 378.023 167.048C378.513 167.251 378.935 167.576 379.286 168.024C379.639 168.461 379.815 169.043 379.815 169.768C379.815 170.365 379.649 170.925 379.319 171.448C378.999 171.971 378.535 172.387 377.927 172.696C377.329 173.005 376.625 173.16 375.815 173.16C375.26 173.16 374.7 173.08 374.135 172.92C373.58 172.749 373.068 172.52 372.599 172.232C372.129 171.944 371.724 171.613 371.383 171.24L372.583 169.864C373.063 170.333 373.559 170.701 374.071 170.968C374.593 171.224 375.175 171.352 375.815 171.352C376.22 171.352 376.577 171.288 376.887 171.16C377.207 171.032 377.452 170.851 377.623 170.616C377.804 170.371 377.895 170.093 377.895 169.784C377.895 169.464 377.793 169.208 377.591 169.016C377.388 168.813 377.132 168.659 376.823 168.552C376.524 168.435 376.113 168.307 375.591 168.168C374.844 167.976 374.225 167.779 373.735 167.576C373.255 167.363 372.839 167.043 372.487 166.616C372.135 166.179 371.959 165.592 371.959 164.856C371.959 164.248 372.119 163.704 372.439 163.224C372.769 162.733 373.217 162.349 373.783 162.072C374.359 161.784 375.009 161.64 375.735 161.64ZM389.223 173H387.431V165.176H389.223V173ZM388.023 169.08C388.023 169.912 387.89 170.637 387.623 171.256C387.356 171.864 386.967 172.333 386.455 172.664C385.954 172.995 385.356 173.16 384.663 173.16C383.98 173.16 383.351 172.979 382.775 172.616C382.199 172.253 381.746 171.757 381.415 171.128C381.084 170.499 380.919 169.816 380.919 169.08C380.919 168.344 381.084 167.667 381.415 167.048C381.746 166.419 382.199 165.923 382.775 165.56C383.351 165.197 383.98 165.016 384.663 165.016C385.356 165.016 385.954 165.181 386.455 165.512C386.967 165.843 387.356 166.317 387.623 166.936C387.89 167.544 388.023 168.259 388.023 169.08ZM385.047 171.464C385.506 171.464 385.916 171.363 386.279 171.16C386.642 170.947 386.924 170.659 387.127 170.296C387.33 169.933 387.431 169.528 387.431 169.08C387.431 168.632 387.33 168.232 387.127 167.88C386.924 167.517 386.642 167.235 386.279 167.032C385.916 166.819 385.506 166.712 385.047 166.712C384.61 166.712 384.21 166.819 383.847 167.032C383.484 167.245 383.196 167.533 382.983 167.896C382.77 168.259 382.663 168.653 382.663 169.08C382.663 169.517 382.77 169.917 382.983 170.28C383.196 170.643 383.484 170.931 383.847 171.144C384.21 171.357 384.61 171.464 385.047 171.464ZM392.876 173H391.1V161.8H392.876V173ZM402.536 173H400.744V165.176H402.536V173ZM401.336 169.08C401.336 169.912 401.202 170.637 400.936 171.256C400.669 171.864 400.28 172.333 399.768 172.664C399.266 172.995 398.669 173.16 397.976 173.16C397.293 173.16 396.664 172.979 396.088 172.616C395.512 172.253 395.058 171.757 394.728 171.128C394.397 170.499 394.232 169.816 394.232 169.08C394.232 168.344 394.397 167.667 394.728 167.048C395.058 166.419 395.512 165.923 396.088 165.56C396.664 165.197 397.293 165.016 397.976 165.016C398.669 165.016 399.266 165.181 399.768 165.512C400.28 165.843 400.669 166.317 400.936 166.936C401.202 167.544 401.336 168.259 401.336 169.08ZM398.36 171.464C398.818 171.464 399.229 171.363 399.592 171.16C399.954 170.947 400.237 170.659 400.44 170.296C400.642 169.933 400.744 169.528 400.744 169.08C400.744 168.632 400.642 168.232 400.44 167.88C400.237 167.517 399.954 167.235 399.592 167.032C399.229 166.819 398.818 166.712 398.36 166.712C397.922 166.712 397.522 166.819 397.16 167.032C396.797 167.245 396.509 167.533 396.296 167.896C396.082 168.259 395.976 168.653 395.976 169.08C395.976 169.517 396.082 169.917 396.296 170.28C396.509 170.643 396.797 170.931 397.16 171.144C397.522 171.357 397.922 171.464 398.36 171.464ZM407.309 173.176C406.669 173.176 406.039 173.075 405.421 172.872C404.813 172.659 404.311 172.381 403.917 172.04L404.621 170.696C404.919 170.984 405.319 171.219 405.821 171.4C406.333 171.581 406.813 171.672 407.261 171.672C407.645 171.672 407.954 171.592 408.189 171.432C408.434 171.272 408.557 171.064 408.557 170.808C408.557 170.605 408.487 170.445 408.349 170.328C408.221 170.2 408.05 170.104 407.837 170.04C407.634 169.976 407.378 169.912 407.069 169.848C406.503 169.741 406.029 169.619 405.645 169.48C405.261 169.341 404.925 169.112 404.637 168.792C404.349 168.472 404.205 168.035 404.205 167.48C404.205 167 404.333 166.573 404.589 166.2C404.845 165.827 405.202 165.539 405.661 165.336C406.13 165.123 406.658 165.016 407.245 165.016C407.81 165.016 408.354 165.096 408.877 165.256C409.399 165.416 409.831 165.651 410.173 165.96L409.469 167.336C409.181 167.08 408.802 166.877 408.333 166.728C407.863 166.579 407.442 166.504 407.069 166.504C406.738 166.504 406.471 166.579 406.269 166.728C406.077 166.877 405.981 167.08 405.981 167.336C405.981 167.517 406.039 167.667 406.157 167.784C406.285 167.891 406.45 167.976 406.653 168.04C406.855 168.104 407.111 168.168 407.421 168.232C407.997 168.371 408.482 168.52 408.877 168.68C409.271 168.829 409.618 169.075 409.917 169.416C410.215 169.747 410.365 170.189 410.365 170.744C410.365 171.203 410.231 171.619 409.965 171.992C409.709 172.355 409.346 172.643 408.877 172.856C408.418 173.069 407.895 173.176 407.309 173.176ZM422.039 169.08C422.039 169.912 421.905 170.637 421.639 171.256C421.372 171.864 420.983 172.333 420.471 172.664C419.969 172.995 419.372 173.16 418.679 173.16C417.996 173.16 417.367 172.979 416.791 172.616C416.215 172.253 415.761 171.757 415.431 171.128C415.1 170.499 414.935 169.816 414.935 169.08C414.935 168.344 415.1 167.667 415.431 167.048C415.761 166.419 416.215 165.923 416.791 165.56C417.367 165.197 417.996 165.016 418.679 165.016C419.372 165.016 419.969 165.181 420.471 165.512C420.983 165.843 421.372 166.317 421.639 166.936C421.905 167.544 422.039 168.259 422.039 169.08ZM419.063 171.464C419.521 171.464 419.932 171.363 420.295 171.16C420.657 170.947 420.94 170.659 421.143 170.296C421.345 169.933 421.447 169.528 421.447 169.08C421.447 168.632 421.345 168.232 421.143 167.88C420.94 167.517 420.657 167.235 420.295 167.032C419.932 166.819 419.521 166.712 419.063 166.712C418.625 166.712 418.225 166.819 417.863 167.032C417.5 167.245 417.212 167.533 416.999 167.896C416.785 168.259 416.679 168.653 416.679 169.08C416.679 169.517 416.785 169.917 416.999 170.28C417.212 170.643 417.5 170.931 417.863 171.144C418.225 171.357 418.625 171.464 419.063 171.464ZM423.239 173H421.447V161.8H423.239V173ZM428.655 173.16C427.919 173.16 427.236 172.979 426.607 172.616C425.988 172.253 425.498 171.763 425.135 171.144C424.783 170.515 424.607 169.816 424.607 169.048C424.607 168.301 424.783 167.624 425.135 167.016C425.487 166.397 425.972 165.912 426.591 165.56C427.21 165.197 427.887 165.016 428.623 165.016C429.316 165.016 429.951 165.181 430.527 165.512C431.103 165.832 431.556 166.28 431.887 166.856C432.218 167.421 432.383 168.051 432.383 168.744C432.372 169 432.351 169.267 432.319 169.544H425.503L425.519 168.2H430.559C430.516 167.891 430.399 167.613 430.207 167.368C430.026 167.112 429.786 166.915 429.487 166.776C429.199 166.627 428.879 166.552 428.527 166.552C428.079 166.552 427.684 166.653 427.343 166.856C427.012 167.048 426.756 167.331 426.575 167.704C426.394 168.067 426.303 168.493 426.303 168.984C426.303 169.517 426.399 169.981 426.591 170.376C426.794 170.76 427.076 171.059 427.439 171.272C427.802 171.485 428.223 171.592 428.703 171.592C429.14 171.592 429.546 171.501 429.919 171.32C430.292 171.128 430.564 170.883 430.735 170.584L432.159 171.48C431.871 172.003 431.412 172.413 430.783 172.712C430.164 173.011 429.455 173.16 428.655 173.16ZM374.504 195H372.712V187.176H374.504V195ZM373.304 191.08C373.304 191.912 373.171 192.637 372.904 193.256C372.638 193.864 372.248 194.333 371.736 194.664C371.235 194.995 370.638 195.16 369.944 195.16C369.262 195.16 368.632 194.979 368.056 194.616C367.48 194.253 367.027 193.757 366.696 193.128C366.366 192.499 366.2 191.816 366.2 191.08C366.2 190.344 366.366 189.667 366.696 189.048C367.027 188.419 367.48 187.923 368.056 187.56C368.632 187.197 369.262 187.016 369.944 187.016C370.638 187.016 371.235 187.181 371.736 187.512C372.248 187.843 372.638 188.317 372.904 188.936C373.171 189.544 373.304 190.259 373.304 191.08ZM370.328 193.464C370.787 193.464 371.198 193.363 371.56 193.16C371.923 192.947 372.206 192.659 372.408 192.296C372.611 191.933 372.712 191.528 372.712 191.08C372.712 190.632 372.611 190.232 372.408 189.88C372.206 189.517 371.923 189.235 371.56 189.032C371.198 188.819 370.787 188.712 370.328 188.712C369.891 188.712 369.491 188.819 369.128 189.032C368.766 189.245 368.478 189.533 368.264 189.896C368.051 190.259 367.944 190.653 367.944 191.08C367.944 191.517 368.051 191.917 368.264 192.28C368.478 192.643 368.766 192.931 369.128 193.144C369.491 193.357 369.891 193.464 370.328 193.464ZM381.982 187.176H383.758V195H381.982V187.176ZM378.158 191.416C378.158 192.035 378.328 192.531 378.67 192.904C379.022 193.267 379.48 193.448 380.046 193.448C380.632 193.448 381.102 193.267 381.454 192.904C381.806 192.531 381.982 192.035 381.982 191.416H382.526C382.526 192.163 382.403 192.824 382.158 193.4C381.923 193.965 381.587 194.403 381.15 194.712C380.712 195.011 380.2 195.16 379.614 195.16C378.611 195.16 377.816 194.845 377.23 194.216C376.654 193.587 376.366 192.728 376.366 191.64V187.176H378.158V191.416ZM392.351 191.08C392.351 191.912 392.218 192.637 391.951 193.256C391.684 193.864 391.295 194.333 390.783 194.664C390.282 194.995 389.684 195.16 388.991 195.16C388.308 195.16 387.679 194.979 387.103 194.616C386.527 194.253 386.074 193.757 385.743 193.128C385.412 192.499 385.247 191.816 385.247 191.08C385.247 190.344 385.412 189.667 385.743 189.048C386.074 188.419 386.527 187.923 387.103 187.56C387.679 187.197 388.308 187.016 388.991 187.016C389.684 187.016 390.282 187.181 390.783 187.512C391.295 187.843 391.684 188.317 391.951 188.936C392.218 189.544 392.351 190.259 392.351 191.08ZM389.375 193.464C389.834 193.464 390.244 193.363 390.607 193.16C390.97 192.947 391.252 192.659 391.455 192.296C391.658 191.933 391.759 191.528 391.759 191.08C391.759 190.632 391.658 190.232 391.455 189.88C391.252 189.517 390.97 189.235 390.607 189.032C390.244 188.819 389.834 188.712 389.375 188.712C388.938 188.712 388.538 188.819 388.175 189.032C387.812 189.245 387.524 189.533 387.311 189.896C387.098 190.259 386.991 190.653 386.991 191.08C386.991 191.517 387.098 191.917 387.311 192.28C387.524 192.643 387.812 192.931 388.175 193.144C388.538 193.357 388.938 193.464 389.375 193.464ZM393.551 195H391.759V183.8H393.551V195ZM397.204 187.176V195H395.428V187.176H397.204ZM396.324 183.544C396.634 183.544 396.9 183.661 397.124 183.896C397.359 184.12 397.476 184.381 397.476 184.68C397.476 185 397.359 185.272 397.124 185.496C396.9 185.72 396.634 185.832 396.324 185.832C396.015 185.832 395.748 185.72 395.524 185.496C395.3 185.272 395.188 185 395.188 184.68C395.188 184.371 395.3 184.104 395.524 183.88C395.748 183.656 396.015 183.544 396.324 183.544ZM402.749 195.16C402.013 195.16 401.33 194.979 400.701 194.616C400.082 194.253 399.591 193.763 399.229 193.144C398.877 192.515 398.701 191.816 398.701 191.048C398.701 190.301 398.877 189.624 399.229 189.016C399.581 188.397 400.066 187.912 400.685 187.56C401.303 187.197 401.981 187.016 402.717 187.016C403.41 187.016 404.045 187.181 404.621 187.512C405.197 187.832 405.65 188.28 405.981 188.856C406.311 189.421 406.477 190.051 406.477 190.744C406.466 191 406.445 191.267 406.413 191.544H399.597L399.613 190.2H404.653C404.61 189.891 404.493 189.613 404.301 189.368C404.119 189.112 403.879 188.915 403.581 188.776C403.293 188.627 402.973 188.552 402.621 188.552C402.173 188.552 401.778 188.653 401.437 188.856C401.106 189.048 400.85 189.331 400.669 189.704C400.487 190.067 400.397 190.493 400.397 190.984C400.397 191.517 400.493 191.981 400.685 192.376C400.887 192.76 401.17 193.059 401.533 193.272C401.895 193.485 402.317 193.592 402.797 193.592C403.234 193.592 403.639 193.501 404.013 193.32C404.386 193.128 404.658 192.883 404.829 192.584L406.253 193.48C405.965 194.003 405.506 194.413 404.877 194.712C404.258 195.011 403.549 195.16 402.749 195.16ZM409.751 195H407.975V187.176H409.751V195ZM413.575 190.76C413.575 190.141 413.399 189.651 413.047 189.288C412.706 188.915 412.253 188.728 411.687 188.728C411.101 188.728 410.631 188.915 410.279 189.288C409.927 189.651 409.751 190.141 409.751 190.76H409.207C409.207 190.013 409.325 189.357 409.559 188.792C409.805 188.216 410.146 187.779 410.583 187.48C411.021 187.171 411.533 187.016 412.119 187.016C413.122 187.016 413.911 187.331 414.487 187.96C415.074 188.589 415.367 189.448 415.367 190.536V195H413.575V190.76ZM424.537 193.016C424.238 193.667 423.764 194.189 423.113 194.584C422.473 194.968 421.748 195.16 420.937 195.16C420.169 195.16 419.47 194.984 418.841 194.632C418.222 194.269 417.732 193.779 417.369 193.16C417.017 192.541 416.841 191.853 416.841 191.096C416.841 190.339 417.017 189.651 417.369 189.032C417.732 188.403 418.222 187.912 418.841 187.56C419.47 187.197 420.164 187.016 420.921 187.016C421.678 187.016 422.356 187.192 422.953 187.544C423.561 187.885 424.009 188.344 424.297 188.92L422.793 189.768C422.633 189.448 422.388 189.197 422.057 189.016C421.726 188.824 421.348 188.728 420.921 188.728C420.484 188.728 420.084 188.835 419.721 189.048C419.369 189.251 419.092 189.533 418.889 189.896C418.697 190.259 418.601 190.659 418.601 191.096C418.601 191.533 418.697 191.933 418.889 192.296C419.092 192.659 419.369 192.941 419.721 193.144C420.084 193.347 420.489 193.448 420.937 193.448C421.385 193.448 421.785 193.347 422.137 193.144C422.5 192.941 422.772 192.659 422.953 192.296L424.537 193.016ZM427.626 187.176V195H425.85V187.176H427.626ZM426.746 183.544C427.056 183.544 427.322 183.661 427.546 183.896C427.781 184.12 427.898 184.381 427.898 184.68C427.898 185 427.781 185.272 427.546 185.496C427.322 185.72 427.056 185.832 426.746 185.832C426.437 185.832 426.17 185.72 425.946 185.496C425.722 185.272 425.61 185 425.61 184.68C425.61 184.371 425.722 184.104 425.946 183.88C426.17 183.656 426.437 183.544 426.746 183.544ZM437.411 195H435.619V187.176H437.411V195ZM436.211 191.08C436.211 191.912 436.077 192.637 435.811 193.256C435.544 193.864 435.155 194.333 434.643 194.664C434.141 194.995 433.544 195.16 432.851 195.16C432.168 195.16 431.539 194.979 430.963 194.616C430.387 194.253 429.933 193.757 429.603 193.128C429.272 192.499 429.107 191.816 429.107 191.08C429.107 190.344 429.272 189.667 429.603 189.048C429.933 188.419 430.387 187.923 430.963 187.56C431.539 187.197 432.168 187.016 432.851 187.016C433.544 187.016 434.141 187.181 434.643 187.512C435.155 187.843 435.544 188.317 435.811 188.936C436.077 189.544 436.211 190.259 436.211 191.08ZM433.235 193.464C433.693 193.464 434.104 193.363 434.467 193.16C434.829 192.947 435.112 192.659 435.315 192.296C435.517 191.933 435.619 191.528 435.619 191.08C435.619 190.632 435.517 190.232 435.315 189.88C435.112 189.517 434.829 189.235 434.467 189.032C434.104 188.819 433.693 188.712 433.235 188.712C432.797 188.712 432.397 188.819 432.035 189.032C431.672 189.245 431.384 189.533 431.171 189.896C430.957 190.259 430.851 190.653 430.851 191.08C430.851 191.517 430.957 191.917 431.171 192.28C431.384 192.643 431.672 192.931 432.035 193.144C432.397 193.357 432.797 193.464 433.235 193.464Z" fill="#F4F7FA"/>
<path d="M490.845 353.5C491.56 354.738 491.56 356.262 490.845 357.5L448.405 431.009C447.69 432.247 446.37 433.009 444.941 433.009H360.059C358.63 433.009 357.31 432.247 356.595 431.009L314.155 357.5C313.44 356.262 313.44 354.738 314.155 353.5L356.595 279.991C357.31 278.753 358.63 277.991 360.059 277.991H444.941C446.37 277.991 447.69 278.753 448.405 279.991L490.845 353.5Z" fill="#F4F7FA" fill-opacity="0.05"/>
<path d="M344.994 355.144C344.172 355.144 343.426 354.957 342.754 354.584C342.092 354.2 341.57 353.672 341.186 353C340.812 352.317 340.626 351.56 340.626 350.728V343.8H342.498V350.728C342.498 351.219 342.604 351.667 342.818 352.072C343.042 352.467 343.34 352.776 343.714 353C344.098 353.224 344.524 353.336 344.994 353.336C345.463 353.336 345.884 353.224 346.258 353C346.642 352.776 346.94 352.467 347.154 352.072C347.378 351.667 347.49 351.219 347.49 350.728V343.8H349.362V350.728C349.362 351.56 349.17 352.317 348.786 353C348.412 353.672 347.89 354.2 347.218 354.584C346.556 354.957 345.815 355.144 344.994 355.144ZM353.103 355H351.327V347.176H353.103V355ZM356.927 350.76C356.927 350.141 356.751 349.651 356.399 349.288C356.057 348.915 355.604 348.728 355.039 348.728C354.452 348.728 353.983 348.915 353.631 349.288C353.279 349.651 353.103 350.141 353.103 350.76H352.559C352.559 350.013 352.676 349.357 352.911 348.792C353.156 348.216 353.497 347.779 353.935 347.48C354.372 347.171 354.884 347.016 355.471 347.016C356.473 347.016 357.263 347.331 357.839 347.96C358.425 348.589 358.719 349.448 358.719 350.536V355H356.927V350.76ZM362.368 347.176V355H360.592V347.176H362.368ZM361.488 343.544C361.798 343.544 362.064 343.661 362.288 343.896C362.523 344.12 362.64 344.381 362.64 344.68C362.64 345 362.523 345.272 362.288 345.496C362.064 345.72 361.798 345.832 361.488 345.832C361.179 345.832 360.912 345.72 360.688 345.496C360.464 345.272 360.352 345 360.352 344.68C360.352 344.371 360.464 344.104 360.688 343.88C360.912 343.656 361.179 343.544 361.488 343.544ZM370.953 351.08C370.953 351.912 370.819 352.637 370.553 353.256C370.286 353.864 369.897 354.333 369.385 354.664C368.883 354.995 368.286 355.16 367.593 355.16C366.91 355.16 366.281 354.979 365.705 354.616C365.129 354.253 364.675 353.757 364.345 353.128C364.014 352.499 363.849 351.816 363.849 351.08C363.849 350.344 364.014 349.667 364.345 349.048C364.675 348.419 365.129 347.923 365.705 347.56C366.281 347.197 366.91 347.016 367.593 347.016C368.286 347.016 368.883 347.181 369.385 347.512C369.897 347.843 370.286 348.317 370.553 348.936C370.819 349.544 370.953 350.259 370.953 351.08ZM367.977 353.464C368.435 353.464 368.846 353.363 369.209 353.16C369.571 352.947 369.854 352.659 370.057 352.296C370.259 351.933 370.361 351.528 370.361 351.08C370.361 350.632 370.259 350.232 370.057 349.88C369.854 349.517 369.571 349.235 369.209 349.032C368.846 348.819 368.435 348.712 367.977 348.712C367.539 348.712 367.139 348.819 366.777 349.032C366.414 349.245 366.126 349.533 365.913 349.896C365.699 350.259 365.593 350.653 365.593 351.08C365.593 351.517 365.699 351.917 365.913 352.28C366.126 352.643 366.414 352.931 366.777 353.144C367.139 353.357 367.539 353.464 367.977 353.464ZM372.153 355H370.361V343.8H372.153V355ZM381.809 355H380.017V347.176H381.809V355ZM380.609 351.08C380.609 351.912 380.476 352.637 380.209 353.256C379.942 353.864 379.553 354.333 379.041 354.664C378.54 354.995 377.942 355.16 377.249 355.16C376.566 355.16 375.937 354.979 375.361 354.616C374.785 354.253 374.332 353.757 374.001 353.128C373.67 352.499 373.505 351.816 373.505 351.08C373.505 350.344 373.67 349.667 374.001 349.048C374.332 348.419 374.785 347.923 375.361 347.56C375.937 347.197 376.566 347.016 377.249 347.016C377.942 347.016 378.54 347.181 379.041 347.512C379.553 347.843 379.942 348.317 380.209 348.936C380.476 349.544 380.609 350.259 380.609 351.08ZM377.633 353.464C378.092 353.464 378.502 353.363 378.865 353.16C379.228 352.947 379.51 352.659 379.713 352.296C379.916 351.933 380.017 351.528 380.017 351.08C380.017 350.632 379.916 350.232 379.713 349.88C379.51 349.517 379.228 349.235 378.865 349.032C378.502 348.819 378.092 348.712 377.633 348.712C377.196 348.712 376.796 348.819 376.433 349.032C376.07 349.245 375.782 349.533 375.569 349.896C375.356 350.259 375.249 350.653 375.249 351.08C375.249 351.517 375.356 351.917 375.569 352.28C375.782 352.643 376.07 352.931 376.433 353.144C376.796 353.357 377.196 353.464 377.633 353.464ZM390.39 351.08C390.39 351.912 390.257 352.637 389.99 353.256C389.724 353.864 389.334 354.333 388.822 354.664C388.321 354.995 387.724 355.16 387.03 355.16C386.348 355.16 385.718 354.979 385.142 354.616C384.566 354.253 384.113 353.757 383.782 353.128C383.452 352.499 383.286 351.816 383.286 351.08C383.286 350.344 383.452 349.667 383.782 349.048C384.113 348.419 384.566 347.923 385.142 347.56C385.718 347.197 386.348 347.016 387.03 347.016C387.724 347.016 388.321 347.181 388.822 347.512C389.334 347.843 389.724 348.317 389.99 348.936C390.257 349.544 390.39 350.259 390.39 351.08ZM387.414 353.464C387.873 353.464 388.284 353.363 388.646 353.16C389.009 352.947 389.292 352.659 389.494 352.296C389.697 351.933 389.798 351.528 389.798 351.08C389.798 350.632 389.697 350.232 389.494 349.88C389.292 349.517 389.009 349.235 388.646 349.032C388.284 348.819 387.873 348.712 387.414 348.712C386.977 348.712 386.577 348.819 386.214 349.032C385.852 349.245 385.564 349.533 385.35 349.896C385.137 350.259 385.03 350.653 385.03 351.08C385.03 351.517 385.137 351.917 385.35 352.28C385.564 352.643 385.852 352.931 386.214 353.144C386.577 353.357 386.977 353.464 387.414 353.464ZM391.59 355H389.798V343.8H391.59V355ZM397.006 355.16C396.27 355.16 395.588 354.979 394.958 354.616C394.34 354.253 393.849 353.763 393.486 353.144C393.134 352.515 392.958 351.816 392.958 351.048C392.958 350.301 393.134 349.624 393.486 349.016C393.838 348.397 394.324 347.912 394.942 347.56C395.561 347.197 396.238 347.016 396.974 347.016C397.668 347.016 398.302 347.181 398.878 347.512C399.454 347.832 399.908 348.28 400.238 348.856C400.569 349.421 400.734 350.051 400.734 350.744C400.724 351 400.702 351.267 400.67 351.544H393.854L393.87 350.2H398.91C398.868 349.891 398.75 349.613 398.558 349.368C398.377 349.112 398.137 348.915 397.838 348.776C397.55 348.627 397.23 348.552 396.878 348.552C396.43 348.552 396.036 348.653 395.694 348.856C395.364 349.048 395.108 349.331 394.926 349.704C394.745 350.067 394.654 350.493 394.654 350.984C394.654 351.517 394.75 351.981 394.942 352.376C395.145 352.76 395.428 353.059 395.79 353.272C396.153 353.485 396.574 353.592 397.054 353.592C397.492 353.592 397.897 353.501 398.27 353.32C398.644 353.128 398.916 352.883 399.086 352.584L400.51 353.48C400.222 354.003 399.764 354.413 399.134 354.712C398.516 355.011 397.806 355.16 397.006 355.16ZM404.926 355.176C404.286 355.176 403.657 355.075 403.038 354.872C402.43 354.659 401.929 354.381 401.534 354.04L402.238 352.696C402.537 352.984 402.937 353.219 403.438 353.4C403.95 353.581 404.43 353.672 404.878 353.672C405.262 353.672 405.571 353.592 405.806 353.432C406.051 353.272 406.174 353.064 406.174 352.808C406.174 352.605 406.105 352.445 405.966 352.328C405.838 352.2 405.667 352.104 405.454 352.04C405.251 351.976 404.995 351.912 404.686 351.848C404.121 351.741 403.646 351.619 403.262 351.48C402.878 351.341 402.542 351.112 402.254 350.792C401.966 350.472 401.822 350.035 401.822 349.48C401.822 349 401.95 348.573 402.206 348.2C402.462 347.827 402.819 347.539 403.278 347.336C403.747 347.123 404.275 347.016 404.862 347.016C405.427 347.016 405.971 347.096 406.494 347.256C407.017 347.416 407.449 347.651 407.79 347.96L407.086 349.336C406.798 349.08 406.419 348.877 405.95 348.728C405.481 348.579 405.059 348.504 404.686 348.504C404.355 348.504 404.089 348.579 403.886 348.728C403.694 348.877 403.598 349.08 403.598 349.336C403.598 349.517 403.657 349.667 403.774 349.784C403.902 349.891 404.067 349.976 404.27 350.04C404.473 350.104 404.729 350.168 405.038 350.232C405.614 350.371 406.099 350.52 406.494 350.68C406.889 350.829 407.235 351.075 407.534 351.416C407.833 351.747 407.982 352.189 407.982 352.744C407.982 353.203 407.849 353.619 407.582 353.992C407.326 354.355 406.963 354.643 406.494 354.856C406.035 355.069 405.513 355.176 404.926 355.176ZM413.032 343.8H415.288L419.016 352.248L422.856 343.8H424.776V355H422.904V347.48L419.56 355H418.184L414.904 347.48V355H413.032V343.8ZM430.413 347.016C431.17 347.016 431.853 347.197 432.461 347.56C433.079 347.912 433.57 348.397 433.933 349.016C434.295 349.635 434.477 350.328 434.477 351.096C434.477 351.853 434.295 352.541 433.933 353.16C433.581 353.779 433.095 354.269 432.477 354.632C431.858 354.984 431.17 355.16 430.413 355.16C429.655 355.16 428.967 354.984 428.349 354.632C427.73 354.269 427.245 353.779 426.893 353.16C426.541 352.541 426.365 351.853 426.365 351.096C426.365 350.328 426.541 349.635 426.893 349.016C427.245 348.397 427.73 347.912 428.349 347.56C428.967 347.197 429.655 347.016 430.413 347.016ZM430.413 348.712C429.986 348.712 429.591 348.819 429.229 349.032C428.877 349.245 428.599 349.533 428.397 349.896C428.194 350.248 428.093 350.648 428.093 351.096C428.093 351.533 428.194 351.933 428.397 352.296C428.599 352.648 428.877 352.931 429.229 353.144C429.591 353.347 429.986 353.448 430.413 353.448C430.839 353.448 431.229 353.347 431.581 353.144C431.933 352.931 432.21 352.648 432.413 352.296C432.626 351.933 432.733 351.533 432.733 351.096C432.733 350.648 432.626 350.248 432.413 349.896C432.21 349.533 431.933 349.245 431.581 349.032C431.229 348.819 430.839 348.712 430.413 348.712ZM431.117 346.28H429.469L430.797 343.88H432.941L431.117 346.28ZM439.547 355H438.011L434.731 347.176H436.667L438.779 352.616L440.875 347.176H442.827L439.547 355ZM445.743 347.176V355H443.967V347.176H445.743ZM444.863 343.544C445.173 343.544 445.439 343.661 445.663 343.896C445.898 344.12 446.015 344.381 446.015 344.68C446.015 345 445.898 345.272 445.663 345.496C445.439 345.72 445.173 345.832 444.863 345.832C444.554 345.832 444.287 345.72 444.063 345.496C443.839 345.272 443.727 345 443.727 344.68C443.727 344.371 443.839 344.104 444.063 343.88C444.287 343.656 444.554 343.544 444.863 343.544ZM449.493 355H447.717V343.8H449.493V355ZM454.913 355.16C454.177 355.16 453.494 354.979 452.865 354.616C452.246 354.253 451.755 353.763 451.393 353.144C451.041 352.515 450.865 351.816 450.865 351.048C450.865 350.301 451.041 349.624 451.393 349.016C451.745 348.397 452.23 347.912 452.849 347.56C453.467 347.197 454.145 347.016 454.881 347.016C455.574 347.016 456.209 347.181 456.785 347.512C457.361 347.832 457.814 348.28 458.145 348.856C458.475 349.421 458.641 350.051 458.641 350.744C458.63 351 458.609 351.267 458.577 351.544H451.761L451.777 350.2H456.817C456.774 349.891 456.657 349.613 456.465 349.368C456.283 349.112 456.043 348.915 455.745 348.776C455.457 348.627 455.137 348.552 454.785 348.552C454.337 348.552 453.942 348.653 453.601 348.856C453.27 349.048 453.014 349.331 452.833 349.704C452.651 350.067 452.561 350.493 452.561 350.984C452.561 351.517 452.657 351.981 452.849 352.376C453.051 352.76 453.334 353.059 453.697 353.272C454.059 353.485 454.481 353.592 454.961 353.592C455.398 353.592 455.803 353.501 456.177 353.32C456.55 353.128 456.822 352.883 456.993 352.584L458.417 353.48C458.129 354.003 457.67 354.413 457.041 354.712C456.422 355.011 455.713 355.16 454.913 355.16ZM462.832 355.176C462.192 355.176 461.563 355.075 460.944 354.872C460.336 354.659 459.835 354.381 459.44 354.04L460.144 352.696C460.443 352.984 460.843 353.219 461.344 353.4C461.856 353.581 462.336 353.672 462.784 353.672C463.168 353.672 463.478 353.592 463.712 353.432C463.958 353.272 464.08 353.064 464.08 352.808C464.08 352.605 464.011 352.445 463.872 352.328C463.744 352.2 463.574 352.104 463.36 352.04C463.158 351.976 462.902 351.912 462.592 351.848C462.027 351.741 461.552 351.619 461.168 351.48C460.784 351.341 460.448 351.112 460.16 350.792C459.872 350.472 459.728 350.035 459.728 349.48C459.728 349 459.856 348.573 460.112 348.2C460.368 347.827 460.726 347.539 461.184 347.336C461.654 347.123 462.182 347.016 462.768 347.016C463.334 347.016 463.878 347.096 464.4 347.256C464.923 347.416 465.355 347.651 465.696 347.96L464.992 349.336C464.704 349.08 464.326 348.877 463.856 348.728C463.387 348.579 462.966 348.504 462.592 348.504C462.262 348.504 461.995 348.579 461.792 348.728C461.6 348.877 461.504 349.08 461.504 349.336C461.504 349.517 461.563 349.667 461.68 349.784C461.808 349.891 461.974 349.976 462.176 350.04C462.379 350.104 462.635 350.168 462.944 350.232C463.52 350.371 464.006 350.52 464.4 350.68C464.795 350.829 465.142 351.075 465.44 351.416C465.739 351.747 465.888 352.189 465.888 352.744C465.888 353.203 465.755 353.619 465.488 353.992C465.232 354.355 464.87 354.643 464.4 354.856C463.942 355.069 463.419 355.176 462.832 355.176ZM351.437 373.08C351.437 373.912 351.304 374.637 351.037 375.256C350.77 375.864 350.381 376.333 349.869 376.664C349.368 376.995 348.77 377.16 348.077 377.16C347.394 377.16 346.765 376.979 346.189 376.616C345.613 376.253 345.16 375.757 344.829 375.128C344.498 374.499 344.333 373.816 344.333 373.08C344.333 372.344 344.498 371.667 344.829 371.048C345.16 370.419 345.613 369.923 346.189 369.56C346.765 369.197 347.394 369.016 348.077 369.016C348.77 369.016 349.368 369.181 349.869 369.512C350.381 369.843 350.77 370.317 351.037 370.936C351.304 371.544 351.437 372.259 351.437 373.08ZM348.461 375.464C348.92 375.464 349.33 375.363 349.693 375.16C350.056 374.947 350.338 374.659 350.541 374.296C350.744 373.933 350.845 373.528 350.845 373.08C350.845 372.632 350.744 372.232 350.541 371.88C350.338 371.517 350.056 371.235 349.693 371.032C349.33 370.819 348.92 370.712 348.461 370.712C348.024 370.712 347.624 370.819 347.261 371.032C346.898 371.245 346.61 371.533 346.397 371.896C346.184 372.259 346.077 372.653 346.077 373.08C346.077 373.517 346.184 373.917 346.397 374.28C346.61 374.643 346.898 374.931 347.261 375.144C347.624 375.357 348.024 375.464 348.461 375.464ZM352.637 377H350.845V365.8H352.637V377ZM358.053 377.16C357.317 377.16 356.635 376.979 356.005 376.616C355.387 376.253 354.896 375.763 354.533 375.144C354.181 374.515 354.005 373.816 354.005 373.048C354.005 372.301 354.181 371.624 354.533 371.016C354.885 370.397 355.371 369.912 355.989 369.56C356.608 369.197 357.285 369.016 358.021 369.016C358.715 369.016 359.349 369.181 359.925 369.512C360.501 369.832 360.955 370.28 361.285 370.856C361.616 371.421 361.781 372.051 361.781 372.744C361.771 373 361.749 373.267 361.717 373.544H354.901L354.917 372.2H359.957C359.915 371.891 359.797 371.613 359.605 371.368C359.424 371.112 359.184 370.915 358.885 370.776C358.597 370.627 358.277 370.552 357.925 370.552C357.477 370.552 357.083 370.653 356.741 370.856C356.411 371.048 356.155 371.331 355.973 371.704C355.792 372.067 355.701 372.493 355.701 372.984C355.701 373.517 355.797 373.981 355.989 374.376C356.192 374.76 356.475 375.059 356.837 375.272C357.2 375.485 357.621 375.592 358.101 375.592C358.539 375.592 358.944 375.501 359.317 375.32C359.691 375.128 359.963 374.883 360.133 374.584L361.557 375.48C361.269 376.003 360.811 376.413 360.181 376.712C359.563 377.011 358.853 377.16 358.053 377.16ZM368.572 369.176V377H366.796V369.176H368.572ZM367.692 365.544C368.001 365.544 368.268 365.661 368.492 365.896C368.726 366.12 368.844 366.381 368.844 366.68C368.844 367 368.726 367.272 368.492 367.496C368.268 367.72 368.001 367.832 367.692 367.832C367.382 367.832 367.116 367.72 366.892 367.496C366.668 367.272 366.556 367 366.556 366.68C366.556 366.371 366.668 366.104 366.892 365.88C367.116 365.656 367.382 365.544 367.692 365.544ZM372.228 377H370.452V369.176H372.228V377ZM376.052 372.76C376.052 372.141 375.876 371.651 375.524 371.288C375.182 370.915 374.729 370.728 374.164 370.728C373.577 370.728 373.108 370.915 372.756 371.288C372.404 371.651 372.228 372.141 372.228 372.76H371.684C371.684 372.013 371.801 371.357 372.036 370.792C372.281 370.216 372.622 369.779 373.06 369.48C373.497 369.171 374.009 369.016 374.596 369.016C375.598 369.016 376.388 369.331 376.964 369.96C377.55 370.589 377.844 371.448 377.844 372.536V377H376.052V372.76ZM383.281 377H381.745L378.465 369.176H380.401L382.513 374.616L384.609 369.176H386.561L383.281 377ZM390.897 377.16C390.161 377.16 389.478 376.979 388.849 376.616C388.23 376.253 387.74 375.763 387.377 375.144C387.025 374.515 386.849 373.816 386.849 373.048C386.849 372.301 387.025 371.624 387.377 371.016C387.729 370.397 388.214 369.912 388.833 369.56C389.452 369.197 390.129 369.016 390.865 369.016C391.558 369.016 392.193 369.181 392.769 369.512C393.345 369.832 393.798 370.28 394.129 370.856C394.46 371.421 394.625 372.051 394.625 372.744C394.614 373 394.593 373.267 394.561 373.544H387.745L387.761 372.2H392.801C392.758 371.891 392.641 371.613 392.449 371.368C392.268 371.112 392.028 370.915 391.729 370.776C391.441 370.627 391.121 370.552 390.769 370.552C390.321 370.552 389.926 370.653 389.585 370.856C389.254 371.048 388.998 371.331 388.817 371.704C388.636 372.067 388.545 372.493 388.545 372.984C388.545 373.517 388.641 373.981 388.833 374.376C389.036 374.76 389.318 375.059 389.681 375.272C390.044 375.485 390.465 375.592 390.945 375.592C391.382 375.592 391.788 375.501 392.161 375.32C392.534 375.128 392.806 374.883 392.977 374.584L394.401 375.48C394.113 376.003 393.654 376.413 393.025 376.712C392.406 377.011 391.697 377.16 390.897 377.16ZM398.817 377.176C398.177 377.176 397.547 377.075 396.929 376.872C396.321 376.659 395.819 376.381 395.425 376.04L396.129 374.696C396.427 374.984 396.827 375.219 397.329 375.4C397.841 375.581 398.321 375.672 398.769 375.672C399.153 375.672 399.462 375.592 399.697 375.432C399.942 375.272 400.065 375.064 400.065 374.808C400.065 374.605 399.995 374.445 399.857 374.328C399.729 374.2 399.558 374.104 399.345 374.04C399.142 373.976 398.886 373.912 398.577 373.848C398.011 373.741 397.537 373.619 397.153 373.48C396.769 373.341 396.433 373.112 396.145 372.792C395.857 372.472 395.713 372.035 395.713 371.48C395.713 371 395.841 370.573 396.097 370.2C396.353 369.827 396.71 369.539 397.169 369.336C397.638 369.123 398.166 369.016 398.753 369.016C399.318 369.016 399.862 369.096 400.385 369.256C400.907 369.416 401.339 369.651 401.681 369.96L400.977 371.336C400.689 371.08 400.31 370.877 399.841 370.728C399.371 370.579 398.95 370.504 398.577 370.504C398.246 370.504 397.979 370.579 397.777 370.728C397.585 370.877 397.489 371.08 397.489 371.336C397.489 371.517 397.547 371.667 397.665 371.784C397.793 371.891 397.958 371.976 398.161 372.04C398.363 372.104 398.619 372.168 398.929 372.232C399.505 372.371 399.99 372.52 400.385 372.68C400.779 372.829 401.126 373.075 401.425 373.416C401.723 373.747 401.873 374.189 401.873 374.744C401.873 375.203 401.739 375.619 401.473 375.992C401.217 376.355 400.854 376.643 400.385 376.856C399.926 377.069 399.403 377.176 398.817 377.176ZM406.819 377.112C405.934 377.112 405.219 376.845 404.675 376.312C404.142 375.768 403.875 375.021 403.875 374.072V367.08H405.651V373.992C405.651 374.44 405.785 374.797 406.051 375.064C406.329 375.32 406.67 375.448 407.075 375.448C407.171 375.448 407.278 375.437 407.395 375.416C407.513 375.395 407.609 375.373 407.683 375.352L407.779 376.92C407.651 376.973 407.502 377.016 407.331 377.048C407.161 377.091 406.99 377.112 406.819 377.112ZM402.371 369.176H407.699V370.872H402.371V369.176ZM410.978 369.176V377H409.202V369.176H410.978ZM410.098 365.544C410.407 365.544 410.674 365.661 410.898 365.896C411.132 366.12 411.25 366.381 411.25 366.68C411.25 367 411.132 367.272 410.898 367.496C410.674 367.72 410.407 367.832 410.098 367.832C409.788 367.832 409.522 367.72 409.298 367.496C409.074 367.272 408.962 367 408.962 366.68C408.962 366.371 409.074 366.104 409.298 365.88C409.522 365.656 409.788 365.544 410.098 365.544ZM416.586 380.264C415.893 380.264 415.21 380.147 414.538 379.912C413.877 379.677 413.37 379.357 413.018 378.952L413.914 377.736C414.234 378.024 414.623 378.248 415.082 378.408C415.551 378.579 416.053 378.664 416.586 378.664C416.991 378.664 417.375 378.568 417.738 378.376C418.111 378.184 418.41 377.923 418.634 377.592C418.858 377.272 418.97 376.904 418.97 376.488V375.96H420.762V376.488C420.762 377.235 420.575 377.891 420.202 378.456C419.839 379.032 419.338 379.475 418.698 379.784C418.069 380.104 417.365 380.264 416.586 380.264ZM420.762 376.216H418.97V369.16H420.762V376.216ZM419.562 373C419.562 373.811 419.429 374.515 419.162 375.112C418.895 375.709 418.506 376.173 417.994 376.504C417.493 376.824 416.895 376.984 416.202 376.984C415.519 376.984 414.89 376.808 414.314 376.456C413.738 376.093 413.285 375.608 412.954 375C412.623 374.381 412.458 373.715 412.458 373C412.458 372.275 412.623 371.608 412.954 371C413.285 370.392 413.738 369.912 414.314 369.56C414.89 369.197 415.519 369.016 416.202 369.016C416.895 369.016 417.493 369.181 417.994 369.512C418.506 369.832 418.895 370.291 419.162 370.888C419.429 371.485 419.562 372.189 419.562 373ZM416.586 375.336C417.045 375.336 417.455 375.235 417.818 375.032C418.181 374.829 418.463 374.552 418.666 374.2C418.869 373.837 418.97 373.437 418.97 373C418.97 372.552 418.869 372.152 418.666 371.8C418.463 371.437 418.181 371.155 417.818 370.952C417.455 370.749 417.045 370.648 416.586 370.648C416.149 370.648 415.749 370.755 415.386 370.968C415.023 371.171 414.735 371.453 414.522 371.816C414.309 372.168 414.202 372.563 414.202 373C414.202 373.427 414.309 373.821 414.522 374.184C414.735 374.536 415.023 374.819 415.386 375.032C415.749 375.235 416.149 375.336 416.586 375.336ZM430.543 377H428.751V369.176H430.543V377ZM429.343 373.08C429.343 373.912 429.21 374.637 428.943 375.256C428.677 375.864 428.287 376.333 427.775 376.664C427.274 376.995 426.677 377.16 425.983 377.16C425.301 377.16 424.671 376.979 424.095 376.616C423.519 376.253 423.066 375.757 422.735 375.128C422.405 374.499 422.239 373.816 422.239 373.08C422.239 372.344 422.405 371.667 422.735 371.048C423.066 370.419 423.519 369.923 424.095 369.56C424.671 369.197 425.301 369.016 425.983 369.016C426.677 369.016 427.274 369.181 427.775 369.512C428.287 369.843 428.677 370.317 428.943 370.936C429.21 371.544 429.343 372.259 429.343 373.08ZM426.367 375.464C426.826 375.464 427.237 375.363 427.599 375.16C427.962 374.947 428.245 374.659 428.447 374.296C428.65 373.933 428.751 373.528 428.751 373.08C428.751 372.632 428.65 372.232 428.447 371.88C428.245 371.517 427.962 371.235 427.599 371.032C427.237 370.819 426.826 370.712 426.367 370.712C425.93 370.712 425.53 370.819 425.167 371.032C424.805 371.245 424.517 371.533 424.303 371.896C424.09 372.259 423.983 372.653 423.983 373.08C423.983 373.517 424.09 373.917 424.303 374.28C424.517 374.643 424.805 374.931 425.167 375.144C425.53 375.357 425.93 375.464 426.367 375.464ZM439.717 375.016C439.418 375.667 438.943 376.189 438.293 376.584C437.653 376.968 436.927 377.16 436.117 377.16C435.349 377.16 434.65 376.984 434.021 376.632C433.402 376.269 432.911 375.779 432.549 375.16C432.197 374.541 432.021 373.853 432.021 373.096C432.021 372.339 432.197 371.651 432.549 371.032C432.911 370.403 433.402 369.912 434.021 369.56C434.65 369.197 435.343 369.016 436.101 369.016C436.858 369.016 437.535 369.192 438.133 369.544C438.741 369.885 439.189 370.344 439.477 370.92L437.973 371.768C437.813 371.448 437.567 371.197 437.237 371.016C436.906 370.824 436.527 370.728 436.101 370.728C435.663 370.728 435.263 370.835 434.901 371.048C434.549 371.251 434.271 371.533 434.069 371.896C433.877 372.259 433.781 372.659 433.781 373.096C433.781 373.533 433.877 373.933 434.069 374.296C434.271 374.659 434.549 374.941 434.901 375.144C435.263 375.347 435.669 375.448 436.117 375.448C436.565 375.448 436.965 375.347 437.317 375.144C437.679 374.941 437.951 374.659 438.133 374.296L439.717 375.016ZM442.806 369.176V377H441.03V369.176H442.806ZM441.926 365.544C442.235 365.544 442.502 365.661 442.726 365.896C442.961 366.12 443.078 366.381 443.078 366.68C443.078 367 442.961 367.272 442.726 367.496C442.502 367.72 442.235 367.832 441.926 367.832C441.617 367.832 441.35 367.72 441.126 367.496C440.902 367.272 440.79 367 440.79 366.68C440.79 366.371 440.902 366.104 441.126 365.88C441.35 365.656 441.617 365.544 441.926 365.544ZM448.35 369.016C449.108 369.016 449.79 369.197 450.398 369.56C451.017 369.912 451.508 370.397 451.87 371.016C452.233 371.635 452.414 372.328 452.414 373.096C452.414 373.853 452.233 374.541 451.87 375.16C451.518 375.779 451.033 376.269 450.414 376.632C449.796 376.984 449.108 377.16 448.35 377.16C447.593 377.16 446.905 376.984 446.286 376.632C445.668 376.269 445.182 375.779 444.83 375.16C444.478 374.541 444.302 373.853 444.302 373.096C444.302 372.328 444.478 371.635 444.83 371.016C445.182 370.397 445.668 369.912 446.286 369.56C446.905 369.197 447.593 369.016 448.35 369.016ZM448.35 370.712C447.924 370.712 447.529 370.819 447.166 371.032C446.814 371.245 446.537 371.533 446.334 371.896C446.132 372.248 446.03 372.648 446.03 373.096C446.03 373.533 446.132 373.933 446.334 374.296C446.537 374.648 446.814 374.931 447.166 375.144C447.529 375.347 447.924 375.448 448.35 375.448C448.777 375.448 449.166 375.347 449.518 375.144C449.87 374.931 450.148 374.648 450.35 374.296C450.564 373.933 450.67 373.533 450.67 373.096C450.67 372.648 450.564 372.248 450.35 371.896C450.148 371.533 449.87 371.245 449.518 371.032C449.166 370.819 448.777 370.712 448.35 370.712ZM449.054 368.28H447.406L448.734 365.88H450.878L449.054 368.28ZM455.665 377H453.889V369.176H455.665V377ZM459.489 372.76C459.489 372.141 459.313 371.651 458.961 371.288C458.62 370.915 458.167 370.728 457.601 370.728C457.015 370.728 456.545 370.915 456.193 371.288C455.841 371.651 455.665 372.141 455.665 372.76H455.121C455.121 372.013 455.239 371.357 455.473 370.792C455.719 370.216 456.06 369.779 456.497 369.48C456.935 369.171 457.447 369.016 458.033 369.016C459.036 369.016 459.825 369.331 460.401 369.96C460.988 370.589 461.281 371.448 461.281 372.536V377H459.489V372.76Z" fill="#F4F7FA"/>
<path d="M334.845 442.5C335.56 443.738 335.56 445.262 334.845 446.5L292.405 520.009C291.69 521.247 290.37 522.009 288.941 522.009H204.059C202.63 522.009 201.31 521.247 200.595 520.009L158.155 446.5C157.44 445.262 157.44 443.738 158.155 442.5L200.595 368.991C201.31 367.753 202.63 366.991 204.059 366.991H288.941C290.37 366.991 291.69 367.753 292.405 368.991L334.845 442.5Z" fill="#F4F7FA" fill-opacity="0.05"/>
<path d="M209.894 442.352C209.968 442.352 210.059 442.352 210.166 442.352C210.678 442.352 211.067 442.208 211.334 441.92C211.6 441.621 211.734 441.147 211.734 440.496V432.8H213.606V440.976C213.606 441.627 213.483 442.192 213.238 442.672C212.992 443.141 212.651 443.504 212.214 443.76C211.776 444.005 211.27 444.128 210.694 444.128C210.331 444.128 210.032 444.107 209.798 444.064L209.894 442.352ZM221.099 436.176H222.875V444H221.099V436.176ZM217.275 440.416C217.275 441.035 217.445 441.531 217.787 441.904C218.139 442.267 218.597 442.448 219.163 442.448C219.749 442.448 220.219 442.267 220.571 441.904C220.923 441.531 221.099 441.035 221.099 440.416H221.643C221.643 441.163 221.52 441.824 221.275 442.4C221.04 442.965 220.704 443.403 220.267 443.712C219.829 444.011 219.317 444.16 218.731 444.16C217.728 444.16 216.933 443.845 216.347 443.216C215.771 442.587 215.483 441.728 215.483 440.64V436.176H217.275V440.416ZM226.54 436.176V444H224.764V436.176H226.54ZM225.66 432.544C225.97 432.544 226.236 432.661 226.46 432.896C226.695 433.12 226.812 433.381 226.812 433.68C226.812 434 226.695 434.272 226.46 434.496C226.236 434.72 225.97 434.832 225.66 434.832C225.351 434.832 225.084 434.72 224.86 434.496C224.636 434.272 224.524 434 224.524 433.68C224.524 433.371 224.636 433.104 224.86 432.88C225.084 432.656 225.351 432.544 225.66 432.544ZM235.717 442.016C235.418 442.667 234.943 443.189 234.293 443.584C233.653 443.968 232.927 444.16 232.117 444.16C231.349 444.16 230.65 443.984 230.021 443.632C229.402 443.269 228.911 442.779 228.549 442.16C228.197 441.541 228.021 440.853 228.021 440.096C228.021 439.339 228.197 438.651 228.549 438.032C228.911 437.403 229.402 436.912 230.021 436.56C230.65 436.197 231.343 436.016 232.101 436.016C232.858 436.016 233.535 436.192 234.133 436.544C234.741 436.885 235.189 437.344 235.477 437.92L233.973 438.768C233.813 438.448 233.567 438.197 233.237 438.016C232.906 437.824 232.527 437.728 232.101 437.728C231.663 437.728 231.263 437.835 230.901 438.048C230.549 438.251 230.271 438.533 230.069 438.896C229.877 439.259 229.781 439.659 229.781 440.096C229.781 440.533 229.877 440.933 230.069 441.296C230.271 441.659 230.549 441.941 230.901 442.144C231.263 442.347 231.669 442.448 232.117 442.448C232.565 442.448 232.965 442.347 233.317 442.144C233.679 441.941 233.951 441.659 234.133 441.296L235.717 442.016ZM238.806 436.176V444H237.03V436.176H238.806ZM237.926 432.544C238.235 432.544 238.502 432.661 238.726 432.896C238.961 433.12 239.078 433.381 239.078 433.68C239.078 434 238.961 434.272 238.726 434.496C238.502 434.72 238.235 434.832 237.926 434.832C237.617 434.832 237.35 434.72 237.126 434.496C236.902 434.272 236.79 434 236.79 433.68C236.79 433.371 236.902 433.104 237.126 432.88C237.35 432.656 237.617 432.544 237.926 432.544ZM244.35 436.016C245.108 436.016 245.79 436.197 246.398 436.56C247.017 436.912 247.508 437.397 247.87 438.016C248.233 438.635 248.414 439.328 248.414 440.096C248.414 440.853 248.233 441.541 247.87 442.16C247.518 442.779 247.033 443.269 246.414 443.632C245.796 443.984 245.108 444.16 244.35 444.16C243.593 444.16 242.905 443.984 242.286 443.632C241.668 443.269 241.182 442.779 240.83 442.16C240.478 441.541 240.302 440.853 240.302 440.096C240.302 439.328 240.478 438.635 240.83 438.016C241.182 437.397 241.668 436.912 242.286 436.56C242.905 436.197 243.593 436.016 244.35 436.016ZM244.35 437.712C243.924 437.712 243.529 437.819 243.166 438.032C242.814 438.245 242.537 438.533 242.334 438.896C242.132 439.248 242.03 439.648 242.03 440.096C242.03 440.533 242.132 440.933 242.334 441.296C242.537 441.648 242.814 441.931 243.166 442.144C243.529 442.347 243.924 442.448 244.35 442.448C244.777 442.448 245.166 442.347 245.518 442.144C245.87 441.931 246.148 441.648 246.35 441.296C246.564 440.933 246.67 440.533 246.67 440.096C246.67 439.648 246.564 439.248 246.35 438.896C246.148 438.533 245.87 438.245 245.518 438.032C245.166 437.819 244.777 437.712 244.35 437.712ZM252.598 444.176C251.958 444.176 251.328 444.075 250.71 443.872C250.102 443.659 249.6 443.381 249.206 443.04L249.91 441.696C250.208 441.984 250.608 442.219 251.11 442.4C251.622 442.581 252.102 442.672 252.55 442.672C252.934 442.672 253.243 442.592 253.478 442.432C253.723 442.272 253.846 442.064 253.846 441.808C253.846 441.605 253.776 441.445 253.638 441.328C253.51 441.2 253.339 441.104 253.126 441.04C252.923 440.976 252.667 440.912 252.358 440.848C251.792 440.741 251.318 440.619 250.934 440.48C250.55 440.341 250.214 440.112 249.926 439.792C249.638 439.472 249.494 439.035 249.494 438.48C249.494 438 249.622 437.573 249.878 437.2C250.134 436.827 250.491 436.539 250.95 436.336C251.419 436.123 251.947 436.016 252.534 436.016C253.099 436.016 253.643 436.096 254.166 436.256C254.688 436.416 255.12 436.651 255.462 436.96L254.758 438.336C254.47 438.08 254.091 437.877 253.622 437.728C253.152 437.579 252.731 437.504 252.358 437.504C252.027 437.504 251.76 437.579 251.558 437.728C251.366 437.877 251.27 438.08 251.27 438.336C251.27 438.517 251.328 438.667 251.446 438.784C251.574 438.891 251.739 438.976 251.942 439.04C252.144 439.104 252.4 439.168 252.71 439.232C253.286 439.371 253.771 439.52 254.166 439.68C254.56 439.829 254.907 440.075 255.206 440.416C255.504 440.747 255.654 441.189 255.654 441.744C255.654 442.203 255.52 442.619 255.254 442.992C254.998 443.355 254.635 443.643 254.166 443.856C253.707 444.069 253.184 444.176 252.598 444.176ZM261.824 440.096C261.824 439.264 261.957 438.544 262.224 437.936C262.49 437.317 262.874 436.843 263.376 436.512C263.888 436.181 264.49 436.016 265.184 436.016C265.866 436.016 266.49 436.197 267.056 436.56C267.632 436.923 268.085 437.419 268.416 438.048C268.746 438.677 268.912 439.36 268.912 440.096C268.912 440.832 268.746 441.515 268.416 442.144C268.085 442.763 267.632 443.253 267.056 443.616C266.49 443.979 265.866 444.16 265.184 444.16C264.49 444.16 263.888 443.995 263.376 443.664C262.874 443.333 262.49 442.864 262.224 442.256C261.957 441.637 261.824 440.917 261.824 440.096ZM264.8 437.712C264.341 437.712 263.93 437.819 263.568 438.032C263.205 438.235 262.917 438.517 262.704 438.88C262.501 439.243 262.4 439.648 262.4 440.096C262.4 440.533 262.501 440.933 262.704 441.296C262.917 441.659 263.205 441.947 263.568 442.16C263.93 442.363 264.341 442.464 264.8 442.464C265.237 442.464 265.637 442.357 266 442.144C266.362 441.931 266.65 441.643 266.864 441.28C267.077 440.917 267.184 440.523 267.184 440.096C267.184 439.659 267.077 439.259 266.864 438.896C266.65 438.533 266.362 438.245 266 438.032C265.637 437.819 265.237 437.712 264.8 437.712ZM260.624 436.176H262.4V446.736H260.624V436.176ZM273.944 436.016C274.701 436.016 275.384 436.197 275.992 436.56C276.611 436.912 277.101 437.397 277.464 438.016C277.827 438.635 278.008 439.328 278.008 440.096C278.008 440.853 277.827 441.541 277.464 442.16C277.112 442.779 276.627 443.269 276.008 443.632C275.389 443.984 274.701 444.16 273.944 444.16C273.187 444.16 272.499 443.984 271.88 443.632C271.261 443.269 270.776 442.779 270.424 442.16C270.072 441.541 269.896 440.853 269.896 440.096C269.896 439.328 270.072 438.635 270.424 438.016C270.776 437.397 271.261 436.912 271.88 436.56C272.499 436.197 273.187 436.016 273.944 436.016ZM273.944 437.712C273.517 437.712 273.123 437.819 272.76 438.032C272.408 438.245 272.131 438.533 271.928 438.896C271.725 439.248 271.624 439.648 271.624 440.096C271.624 440.533 271.725 440.933 271.928 441.296C272.131 441.648 272.408 441.931 272.76 442.144C273.123 442.347 273.517 442.448 273.944 442.448C274.371 442.448 274.76 442.347 275.112 442.144C275.464 441.931 275.741 441.648 275.944 441.296C276.157 440.933 276.264 440.533 276.264 440.096C276.264 439.648 276.157 439.248 275.944 438.896C275.741 438.533 275.464 438.245 275.112 438.032C274.76 437.819 274.371 437.712 273.944 437.712ZM279.499 436.176H281.275V444H279.499V436.176ZM281.275 437.296C281.456 436.923 281.733 436.619 282.107 436.384C282.491 436.139 282.88 436.016 283.275 436.016C283.669 436.016 284 436.075 284.267 436.192L284.059 437.92C283.771 437.792 283.451 437.728 283.099 437.728C282.8 437.728 282.507 437.813 282.219 437.984C281.941 438.144 281.712 438.384 281.531 438.704C281.36 439.013 281.275 439.387 281.275 439.824V437.296ZM223.244 467.472C223.329 467.493 223.415 467.504 223.5 467.504C223.809 467.504 224.044 467.397 224.204 467.184C224.364 466.981 224.444 466.667 224.444 466.24V458.176H226.22V466.416C226.22 467.28 225.991 467.947 225.532 468.416C225.084 468.885 224.449 469.12 223.628 469.12C223.447 469.12 223.271 469.109 223.1 469.088L223.244 467.472ZM225.324 454.544C225.633 454.544 225.9 454.661 226.124 454.896C226.359 455.12 226.476 455.381 226.476 455.68C226.476 456 226.359 456.272 226.124 456.496C225.9 456.72 225.633 456.832 225.324 456.832C225.015 456.832 224.748 456.72 224.524 456.496C224.3 456.272 224.188 456 224.188 455.68C224.188 455.371 224.3 455.104 224.524 454.88C224.748 454.656 225.015 454.544 225.324 454.544ZM233.7 458.176H235.476V466H233.7V458.176ZM229.876 462.416C229.876 463.035 230.047 463.531 230.388 463.904C230.74 464.267 231.199 464.448 231.764 464.448C232.351 464.448 232.82 464.267 233.172 463.904C233.524 463.531 233.7 463.035 233.7 462.416H234.244C234.244 463.163 234.122 463.824 233.876 464.4C233.642 464.965 233.306 465.403 232.868 465.712C232.431 466.011 231.919 466.16 231.332 466.16C230.33 466.16 229.535 465.845 228.948 465.216C228.372 464.587 228.084 463.728 228.084 462.64V458.176H229.876V462.416ZM237.366 458.176H239.142V466H237.366V458.176ZM239.142 459.296C239.323 458.923 239.601 458.619 239.974 458.384C240.358 458.139 240.747 458.016 241.142 458.016C241.537 458.016 241.867 458.075 242.134 458.192L241.926 459.92C241.638 459.792 241.318 459.728 240.966 459.728C240.667 459.728 240.374 459.813 240.086 459.984C239.809 460.144 239.579 460.384 239.398 460.704C239.227 461.013 239.142 461.387 239.142 461.824V459.296ZM250.692 466H248.9V458.176H250.692V466ZM249.492 462.08C249.492 462.912 249.358 463.637 249.092 464.256C248.825 464.864 248.436 465.333 247.924 465.664C247.422 465.995 246.825 466.16 246.132 466.16C245.449 466.16 244.82 465.979 244.244 465.616C243.668 465.253 243.214 464.757 242.884 464.128C242.553 463.499 242.388 462.816 242.388 462.08C242.388 461.344 242.553 460.667 242.884 460.048C243.214 459.419 243.668 458.923 244.244 458.56C244.82 458.197 245.449 458.016 246.132 458.016C246.825 458.016 247.422 458.181 247.924 458.512C248.436 458.843 248.825 459.317 249.092 459.936C249.358 460.544 249.492 461.259 249.492 462.08ZM246.516 464.464C246.974 464.464 247.385 464.363 247.748 464.16C248.11 463.947 248.393 463.659 248.596 463.296C248.798 462.933 248.9 462.528 248.9 462.08C248.9 461.632 248.798 461.232 248.596 460.88C248.393 460.517 248.11 460.235 247.748 460.032C247.385 459.819 246.974 459.712 246.516 459.712C246.078 459.712 245.678 459.819 245.316 460.032C244.953 460.245 244.665 460.533 244.452 460.896C244.238 461.259 244.132 461.653 244.132 462.08C244.132 462.517 244.238 462.917 244.452 463.28C244.665 463.643 244.953 463.931 245.316 464.144C245.678 464.357 246.078 464.464 246.516 464.464ZM259.273 462.08C259.273 462.912 259.14 463.637 258.873 464.256C258.606 464.864 258.217 465.333 257.705 465.664C257.204 465.995 256.606 466.16 255.913 466.16C255.23 466.16 254.601 465.979 254.025 465.616C253.449 465.253 252.996 464.757 252.665 464.128C252.334 463.499 252.169 462.816 252.169 462.08C252.169 461.344 252.334 460.667 252.665 460.048C252.996 459.419 253.449 458.923 254.025 458.56C254.601 458.197 255.23 458.016 255.913 458.016C256.606 458.016 257.204 458.181 257.705 458.512C258.217 458.843 258.606 459.317 258.873 459.936C259.14 460.544 259.273 461.259 259.273 462.08ZM256.297 464.464C256.756 464.464 257.166 464.363 257.529 464.16C257.892 463.947 258.174 463.659 258.377 463.296C258.58 462.933 258.681 462.528 258.681 462.08C258.681 461.632 258.58 461.232 258.377 460.88C258.174 460.517 257.892 460.235 257.529 460.032C257.166 459.819 256.756 459.712 256.297 459.712C255.86 459.712 255.46 459.819 255.097 460.032C254.734 460.245 254.446 460.533 254.233 460.896C254.02 461.259 253.913 461.653 253.913 462.08C253.913 462.517 254.02 462.917 254.233 463.28C254.446 463.643 254.734 463.931 255.097 464.144C255.46 464.357 255.86 464.464 256.297 464.464ZM260.473 466H258.681V454.8H260.473V466ZM265.889 458.016C266.647 458.016 267.329 458.197 267.937 458.56C268.556 458.912 269.047 459.397 269.409 460.016C269.772 460.635 269.953 461.328 269.953 462.096C269.953 462.853 269.772 463.541 269.409 464.16C269.057 464.779 268.572 465.269 267.953 465.632C267.335 465.984 266.647 466.16 265.889 466.16C265.132 466.16 264.444 465.984 263.825 465.632C263.207 465.269 262.721 464.779 262.369 464.16C262.017 463.541 261.841 462.853 261.841 462.096C261.841 461.328 262.017 460.635 262.369 460.016C262.721 459.397 263.207 458.912 263.825 458.56C264.444 458.197 265.132 458.016 265.889 458.016ZM265.889 459.712C265.463 459.712 265.068 459.819 264.705 460.032C264.353 460.245 264.076 460.533 263.873 460.896C263.671 461.248 263.569 461.648 263.569 462.096C263.569 462.533 263.671 462.933 263.873 463.296C264.076 463.648 264.353 463.931 264.705 464.144C265.068 464.347 265.463 464.448 265.889 464.448C266.316 464.448 266.705 464.347 267.057 464.144C267.409 463.931 267.687 463.648 267.889 463.296C268.103 462.933 268.209 462.533 268.209 462.096C268.209 461.648 268.103 461.248 267.889 460.896C267.687 460.533 267.409 460.245 267.057 460.032C266.705 459.819 266.316 459.712 265.889 459.712Z" fill="#F4F7FA"/>
</svg>
