<svg width="390" height="82" viewBox="0 0 390 82" fill="none" xmlns="http://www.w3.org/2000/svg">
<g clip-path="url(#clip0_159_739)">
<path d="M4.38306 33.002V110.21" stroke="#F4F7FA" stroke-width="2" stroke-miterlimit="10" stroke-linecap="round"/>
<path d="M10.5317 38.248V106.836" stroke="#F4F7FA" stroke-width="2" stroke-miterlimit="10" stroke-linecap="round"/>
<path d="M16.6807 21.7578V121.079" stroke="#F4F7FA" stroke-width="2" stroke-miterlimit="10" stroke-linecap="round"/>
<path d="M22.8296 13.1387V130.075" stroke="#F4F7FA" stroke-width="2" stroke-miterlimit="10" stroke-linecap="round"/>
<path d="M28.979 24.0059V119.579" stroke="#F4F7FA" stroke-width="2" stroke-miterlimit="10" stroke-linecap="round"/>
<path d="M35.1277 14.6367V128.2" stroke="#F4F7FA" stroke-width="2" stroke-miterlimit="10" stroke-linecap="round"/>
<path d="M41.2766 40.123V104.963" stroke="#F4F7FA" stroke-width="2" stroke-miterlimit="10" stroke-linecap="round"/>
<path d="M47.4255 50.9922V94.0939" stroke="#F4F7FA" stroke-width="2" stroke-miterlimit="10" stroke-linecap="round"/>
<path d="M53.5745 43.4961V101.215" stroke="#F4F7FA" stroke-width="2" stroke-miterlimit="10" stroke-linecap="round"/>
<path d="M59.7234 29.2539V113.958" stroke="#F4F7FA" stroke-width="2" stroke-miterlimit="10" stroke-linecap="round"/>
<path d="M65.8723 11.2637V131.948" stroke="#F4F7FA" stroke-width="2" stroke-miterlimit="10" stroke-linecap="round"/>
<path d="M72.0212 11.2637V131.948" stroke="#F4F7FA" stroke-width="2" stroke-miterlimit="10" stroke-linecap="round"/>
<path d="M78.1704 24.0059V119.579" stroke="#F4F7FA" stroke-width="2" stroke-miterlimit="10" stroke-linecap="round"/>
<path d="M84.3193 36.375V108.336" stroke="#F4F7FA" stroke-width="2" stroke-miterlimit="10" stroke-linecap="round"/>
<path d="M90.4683 52.8652V92.5937" stroke="#F4F7FA" stroke-width="2" stroke-miterlimit="10" stroke-linecap="round"/>
<path d="M96.6169 54.7402V90.7208" stroke="#F4F7FA" stroke-width="2" stroke-miterlimit="10" stroke-linecap="round"/>
<path d="M102.766 47.2441V97.467" stroke="#F4F7FA" stroke-width="2" stroke-miterlimit="10" stroke-linecap="round"/>
<path d="M108.915 36.375V108.336" stroke="#F4F7FA" stroke-width="2" stroke-miterlimit="10" stroke-linecap="round"/>
<path d="M115.064 31.127V112.083" stroke="#F4F7FA" stroke-width="2" stroke-miterlimit="10" stroke-linecap="round"/>
<path d="M121.213 14.6367V128.2" stroke="#F4F7FA" stroke-width="2" stroke-miterlimit="10" stroke-linecap="round"/>
<path d="M127.362 24.0059V119.579" stroke="#F4F7FA" stroke-width="2" stroke-miterlimit="10" stroke-linecap="round"/>
<path d="M133.511 36.375V108.336" stroke="#F4F7FA" stroke-width="2" stroke-miterlimit="10" stroke-linecap="round"/>
<path d="M139.66 45.3691V99.3399" stroke="#F4F7FA" stroke-width="2" stroke-miterlimit="10" stroke-linecap="round"/>
<path d="M145.809 14.6367V128.2" stroke="#F4F7FA" stroke-width="2" stroke-miterlimit="10" stroke-linecap="round"/>
<path d="M151.958 29.2539V113.958" stroke="#F4F7FA" stroke-width="2" stroke-miterlimit="10" stroke-linecap="round"/>
<path d="M158.106 40.123V104.963" stroke="#F4F7FA" stroke-width="2" stroke-miterlimit="10" stroke-linecap="round"/>
<path d="M164.255 41.6211V103.088" stroke="#F4F7FA" stroke-width="2" stroke-miterlimit="10" stroke-linecap="round"/>
<path d="M170.404 49.1172V95.9668" stroke="#F4F7FA" stroke-width="2" stroke-miterlimit="10" stroke-linecap="round"/>
<path d="M176.553 43.4961V101.215" stroke="#F4F7FA" stroke-width="2" stroke-miterlimit="10" stroke-linecap="round"/>
<path d="M182.702 47.2441V97.467" stroke="#F4F7FA" stroke-width="2" stroke-miterlimit="10" stroke-linecap="round"/>
<path d="M188.851 47.2441V97.467" stroke="#F4F7FA" stroke-width="2" stroke-miterlimit="10" stroke-linecap="round"/>
<path d="M195 33.002V110.21" stroke="#F4F7FA" stroke-width="2" stroke-miterlimit="10" stroke-linecap="round"/>
<path d="M201.149 38.248V106.836" stroke="#F4F7FA" stroke-width="2" stroke-miterlimit="10" stroke-linecap="round"/>
<path d="M207.298 21.7578V121.079" stroke="#F4F7FA" stroke-width="2" stroke-miterlimit="10" stroke-linecap="round"/>
<path d="M213.447 13.1387V130.075" stroke="#F4F7FA" stroke-width="2" stroke-miterlimit="10" stroke-linecap="round"/>
<path d="M219.596 24.0059V119.579" stroke="#F4F7FA" stroke-width="2" stroke-miterlimit="10" stroke-linecap="round"/>
<path d="M225.745 14.6367V128.2" stroke="#F4F7FA" stroke-width="2" stroke-miterlimit="10" stroke-linecap="round"/>
<path d="M231.894 40.123V104.963" stroke="#F4F7FA" stroke-width="2" stroke-miterlimit="10" stroke-linecap="round"/>
<path d="M238.043 50.9922V94.0939" stroke="#F4F7FA" stroke-width="2" stroke-miterlimit="10" stroke-linecap="round"/>
<path d="M244.191 43.4961V101.215" stroke="#F4F7FA" stroke-width="2" stroke-miterlimit="10" stroke-linecap="round"/>
<path d="M250.34 29.2539V113.958" stroke="#F4F7FA" stroke-width="2" stroke-miterlimit="10" stroke-linecap="round"/>
<path d="M256.489 11.2637V131.948" stroke="#F4F7FA" stroke-width="2" stroke-miterlimit="10" stroke-linecap="round"/>
<path d="M262.638 11.2637V131.948" stroke="#F4F7FA" stroke-width="2" stroke-miterlimit="10" stroke-linecap="round"/>
<path d="M268.787 24.0059V119.579" stroke="#F4F7FA" stroke-width="2" stroke-miterlimit="10" stroke-linecap="round"/>
<path d="M274.936 36.375V108.336" stroke="#F4F7FA" stroke-width="2" stroke-miterlimit="10" stroke-linecap="round"/>
<path d="M281.085 52.8652V92.5937" stroke="#F4F7FA" stroke-width="2" stroke-miterlimit="10" stroke-linecap="round"/>
<path d="M287.234 54.7402V90.7208" stroke="#F4F7FA" stroke-width="2" stroke-miterlimit="10" stroke-linecap="round"/>
<path d="M293.383 47.2441V97.467" stroke="#F4F7FA" stroke-width="2" stroke-miterlimit="10" stroke-linecap="round"/>
<path d="M299.532 36.375V108.336" stroke="#F4F7FA" stroke-width="2" stroke-miterlimit="10" stroke-linecap="round"/>
<path d="M305.681 31.127V112.083" stroke="#F4F7FA" stroke-width="2" stroke-miterlimit="10" stroke-linecap="round"/>
<path d="M311.83 14.6367V128.2" stroke="#F4F7FA" stroke-width="2" stroke-miterlimit="10" stroke-linecap="round"/>
<path d="M317.979 24.0059V119.579" stroke="#F4F7FA" stroke-width="2" stroke-miterlimit="10" stroke-linecap="round"/>
<path d="M324.128 36.375V108.336" stroke="#F4F7FA" stroke-width="2" stroke-miterlimit="10" stroke-linecap="round"/>
<path d="M330.277 45.3691V99.3399" stroke="#F4F7FA" stroke-width="2" stroke-miterlimit="10" stroke-linecap="round"/>
<path d="M336.426 14.6367V128.2" stroke="#F4F7FA" stroke-width="2" stroke-miterlimit="10" stroke-linecap="round"/>
<path d="M342.574 29.2539V113.958" stroke="#F4F7FA" stroke-width="2" stroke-miterlimit="10" stroke-linecap="round"/>
<path d="M348.723 40.123V104.963" stroke="#F4F7FA" stroke-width="2" stroke-miterlimit="10" stroke-linecap="round"/>
<path d="M354.872 41.6211V103.088" stroke="#F4F7FA" stroke-width="2" stroke-miterlimit="10" stroke-linecap="round"/>
<path d="M361.021 49.1172V95.9668" stroke="#F4F7FA" stroke-width="2" stroke-miterlimit="10" stroke-linecap="round"/>
<path d="M367.17 43.4961V101.215" stroke="#F4F7FA" stroke-width="2" stroke-miterlimit="10" stroke-linecap="round"/>
<path d="M373.319 47.2441V97.467" stroke="#F4F7FA" stroke-width="2" stroke-miterlimit="10" stroke-linecap="round"/>
<path d="M379.468 47.2441V97.467" stroke="#F4F7FA" stroke-width="2" stroke-miterlimit="10" stroke-linecap="round"/>
<path d="M385.617 33.002V110.21" stroke="#F4F7FA" stroke-width="2" stroke-miterlimit="10" stroke-linecap="round"/>
</g>
<defs>
<clipPath id="clip0_159_739">
<rect width="390" height="81" fill="white" transform="translate(0 0.857422)"/>
</clipPath>
</defs>
</svg>
