<svg width="1512" height="181" viewBox="0 0 1512 181" fill="none" xmlns="http://www.w3.org/2000/svg">
<g clip-path="url(#clip0_159_447)">
<path d="M0 135.094V228.861" stroke="#F4F7FA" stroke-width="4" stroke-miterlimit="10" stroke-linecap="round"/>
<path d="M16 115.559V246.442" stroke="#F4F7FA" stroke-width="4" stroke-miterlimit="10" stroke-linecap="round"/>
<path d="M1344 115.559V246.442" stroke="#F4F7FA" stroke-width="4" stroke-miterlimit="10" stroke-linecap="round"/>
<path d="M32 87.2324V274.767" stroke="#F4F7FA" stroke-width="4" stroke-miterlimit="10" stroke-linecap="round"/>
<path d="M1360 87.2324V274.767" stroke="#F4F7FA" stroke-width="4" stroke-miterlimit="10" stroke-linecap="round"/>
<path d="M48 73.5586V284.535" stroke="#F4F7FA" stroke-width="4" stroke-miterlimit="10" stroke-linecap="round"/>
<path d="M1376 73.5586V284.535" stroke="#F4F7FA" stroke-width="4" stroke-miterlimit="10" stroke-linecap="round"/>
<path d="M64 30.582V326.536" stroke="#F4F7FA" stroke-width="4" stroke-miterlimit="10" stroke-linecap="round"/>
<path d="M1392 30.582V326.536" stroke="#F4F7FA" stroke-width="4" stroke-miterlimit="10" stroke-linecap="round"/>
<path d="M80 55V304.07" stroke="#F4F7FA" stroke-width="4" stroke-miterlimit="10" stroke-linecap="round"/>
<path d="M1408 55V304.07" stroke="#F4F7FA" stroke-width="4" stroke-miterlimit="10" stroke-linecap="round"/>
<path d="M96 87.2324V274.767" stroke="#F4F7FA" stroke-width="4" stroke-miterlimit="10" stroke-linecap="round"/>
<path d="M1424 87.2324V274.767" stroke="#F4F7FA" stroke-width="4" stroke-miterlimit="10" stroke-linecap="round"/>
<path d="M112 110.675V251.326" stroke="#F4F7FA" stroke-width="4" stroke-miterlimit="10" stroke-linecap="round"/>
<path d="M1440 110.675V251.326" stroke="#F4F7FA" stroke-width="4" stroke-miterlimit="10" stroke-linecap="round"/>
<path d="M128 30.582V326.536" stroke="#F4F7FA" stroke-width="4" stroke-miterlimit="10" stroke-linecap="round"/>
<path d="M1456 30.582V326.536" stroke="#F4F7FA" stroke-width="4" stroke-miterlimit="10" stroke-linecap="round"/>
<path d="M144 68.6748V289.419" stroke="#F4F7FA" stroke-width="4" stroke-miterlimit="10" stroke-linecap="round"/>
<path d="M1472 68.6748V289.419" stroke="#F4F7FA" stroke-width="4" stroke-miterlimit="10" stroke-linecap="round"/>
<path d="M160 97V265.977" stroke="#F4F7FA" stroke-width="4" stroke-miterlimit="10" stroke-linecap="round"/>
<path d="M1488 97V265.977" stroke="#F4F7FA" stroke-width="4" stroke-miterlimit="10" stroke-linecap="round"/>
<path d="M176 100.907V261.093" stroke="#F4F7FA" stroke-width="4" stroke-miterlimit="10" stroke-linecap="round"/>
<path d="M1504 100.907V261.093" stroke="#F4F7FA" stroke-width="4" stroke-miterlimit="10" stroke-linecap="round"/>
<path d="M192 120.442V242.535" stroke="#F4F7FA" stroke-width="4" stroke-miterlimit="10" stroke-linecap="round"/>
<path d="M208 105.791V256.21" stroke="#F4F7FA" stroke-width="4" stroke-miterlimit="10" stroke-linecap="round"/>
<path d="M224 115.559V246.442" stroke="#F4F7FA" stroke-width="4" stroke-miterlimit="10" stroke-linecap="round"/>
<path d="M240 115.559V246.442" stroke="#F4F7FA" stroke-width="4" stroke-miterlimit="10" stroke-linecap="round"/>
<path d="M256 78.4424V279.652" stroke="#F4F7FA" stroke-width="4" stroke-miterlimit="10" stroke-linecap="round"/>
<path d="M272 92.1162V270.86" stroke="#F4F7FA" stroke-width="4" stroke-miterlimit="10" stroke-linecap="round"/>
<path d="M288 49.1396V307.977" stroke="#F4F7FA" stroke-width="4" stroke-miterlimit="10" stroke-linecap="round"/>
<path d="M304 26.6748V331.419" stroke="#F4F7FA" stroke-width="4" stroke-miterlimit="10" stroke-linecap="round"/>
<path d="M320 55V304.07" stroke="#F4F7FA" stroke-width="4" stroke-miterlimit="10" stroke-linecap="round"/>
<path d="M336 30.582V326.536" stroke="#F4F7FA" stroke-width="4" stroke-miterlimit="10" stroke-linecap="round"/>
<path d="M352 97V265.977" stroke="#F4F7FA" stroke-width="4" stroke-miterlimit="10" stroke-linecap="round"/>
<path d="M368 125.326V237.652" stroke="#F4F7FA" stroke-width="4" stroke-miterlimit="10" stroke-linecap="round"/>
<path d="M384 105.791V256.21" stroke="#F4F7FA" stroke-width="4" stroke-miterlimit="10" stroke-linecap="round"/>
<path d="M400 68.6748V289.419" stroke="#F4F7FA" stroke-width="4" stroke-miterlimit="10" stroke-linecap="round"/>
<path d="M416 21.791V336.303" stroke="#F4F7FA" stroke-width="4" stroke-miterlimit="10" stroke-linecap="round"/>
<path d="M432 21.791V336.303" stroke="#F4F7FA" stroke-width="4" stroke-miterlimit="10" stroke-linecap="round"/>
<path d="M448 55V304.07" stroke="#F4F7FA" stroke-width="4" stroke-miterlimit="10" stroke-linecap="round"/>
<path d="M464 87.2324V274.767" stroke="#F4F7FA" stroke-width="4" stroke-miterlimit="10" stroke-linecap="round"/>
<path d="M480 130.21V233.745" stroke="#F4F7FA" stroke-width="4" stroke-miterlimit="10" stroke-linecap="round"/>
<path d="M496 135.094V228.861" stroke="#F4F7FA" stroke-width="4" stroke-miterlimit="10" stroke-linecap="round"/>
<path d="M512 115.559V246.442" stroke="#F4F7FA" stroke-width="4" stroke-miterlimit="10" stroke-linecap="round"/>
<path d="M528 87.2324V274.767" stroke="#F4F7FA" stroke-width="4" stroke-miterlimit="10" stroke-linecap="round"/>
<path d="M544 73.5586V284.535" stroke="#F4F7FA" stroke-width="4" stroke-miterlimit="10" stroke-linecap="round"/>
<path d="M560 30.582V326.536" stroke="#F4F7FA" stroke-width="4" stroke-miterlimit="10" stroke-linecap="round"/>
<path d="M576 55V304.07" stroke="#F4F7FA" stroke-width="4" stroke-miterlimit="10" stroke-linecap="round"/>
<path d="M592 87.2324V274.767" stroke="#F4F7FA" stroke-width="4" stroke-miterlimit="10" stroke-linecap="round"/>
<path d="M608 110.675V251.326" stroke="#F4F7FA" stroke-width="4" stroke-miterlimit="10" stroke-linecap="round"/>
<path d="M624 30.582V326.536" stroke="#F4F7FA" stroke-width="4" stroke-miterlimit="10" stroke-linecap="round"/>
<path d="M640 68.6748V289.419" stroke="#F4F7FA" stroke-width="4" stroke-miterlimit="10" stroke-linecap="round"/>
<path d="M656 97V265.977" stroke="#F4F7FA" stroke-width="4" stroke-miterlimit="10" stroke-linecap="round"/>
<path d="M672 100.907V261.093" stroke="#F4F7FA" stroke-width="4" stroke-miterlimit="10" stroke-linecap="round"/>
<path d="M688 120.442V242.535" stroke="#F4F7FA" stroke-width="4" stroke-miterlimit="10" stroke-linecap="round"/>
<path d="M704 105.791V256.21" stroke="#F4F7FA" stroke-width="4" stroke-miterlimit="10" stroke-linecap="round"/>
<path d="M720 115.559V246.442" stroke="#F4F7FA" stroke-width="4" stroke-miterlimit="10" stroke-linecap="round"/>
<path d="M736 115.559V246.442" stroke="#F4F7FA" stroke-width="4" stroke-miterlimit="10" stroke-linecap="round"/>
<path d="M752 78.4424V279.652" stroke="#F4F7FA" stroke-width="4" stroke-miterlimit="10" stroke-linecap="round"/>
<path d="M768 92.1162V270.86" stroke="#F4F7FA" stroke-width="4" stroke-miterlimit="10" stroke-linecap="round"/>
<path d="M784 49.1396V307.977" stroke="#F4F7FA" stroke-width="4" stroke-miterlimit="10" stroke-linecap="round"/>
<path d="M800 26.6748V331.419" stroke="#F4F7FA" stroke-width="4" stroke-miterlimit="10" stroke-linecap="round"/>
<path d="M816 55V304.07" stroke="#F4F7FA" stroke-width="4" stroke-miterlimit="10" stroke-linecap="round"/>
<path d="M832 30.582V326.536" stroke="#F4F7FA" stroke-width="4" stroke-miterlimit="10" stroke-linecap="round"/>
<path d="M848 97V265.977" stroke="#F4F7FA" stroke-width="4" stroke-miterlimit="10" stroke-linecap="round"/>
<path d="M864 125.326V237.652" stroke="#F4F7FA" stroke-width="4" stroke-miterlimit="10" stroke-linecap="round"/>
<path d="M880 105.791V256.21" stroke="#F4F7FA" stroke-width="4" stroke-miterlimit="10" stroke-linecap="round"/>
<path d="M896 68.6748V289.419" stroke="#F4F7FA" stroke-width="4" stroke-miterlimit="10" stroke-linecap="round"/>
<path d="M912 21.791V336.303" stroke="#F4F7FA" stroke-width="4" stroke-miterlimit="10" stroke-linecap="round"/>
<path d="M928 21.791V336.303" stroke="#F4F7FA" stroke-width="4" stroke-miterlimit="10" stroke-linecap="round"/>
<path d="M944 55V304.07" stroke="#F4F7FA" stroke-width="4" stroke-miterlimit="10" stroke-linecap="round"/>
<path d="M960 87.2324V274.767" stroke="#F4F7FA" stroke-width="4" stroke-miterlimit="10" stroke-linecap="round"/>
<path d="M976 130.21V233.745" stroke="#F4F7FA" stroke-width="4" stroke-miterlimit="10" stroke-linecap="round"/>
<path d="M992 135.094V228.861" stroke="#F4F7FA" stroke-width="4" stroke-miterlimit="10" stroke-linecap="round"/>
<path d="M1008 115.559V246.442" stroke="#F4F7FA" stroke-width="4" stroke-miterlimit="10" stroke-linecap="round"/>
<path d="M1024 87.2324V274.767" stroke="#F4F7FA" stroke-width="4" stroke-miterlimit="10" stroke-linecap="round"/>
<path d="M1040 73.5586V284.535" stroke="#F4F7FA" stroke-width="4" stroke-miterlimit="10" stroke-linecap="round"/>
<path d="M1056 30.582V326.536" stroke="#F4F7FA" stroke-width="4" stroke-miterlimit="10" stroke-linecap="round"/>
<path d="M1072 55V304.07" stroke="#F4F7FA" stroke-width="4" stroke-miterlimit="10" stroke-linecap="round"/>
<path d="M1088 87.2324V274.767" stroke="#F4F7FA" stroke-width="4" stroke-miterlimit="10" stroke-linecap="round"/>
<path d="M1104 110.675V251.326" stroke="#F4F7FA" stroke-width="4" stroke-miterlimit="10" stroke-linecap="round"/>
<path d="M1120 30.582V326.536" stroke="#F4F7FA" stroke-width="4" stroke-miterlimit="10" stroke-linecap="round"/>
<path d="M1136 68.6748V289.419" stroke="#F4F7FA" stroke-width="4" stroke-miterlimit="10" stroke-linecap="round"/>
<path d="M1152 97V265.977" stroke="#F4F7FA" stroke-width="4" stroke-miterlimit="10" stroke-linecap="round"/>
<path d="M1168 100.907V261.093" stroke="#F4F7FA" stroke-width="4" stroke-miterlimit="10" stroke-linecap="round"/>
<path d="M1184 120.442V242.535" stroke="#F4F7FA" stroke-width="4" stroke-miterlimit="10" stroke-linecap="round"/>
<path d="M1200 105.791V256.21" stroke="#F4F7FA" stroke-width="4" stroke-miterlimit="10" stroke-linecap="round"/>
<path d="M1216 115.559V246.442" stroke="#F4F7FA" stroke-width="4" stroke-miterlimit="10" stroke-linecap="round"/>
<path d="M1232 115.559V246.442" stroke="#F4F7FA" stroke-width="4" stroke-miterlimit="10" stroke-linecap="round"/>
<path d="M1248 78.4424V279.652" stroke="#F4F7FA" stroke-width="4" stroke-miterlimit="10" stroke-linecap="round"/>
<path d="M1264 45.2324V312.86" stroke="#F4F7FA" stroke-width="4" stroke-miterlimit="10" stroke-linecap="round"/>
<path d="M1280 49.1396V307.977" stroke="#F4F7FA" stroke-width="4" stroke-miterlimit="10" stroke-linecap="round"/>
<path d="M1296 78.4424V279.652" stroke="#F4F7FA" stroke-width="4" stroke-miterlimit="10" stroke-linecap="round"/>
<path d="M1312 139V223.977" stroke="#F4F7FA" stroke-width="4" stroke-miterlimit="10" stroke-linecap="round"/>
<path d="M1328 128V212.977" stroke="#F4F7FA" stroke-width="4" stroke-miterlimit="10" stroke-linecap="round"/>
</g>
<defs>
<clipPath id="clip0_159_447">
<rect width="1512" height="180" fill="white" transform="translate(0 0.511719)"/>
</clipPath>
</defs>
</svg>
