<svg width="40" height="40" viewBox="0 0 40 40" fill="none" xmlns="http://www.w3.org/2000/svg">
<path d="M8.02083 34.375C7.38194 34.375 6.82292 34.1354 6.34375 33.6562C5.86458 33.1771 5.625 32.6181 5.625 31.9792V8.02083C5.625 7.38194 5.86458 6.82292 6.34375 6.34375C6.82292 5.86458 7.38194 5.625 8.02083 5.625H31.9792C32.6181 5.625 33.1771 5.86458 33.6562 6.34375C34.1354 6.82292 34.375 7.38194 34.375 8.02083V31.9792C34.375 32.6181 34.1354 33.1771 33.6562 33.6562C33.1771 34.1354 32.6181 34.375 31.9792 34.375H8.02083ZM8.02083 31.9792H31.9792V8.02083H8.02083V31.9792Z" fill="#161C2D"/>
<path d="M13.6512 27.3876C13.4116 27.6272 13.1321 27.747 12.8127 27.747C12.4932 27.747 12.2137 27.6272 11.9741 27.3876C11.7345 27.148 11.6147 26.8685 11.6147 26.549C11.6147 26.2296 11.7345 25.9501 11.9741 25.7105C12.2137 25.4709 12.4932 25.3511 12.8127 25.3511C13.1321 25.3511 13.4116 25.4709 13.6512 25.7105C13.8908 25.9501 14.0106 26.2296 14.0106 26.549C14.0106 26.8685 13.8908 27.148 13.6512 27.3876Z" fill="#0057BE"/>
<path d="M13.6512 20.839C13.4116 21.0786 13.1321 21.1984 12.8127 21.1984C12.4932 21.1984 12.2137 21.0786 11.9741 20.839C11.7345 20.5994 11.6147 20.3199 11.6147 20.0004C11.6147 19.681 11.7345 19.4015 11.9741 19.1619C12.2137 18.9223 12.4932 18.8025 12.8127 18.8025C13.1321 18.8025 13.4116 18.9223 13.6512 19.1619C13.8908 19.4015 14.0106 19.681 14.0106 20.0004C14.0106 20.3199 13.8908 20.5994 13.6512 20.839Z" fill="#0057BE"/>
<path d="M13.6512 14.2904C13.4116 14.5299 13.1321 14.6497 12.8127 14.6497C12.4932 14.6497 12.2137 14.5299 11.9741 14.2904C11.7345 14.0508 11.6147 13.7713 11.6147 13.4518C11.6147 13.1324 11.7345 12.8529 11.9741 12.6133C12.2137 12.3737 12.4932 12.2539 12.8127 12.2539C13.1321 12.2539 13.4116 12.3737 13.6512 12.6133C13.8908 12.8529 14.0106 13.1324 14.0106 13.4518C14.0106 13.7713 13.8908 14.0508 13.6512 14.2904Z" fill="#0057BE"/>
<path d="M26.6286 27.747H19.2814C18.942 27.747 18.6575 27.6338 18.4281 27.4076C18.1983 27.1813 18.0835 26.8975 18.0835 26.5562C18.0835 26.2147 18.1983 25.9285 18.4281 25.6977C18.6575 25.4667 18.942 25.3511 19.2814 25.3511H26.6286C26.968 25.3511 27.2526 25.4643 27.4824 25.6905C27.7118 25.9168 27.8265 26.2006 27.8265 26.5419C27.8265 26.8834 27.7118 27.1696 27.4824 27.4004C27.2526 27.6314 26.968 27.747 26.6286 27.747Z" fill="#0057BE"/>
<path d="M26.6286 21.1984H19.2814C18.942 21.1984 18.6575 21.0852 18.4281 20.8589C18.1983 20.6327 18.0835 20.3489 18.0835 20.0076C18.0835 19.6661 18.1983 19.3799 18.4281 19.1491C18.6575 18.9181 18.942 18.8025 19.2814 18.8025H26.6286C26.968 18.8025 27.2526 18.9157 27.4824 19.1419C27.7118 19.3682 27.8265 19.652 27.8265 19.9932C27.8265 20.3348 27.7118 20.621 27.4824 20.8518C27.2526 21.0828 26.968 21.1984 26.6286 21.1984Z" fill="#0057BE"/>
<path d="M26.6286 14.6497H19.2814C18.942 14.6497 18.6575 14.5366 18.4281 14.3103C18.1983 14.0841 18.0835 13.8003 18.0835 13.459C18.0835 13.1174 18.1983 12.8313 18.4281 12.6005C18.6575 12.3695 18.942 12.2539 19.2814 12.2539H26.6286C26.968 12.2539 27.2526 12.3671 27.4824 12.5933C27.7118 12.8196 27.8265 13.1034 27.8265 13.4446C27.8265 13.7862 27.7118 14.0723 27.4824 14.3031C27.2526 14.5342 26.968 14.6497 26.6286 14.6497Z" fill="#0057BE"/>
</svg>
