<svg width="40" height="40" viewBox="0 0 40 40" fill="none" xmlns="http://www.w3.org/2000/svg">
<path d="M31.9792 34.375H8.02083C7.38568 34.3741 6.77679 34.1215 6.32767 33.6723C5.87855 33.2232 5.62586 32.6143 5.625 31.9792V8.02083C5.62586 7.38568 5.87855 6.77679 6.32767 6.32767C6.77679 5.87855 7.38568 5.62586 8.02083 5.625H20V8.02083H8.02083V31.9792H31.9792V20H34.375V31.9792C34.3741 32.6143 34.1215 33.2232 33.6723 33.6723C33.2232 34.1215 32.6143 34.3741 31.9792 34.375Z" fill="#161C2D"/>
<path d="M24.7918 3.22949V5.62533H32.6813L22.396 15.9106L24.0899 17.6045L34.3752 7.31918V15.2087H36.771V3.22949H24.7918Z" fill="#0057BE"/>
</svg>
