<svg width="40" height="40" viewBox="0 0 40 40" fill="none" xmlns="http://www.w3.org/2000/svg">
<path d="M14.9792 37.0716H5.39583C4.76064 37.0709 4.15168 36.8182 3.70253 36.3691C3.25338 35.9199 3.00073 35.311 3 34.6758V29.8841C3.00073 29.2489 3.25338 28.64 3.70253 28.1908C4.15168 27.7417 4.76064 27.489 5.39583 27.4883H14.9792C15.6144 27.489 16.2233 27.7417 16.6725 28.1908C17.1216 28.64 17.3743 29.2489 17.375 29.8841V34.6758C17.3743 35.311 17.1216 35.9199 16.6725 36.3691C16.2233 36.8182 15.6144 37.0709 14.9792 37.0716ZM5.39583 29.8841V34.6758H14.9792V29.8841H5.39583Z" fill="#161C2D"/>
<path d="M34.375 24.7913H15.2083C14.5731 24.7906 13.9642 24.538 13.515 24.0888C13.0659 23.6397 12.8132 23.0307 12.8125 22.3955V17.6038C12.8132 16.9687 13.0659 16.3597 13.515 15.9105C13.9642 15.4614 14.5731 15.2087 15.2083 15.208H34.375C35.0102 15.2087 35.6192 15.4614 36.0683 15.9105C36.5175 16.3597 36.7701 16.9687 36.7708 17.6038V22.3955C36.7701 23.0307 36.5175 23.6397 36.0683 24.0888C35.6192 24.538 35.0102 24.7906 34.375 24.7913ZM15.2083 17.6038V22.3955H34.375V17.6038H15.2083Z" fill="#0057BE"/>
<path d="M19.9998 12.8128H5.62484C4.98965 12.8121 4.38068 12.5594 3.93153 12.1103C3.48238 11.6611 3.22973 11.0522 3.229 10.417V5.62533C3.22973 4.99013 3.48238 4.38117 3.93153 3.93202C4.38068 3.48287 4.98965 3.23022 5.62484 3.22949H19.9998C20.635 3.23022 21.244 3.48287 21.6931 3.93202C22.1423 4.38117 22.3949 4.99013 22.3957 5.62533V10.417C22.3949 11.0522 22.1423 11.6611 21.6931 12.1103C21.244 12.5594 20.635 12.8121 19.9998 12.8128ZM5.62484 5.62533V10.417H19.9998V5.62533H5.62484Z" fill="#161C2D"/>
</svg>
