<svg width="40" height="40" viewBox="0 0 40 40" fill="none" xmlns="http://www.w3.org/2000/svg">
<rect x="0.5" y="0.5" width="39" height="39" rx="11.5" fill="white"/>
<rect x="0.5" y="0.5" width="39" height="39" rx="11.5" stroke="#EEEEEE"/>
<path d="M17.0001 24.0001H10C9.44771 24.0001 9 23.5524 9 23.0001V13C9 12.4477 9.44772 12 10 12H23.0001C23.5524 12 24.0001 12.4477 24.0001 13V21.0001" stroke="#161C2D" stroke-width="1.5"/>
<path d="M27 20.307V15.2807C27 14.8219 27.3123 14.4219 27.7574 14.3106L29.7575 13.8106C30.3886 13.6528 31 14.1301 31 14.7807V21.057C31 21.7552 30.3026 22.2385 29.6489 21.9933L27.6488 21.2433C27.2585 21.097 27 20.7238 27 20.307Z" stroke="#161C2D" stroke-width="1.5"/>
<ellipse cx="23.0001" cy="26.8111" rx="4.00003" ry="4.00003" stroke="#0057BE" stroke-width="1.5"/>
<ellipse cx="23.0002" cy="26.811" rx="1.00001" ry="1.00001" fill="#0057BE"/>
</svg>
