<svg width="41" height="40" viewBox="0 0 41 40" fill="none" xmlns="http://www.w3.org/2000/svg">
<path d="M16.7273 23.4776H5C4.44772 23.4776 4 23.0299 4 22.4776V5.38672C4 4.83444 4.44772 4.38672 5 4.38672H26.8636C27.4159 4.38672 27.8636 4.83443 27.8636 5.38672V18.7049" stroke="#161C2D" stroke-width="2.5"/>
<path d="M32.6362 18.0123V9.14512C32.6362 8.68626 32.9485 8.28627 33.3937 8.17498L37.7573 7.08407C38.3885 6.92628 38.9999 7.40364 38.9999 8.05421V19.6486C38.9999 20.3468 38.3025 20.8301 37.6487 20.5849L33.2851 18.9486C32.8948 18.8022 32.6362 18.4291 32.6362 18.0123Z" stroke="#161C2D" stroke-width="2.5"/>
<circle cx="26.2728" cy="29.2504" r="6.36364" stroke="#0057BE" stroke-width="2.5"/>
<circle cx="26.2726" cy="29.2501" r="1.59091" fill="#0057BE"/>
</svg>
