<svg width="40" height="40" viewBox="0 0 40 40" fill="none" xmlns="http://www.w3.org/2000/svg">
<rect x="0.5" y="0.5" width="39" height="39" rx="11.5" fill="white"/>
<rect x="0.5" y="0.5" width="39" height="39" rx="11.5" stroke="#EEEEEE"/>
<path d="M27.1875 28.625H12.8125C12.4314 28.6245 12.0661 28.4729 11.7966 28.2034C11.5271 27.9339 11.3755 27.5686 11.375 27.1875V12.8125C11.3755 12.4314 11.5271 12.0661 11.7966 11.7966C12.0661 11.5271 12.4314 11.3755 12.8125 11.375H20V12.8125H12.8125V27.1875H27.1875V20H28.625V27.1875C28.6245 27.5686 28.4729 27.9339 28.2034 28.2034C27.9339 28.4729 27.5686 28.6245 27.1875 28.625Z" fill="#161C2D"/>
<path d="M22.875 9.9375V11.375H27.6087L21.4375 17.5462L22.4538 18.5625L28.625 12.3913V17.125H30.0625V9.9375H22.875Z" fill="#0057BE"/>
</svg>
