<svg width="40" height="40" viewBox="0 0 40 40" fill="none" xmlns="http://www.w3.org/2000/svg">
<rect x="0.5" y="0.5" width="39" height="39" rx="11.5" fill="white"/>
<rect x="0.5" y="0.5" width="39" height="39" rx="11.5" stroke="#EEEEEE"/>
<path d="M16.9875 30.243H11.2375C10.8564 30.2426 10.491 30.091 10.2215 29.8215C9.95202 29.552 9.80043 29.1867 9.79999 28.8055V25.9305C9.80043 25.5494 9.95202 25.184 10.2215 24.9146C10.491 24.6451 10.8564 24.4935 11.2375 24.493H16.9875C17.3686 24.4935 17.734 24.6451 18.0035 24.9146C18.273 25.184 18.4246 25.5494 18.425 25.9305V28.8055C18.4246 29.1867 18.273 29.552 18.0035 29.8215C17.734 30.091 17.3686 30.2426 16.9875 30.243ZM11.2375 25.9305V28.8055H16.9875V25.9305H11.2375Z" fill="#161C2D"/>
<path d="M28.625 22.875H17.125C16.7439 22.8746 16.3785 22.723 16.109 22.4535C15.8395 22.184 15.6879 21.8186 15.6875 21.4375V18.5625C15.6879 18.1814 15.8395 17.816 16.109 17.5465C16.3785 17.277 16.7439 17.1254 17.125 17.125H28.625C29.0061 17.1254 29.3715 17.277 29.641 17.5465C29.9105 17.816 30.0621 18.1814 30.0625 18.5625V21.4375C30.0621 21.8186 29.9105 22.184 29.641 22.4535C29.3715 22.723 29.0061 22.8746 28.625 22.875ZM17.125 18.5625V21.4375H28.625V18.5625H17.125Z" fill="#0057BE"/>
<path d="M20 15.6875H11.375C10.9939 15.6871 10.6285 15.5355 10.359 15.266C10.0895 14.9965 9.93794 14.6311 9.9375 14.25V11.375C9.93794 10.9939 10.0895 10.6285 10.359 10.359C10.6285 10.0895 10.9939 9.93794 11.375 9.9375H20C20.3811 9.93794 20.7465 10.0895 21.016 10.359C21.2855 10.6285 21.4371 10.9939 21.4375 11.375V14.25C21.4371 14.6311 21.2855 14.9965 21.016 15.266C20.7465 15.5355 20.3811 15.6871 20 15.6875ZM11.375 11.375V14.25H20V11.375H11.375Z" fill="#161C2D"/>
</svg>
