<svg width="40" height="40" viewBox="0 0 40 40" fill="none" xmlns="http://www.w3.org/2000/svg">
<rect x="0.5" y="0.5" width="39" height="39" rx="11.5" fill="white"/>
<rect x="0.5" y="0.5" width="39" height="39" rx="11.5" stroke="#EEEEEE"/>
<path d="M12.5 29C12.1 29 11.75 28.85 11.45 28.55C11.15 28.25 11 27.9 11 27.5V12.5C11 12.1 11.15 11.75 11.45 11.45C11.75 11.15 12.1 11 12.5 11H27.5C27.9 11 28.25 11.15 28.55 11.45C28.85 11.75 29 12.1 29 12.5V27.5C29 27.9 28.85 28.25 28.55 28.55C28.25 28.85 27.9 29 27.5 29H12.5ZM12.5 27.5H27.5V12.5H12.5V27.5Z" fill="#161C2D"/>
<path d="M16.0249 24.6253C15.8749 24.7753 15.6999 24.8503 15.4999 24.8503C15.2999 24.8503 15.1249 24.7753 14.9749 24.6253C14.8249 24.4753 14.7499 24.3003 14.7499 24.1003C14.7499 23.9003 14.8249 23.7253 14.9749 23.5753C15.1249 23.4253 15.2999 23.3503 15.4999 23.3503C15.6999 23.3503 15.8749 23.4253 16.0249 23.5753C16.1749 23.7253 16.2499 23.9003 16.2499 24.1003C16.2499 24.3003 16.1749 24.4753 16.0249 24.6253Z" fill="#0057BE"/>
<path d="M16.0249 20.5253C15.8749 20.6753 15.6999 20.7503 15.4999 20.7503C15.2999 20.7503 15.1249 20.6753 14.9749 20.5253C14.8249 20.3753 14.7499 20.2003 14.7499 20.0003C14.7499 19.8003 14.8249 19.6253 14.9749 19.4753C15.1249 19.3253 15.2999 19.2503 15.4999 19.2503C15.6999 19.2503 15.8749 19.3253 16.0249 19.4753C16.1749 19.6253 16.2499 19.8003 16.2499 20.0003C16.2499 20.2003 16.1749 20.3753 16.0249 20.5253Z" fill="#0057BE"/>
<path d="M16.0249 16.4253C15.8749 16.5753 15.6999 16.6503 15.4999 16.6503C15.2999 16.6503 15.1249 16.5753 14.9749 16.4253C14.8249 16.2753 14.7499 16.1003 14.7499 15.9003C14.7499 15.7003 14.8249 15.5253 14.9749 15.3753C15.1249 15.2253 15.2999 15.1503 15.4999 15.1503C15.6999 15.1503 15.8749 15.2253 16.0249 15.3753C16.1749 15.5253 16.2499 15.7003 16.2499 15.9003C16.2499 16.1003 16.1749 16.2753 16.0249 16.4253Z" fill="#0057BE"/>
<path d="M24.1499 24.8503H19.5499C19.3374 24.8503 19.1593 24.7794 19.0157 24.6378C18.8718 24.4961 18.7999 24.3184 18.7999 24.1048C18.7999 23.8909 18.8718 23.7118 19.0157 23.5673C19.1593 23.4226 19.3374 23.3503 19.5499 23.3503H24.1499C24.3624 23.3503 24.5406 23.4211 24.6844 23.5628C24.8281 23.7044 24.8999 23.8821 24.8999 24.0958C24.8999 24.3096 24.8281 24.4888 24.6844 24.6333C24.5406 24.7779 24.3624 24.8503 24.1499 24.8503Z" fill="#0057BE"/>
<path d="M24.1499 20.7503H19.5499C19.3374 20.7503 19.1593 20.6794 19.0157 20.5378C18.8718 20.3961 18.7999 20.2184 18.7999 20.0048C18.7999 19.7909 18.8718 19.6118 19.0157 19.4673C19.1593 19.3226 19.3374 19.2503 19.5499 19.2503H24.1499C24.3624 19.2503 24.5406 19.3211 24.6844 19.4628C24.8281 19.6044 24.8999 19.7821 24.8999 19.9958C24.8999 20.2096 24.8281 20.3888 24.6844 20.5333C24.5406 20.6779 24.3624 20.7503 24.1499 20.7503Z" fill="#0057BE"/>
<path d="M24.1499 16.6503H19.5499C19.3374 16.6503 19.1593 16.5794 19.0157 16.4378C18.8718 16.2961 18.7999 16.1184 18.7999 15.9048C18.7999 15.6909 18.8718 15.5118 19.0157 15.3673C19.1593 15.2226 19.3374 15.1503 19.5499 15.1503H24.1499C24.3624 15.1503 24.5406 15.2211 24.6844 15.3628C24.8281 15.5044 24.8999 15.6821 24.8999 15.8958C24.8999 16.1096 24.8281 16.2888 24.6844 16.4333C24.5406 16.5779 24.3624 16.6503 24.1499 16.6503Z" fill="#0057BE"/>
</svg>
