<svg width="101" height="95" viewBox="0 0 101 95" fill="none" xmlns="http://www.w3.org/2000/svg">
<path d="M75.1429 5.13514L84.2857 14.2643H84L61.2857 37.0871C58.2857 40.0826 54.1428 41.7943 49.8571 41.7943C45.5714 41.7943 41.4286 40.0826 38.4286 37.0871L15.7143 14.2643L24.8571 5.13514L43.5714 23.8213V0H56.4286V23.8213L75.1429 5.13514Z" fill="#F4F7FA"/>
<path d="M3.28573 35.8033L34.4286 44.0766H34.5714C38.7143 45.2177 42.2857 47.9279 44.4285 51.6366C46.5714 55.3453 47.1429 59.7673 46 63.9039L37.5715 95L25.1429 91.7192L32 66.1862L11.2857 78.1682L4.85714 67.042L25.5714 55.0601L0 48.2132L3.28573 35.8033Z" fill="#F4F7FA"/>
<path d="M97.5714 35.3754L100.857 47.7853H101L75.4286 54.6321L96.1429 66.6141L89.7143 77.7402L69 65.7583L75.8571 91.2913L63.4285 94.5721L55 63.476C53.8571 59.3393 54.4285 54.9174 56.5714 51.2087C58.7143 47.5 62.2857 44.7898 66.4286 43.6486L97.5714 35.3754Z" fill="#F4F7FA"/>
</svg>
