<?xml version="1.0" standalone="no"?>
<!DOCTYPE svg PUBLIC "-//W3C//DTD SVG 20010904//EN"
 "http://www.w3.org/TR/2001/REC-SVG-20010904/DTD/svg10.dtd">
<svg version="1.0" xmlns="http://www.w3.org/2000/svg"
 width="832.000000pt" height="832.000000pt" viewBox="0 0 832.000000 832.000000"
 preserveAspectRatio="xMidYMid meet">
<metadata>
Created by potrace 1.14, written by Peter Selinger 2001-2017
</metadata>
<g transform="translate(0.000000,832.000000) scale(0.100000,-0.100000)"
fill="#000000" stroke="none">
<path d="M3588 7100 l-3 -981 -765 765 c-421 421 -768 766 -771 766 -8 0 -749
-739 -749 -747 0 -3 135 -141 299 -307 165 -166 601 -603 968 -972 380 -382
698 -694 738 -723 39 -28 75 -55 80 -59 27 -21 172 -93 242 -120 91 -35 215
-68 293 -78 71 -9 313 -10 365 -1 34 5 129 24 160 31 110 25 386 152 425 196
3 3 19 16 37 28 66 46 8 -11 1458 1445 l570 572 -367 365 c-202 201 -371 366
-376 368 -4 1 -352 -342 -772 -762 -420 -421 -766 -764 -768 -762 -2 2 -3 443
-3 980 l0 976 -530 0 -529 0 -2 -980z"/>
<path d="M7995 5150 c-16 -5 -45 -13 -63 -18 -18 -6 -35 -11 -37 -11 -3 -1 -6
-1 -7 -2 -2 0 -10 -2 -18 -4 -8 -1 -35 -8 -60 -15 -25 -7 -52 -14 -60 -16 -8
-2 -82 -21 -165 -44 -82 -22 -158 -43 -169 -45 -10 -2 -44 -12 -75 -21 -31 -9
-67 -18 -81 -21 -34 -7 -39 -8 -90 -22 -25 -8 -52 -15 -60 -16 -8 -2 -15 -4
-15 -5 0 -1 -7 -3 -15 -5 -68 -17 -148 -38 -160 -42 -8 -4 -18 -6 -22 -5 -4 1
-20 -3 -35 -9 -15 -6 -35 -12 -43 -14 -8 -2 -35 -8 -60 -15 -25 -7 -52 -13
-60 -15 -8 -2 -50 -13 -92 -25 -43 -11 -85 -23 -95 -25 -10 -2 -94 -25 -188
-50 -93 -25 -177 -48 -185 -50 -8 -2 -76 -20 -150 -40 -74 -20 -142 -38 -150
-40 -8 -1 -22 -5 -30 -7 -20 -7 -99 -29 -119 -33 -9 -2 -43 -10 -76 -19 -33
-9 -71 -19 -85 -22 -14 -3 -71 -20 -127 -39 -168 -56 -351 -160 -460 -261 -15
-14 -45 -42 -66 -61 -21 -19 -67 -71 -103 -116 -36 -45 -69 -87 -74 -94 -6 -7
-10 -17 -10 -22 0 -5 -6 -16 -12 -23 -18 -18 -84 -149 -81 -160 2 -4 -1 -8 -6
-8 -5 0 -13 -15 -16 -32 -4 -18 -11 -38 -16 -44 -12 -15 -58 -208 -66 -279
-13 -113 -7 -302 13 -410 3 -16 28 -113 55 -215 28 -102 52 -189 53 -195 1 -5
5 -16 9 -22 5 -7 6 -13 3 -13 -2 0 0 -15 5 -32 9 -28 29 -103 43 -158 2 -8 9
-35 16 -60 7 -25 14 -52 15 -60 2 -8 4 -15 5 -15 1 0 3 -7 5 -15 2 -8 17 -64
34 -125 16 -60 43 -159 60 -220 16 -60 34 -125 39 -143 6 -17 9 -32 6 -32 -3
0 0 -8 5 -18 6 -11 12 -30 15 -43 3 -13 9 -39 15 -58 6 -19 8 -38 5 -42 -3 -5
0 -9 7 -9 7 0 10 -2 7 -6 -3 -3 1 -26 8 -52 8 -26 26 -90 40 -142 14 -52 37
-135 50 -185 27 -98 33 -122 39 -145 2 -8 4 -15 5 -15 1 0 3 -7 5 -15 1 -8 10
-42 20 -75 9 -33 18 -67 19 -75 1 -8 11 -42 20 -75 10 -33 20 -70 22 -81 2
-12 12 -51 23 -85 10 -35 29 -104 41 -152 l23 -88 41 7 c23 3 49 10 58 15 9 5
28 10 42 11 15 1 26 6 26 11 0 4 4 6 8 3 5 -3 31 2 58 10 27 8 58 16 69 19 19
4 132 33 380 100 55 14 152 40 215 57 123 32 137 39 124 60 -5 7 -10 22 -12
33 -1 11 -11 49 -22 85 -10 36 -21 76 -24 90 -3 14 -17 66 -31 115 -14 50 -28
100 -31 112 -2 12 -22 88 -45 170 -22 81 -42 159 -45 173 -2 14 -9 36 -13 50
-10 28 -23 77 -27 100 -1 8 -16 62 -32 120 -26 91 -76 275 -87 320 -2 8 -18
67 -35 130 -17 63 -34 126 -36 140 -3 14 -7 32 -11 40 -7 17 -10 26 -17 57 -3
13 -8 32 -11 43 -3 11 -7 29 -10 40 -9 35 -26 99 -49 180 -22 79 -21 83 17 61
17 -10 88 -51 157 -91 69 -40 141 -82 160 -93 19 -11 49 -28 65 -38 17 -11 44
-26 62 -34 17 -8 37 -20 45 -27 7 -7 36 -25 63 -39 92 -48 150 -83 153 -91 2
-4 7 -8 12 -8 12 0 294 -163 298 -172 2 -4 12 -8 23 -8 10 0 19 -3 19 -8 0 -4
17 -16 38 -27 20 -11 73 -41 117 -66 280 -164 447 -259 454 -259 4 0 19 21 33
48 39 73 81 146 87 152 3 3 14 21 24 40 32 60 52 95 57 100 3 3 11 16 18 30 7
14 22 41 33 60 12 19 79 135 150 258 l128 223 -37 23 c-20 13 -50 31 -67 40
-16 9 -46 26 -65 38 -46 27 -125 72 -175 99 -22 12 -42 25 -45 28 -3 3 -23 15
-45 26 -22 11 -59 32 -82 48 -23 15 -46 27 -52 27 -6 0 -11 4 -11 8 0 4 -12
13 -27 19 -29 12 -104 54 -113 63 -3 3 -20 13 -38 23 -17 9 -47 25 -64 35 -18
9 -35 19 -38 22 -10 10 -65 41 -82 47 -10 3 -18 9 -18 14 0 5 -5 9 -11 9 -6 0
-48 23 -95 50 -47 28 -87 50 -90 50 -3 0 -10 5 -17 10 -12 11 -242 145 -347
203 -30 17 -75 44 -100 61 -25 17 -46 29 -48 28 -1 -2 -10 2 -20 7 -15 8 -14
11 10 20 15 6 38 12 50 14 13 2 30 7 38 10 8 4 26 9 40 11 14 3 25 5 25 6 0 1
9 4 50 14 21 4 130 34 252 67 40 11 80 22 90 24 10 2 83 22 163 43 80 22 159
43 175 47 43 12 44 12 50 15 6 3 6 3 80 20 33 7 67 17 76 21 9 5 29 11 45 13
16 3 76 19 134 35 58 16 168 45 245 66 77 20 156 41 175 48 19 6 42 12 50 13
8 1 31 7 50 12 83 23 237 64 254 68 10 2 20 5 22 6 1 2 -9 46 -22 98 -43 160
-85 324 -90 345 -7 26 -10 37 -17 55 -6 17 -47 180 -50 201 -2 8 -5 19 -9 24
-3 6 -12 37 -19 70 -14 67 -14 64 -21 85 -3 8 -11 38 -18 65 -19 80 -21 85
-28 84 -4 -1 -20 -5 -37 -9z"/>
<path d="M269 5121 c-2 -13 -2 -14 -18 -71 -7 -25 -14 -52 -16 -60 -2 -8 -8
-35 -15 -60 -7 -25 -13 -49 -15 -55 -1 -5 -5 -17 -8 -25 -3 -8 -22 -78 -41
-155 -19 -77 -45 -174 -56 -215 -11 -41 -23 -83 -25 -93 -2 -10 -7 -27 -10
-37 -3 -10 -8 -28 -10 -39 -3 -12 -8 -31 -11 -43 -3 -13 -6 -27 -7 -33 -2 -5
-6 -16 -10 -22 -5 -7 -6 -13 -4 -13 3 0 -1 -21 -9 -47 -8 -25 -12 -48 -10 -50
3 -4 69 -22 136 -39 32 -7 237 -64 268 -73 18 -5 33 -10 35 -10 1 0 9 -2 17
-4 47 -15 188 -50 203 -51 9 0 17 -3 17 -6 0 -4 6 -7 13 -7 6 0 100 -24 207
-53 107 -28 201 -54 210 -56 8 -2 83 -22 165 -44 83 -23 206 -56 275 -74 187
-50 306 -82 390 -106 41 -11 84 -22 95 -24 82 -15 84 -13 -231 -196 -165 -95
-317 -183 -339 -196 -22 -12 -118 -67 -213 -123 -96 -55 -177 -101 -182 -101
-5 0 -10 -3 -12 -8 -3 -7 -203 -124 -273 -160 -16 -9 -32 -18 -35 -21 -3 -4
-63 -40 -135 -80 -71 -41 -149 -85 -172 -99 l-41 -26 30 -56 c17 -30 34 -59
38 -65 6 -9 170 -291 220 -380 9 -16 65 -113 123 -214 59 -101 107 -188 107
-192 0 -5 3 -9 6 -9 3 0 78 42 167 94 89 51 180 104 202 116 22 12 45 26 50
30 6 4 30 19 55 32 25 14 72 41 105 60 33 19 71 41 85 49 14 8 27 16 30 19 3
3 30 18 60 34 30 16 62 35 71 42 8 8 19 14 23 14 4 0 72 38 151 85 79 47 148
85 153 85 6 0 12 3 14 8 3 6 87 57 204 122 17 10 42 24 55 32 13 7 26 15 29
18 3 3 25 16 50 29 80 43 84 46 98 59 7 6 18 12 24 12 5 0 23 9 40 21 16 12
32 19 35 15 3 -3 -2 -32 -11 -63 -9 -32 -19 -65 -21 -73 -4 -19 -81 -308 -101
-380 -15 -54 -20 -73 -28 -108 -2 -10 -21 -78 -41 -152 -20 -74 -38 -141 -40
-149 -2 -9 -17 -65 -34 -126 -72 -268 -173 -641 -176 -655 -2 -8 -4 -15 -5
-15 -1 0 -3 -9 -5 -20 -2 -11 -10 -45 -19 -75 -8 -30 -28 -105 -44 -166 l-30
-112 41 -12 c22 -6 47 -14 56 -16 117 -29 171 -43 194 -52 15 -7 27 -10 27 -8
0 2 24 -2 53 -11 56 -15 192 -51 217 -57 9 -2 101 -27 205 -54 247 -66 227
-64 242 -19 7 21 15 49 17 62 3 14 7 28 10 33 3 5 7 19 9 33 3 13 10 44 17 69
7 25 14 52 16 60 2 8 10 40 19 70 9 30 17 62 19 70 2 8 25 92 51 185 25 94 48
179 50 190 3 11 26 94 51 185 25 91 47 172 49 180 1 8 5 22 8 30 5 13 9 28 23
85 1 6 14 53 28 105 15 52 29 106 32 120 3 14 8 34 11 45 4 11 8 25 9 30 7 25
25 91 28 105 2 8 14 49 26 90 12 41 24 89 27 105 3 17 9 37 14 46 4 9 10 27
13 40 11 56 17 77 57 222 23 84 45 166 49 182 4 17 20 75 35 130 31 116 34
127 51 230 18 109 10 294 -22 469 -8 42 -52 175 -74 223 -11 24 -20 47 -20 53
0 5 -4 10 -10 10 -5 0 -10 7 -10 15 0 17 -18 52 -37 73 -7 7 -13 17 -13 22 0
5 -28 46 -62 92 -72 96 -183 209 -265 270 -32 24 -61 47 -64 51 -3 5 -8 8 -10
6 -2 -1 -24 10 -47 25 -37 23 -148 78 -217 107 -34 14 -113 38 -142 44 -24 4
-125 31 -198 51 -11 4 -28 7 -37 7 -10 1 -18 6 -18 11 0 5 -3 7 -6 4 -3 -3
-32 2 -65 12 -32 10 -59 16 -59 14 0 -2 -11 1 -25 6 -24 9 -202 58 -238 65
-10 2 -52 14 -95 25 -42 12 -85 24 -94 26 -34 8 -53 13 -86 23 -18 5 -33 10
-35 10 -1 0 -9 2 -17 4 -35 11 -150 39 -152 37 -2 -1 -16 4 -33 10 -16 7 -37
13 -45 15 -8 2 -42 10 -75 19 -33 9 -71 19 -83 22 -13 2 -47 11 -75 19 -215
59 -356 96 -377 101 -26 5 -84 22 -110 31 -8 3 -24 7 -35 9 -11 1 -47 10 -80
19 -33 10 -91 25 -130 35 -38 10 -97 26 -130 35 -33 9 -102 27 -153 41 -52 13
-98 26 -103 30 -5 3 -10 0 -10 -5z"/>
</g>
</svg>
