<svg width="128" height="24" viewBox="0 0 128 24" fill="none" xmlns="http://www.w3.org/2000/svg">
<path d="M123.286 6.62796L121.519 4.86041L117.901 8.47837V3.86617H115.415V8.47837L111.797 4.86041L110.03 6.62796L114.421 11.0468C115.001 11.6268 115.802 11.9582 116.631 11.9582C117.459 11.9582 118.26 11.6268 118.84 11.0468L123.231 6.62796H123.286ZM113.648 12.4001L107.627 10.7983L106.992 13.201L111.935 14.5267L107.931 16.8466L109.174 19.0008L113.178 16.6809L111.853 21.6245L114.255 22.2597L115.885 16.239C116.106 15.4381 115.995 14.5819 115.581 13.8639C115.167 13.1458 114.476 12.6211 113.675 12.4001H113.648ZM126.49 13.1182L125.855 10.7154L119.834 12.3173C119.033 12.5382 118.343 13.0629 117.929 13.781C117.514 14.4991 117.404 15.3552 117.625 16.1562L119.254 22.1769L121.657 21.5417L120.331 16.598L124.336 18.918L125.579 16.7638L121.574 14.4438L126.518 13.1182H126.49ZM0.745605 9.3069H2.65124V22.3426H6.21396V6.29655H0.745605V9.3069ZM4.47403 1.21484C5.55113 1.21484 6.40729 2.071 6.40729 3.1481C6.40729 4.2252 5.55113 5.08136 4.47403 5.08136C3.39693 5.08136 2.54077 4.2252 2.54077 3.1481C2.54077 2.071 3.39693 1.21484 4.47403 1.21484ZM74.5408 1.21484C75.6179 1.21484 76.474 2.071 76.474 3.1481C76.474 4.2252 75.6179 5.08136 74.5408 5.08136C73.4637 5.08136 72.6075 4.2252 72.6075 3.1481C72.6075 2.071 73.4637 1.21484 74.5408 1.21484ZM17.0678 5.85466C14.3889 5.85466 12.8423 6.87652 12.2899 8.78216V6.29655H8.72719V22.3426H12.3175V14.2229C12.3175 10.2735 13.9746 8.80978 16.1564 8.80978C18.3382 8.80978 19.2496 10.4669 19.2496 13.0629V22.3426H22.8123V12.3173C22.8123 8.61646 21.2105 5.85466 17.0402 5.85466H17.0678ZM64.1288 5.85466C61.4499 5.85466 59.9033 6.87652 59.3509 8.78216V6.29655H55.7882V22.3426H59.3785V14.2229C59.3785 10.2735 61.0356 8.80978 63.2174 8.80978C65.3992 8.80978 66.3106 10.4669 66.3106 13.0629V22.3426H69.8733V12.3173C69.8733 8.61646 68.2715 5.85466 64.1012 5.85466H64.1288ZM34.9366 6.29655C33.5834 10.5497 32.1196 14.8857 30.9596 18.7522H30.9044C29.6064 14.5543 28.2255 10.5221 26.8998 6.29655H23.0609C25.0218 11.6268 26.9274 17.0123 28.8883 22.3426H32.8929L38.7203 6.29655H34.9366ZM46.3428 5.85466C41.6478 5.85466 38.2508 9.38976 38.2508 14.2781C38.2508 19.1665 41.5373 22.7845 46.3428 22.7845C51.1484 22.7845 52.8883 20.8512 53.8549 17.5923H50.2922C49.7122 19.1941 48.1932 19.8846 46.3428 19.8846C44.4924 19.8846 41.9792 18.1999 41.7306 15.3H54.0759V14.6096C54.0483 10.0802 51.8112 5.85466 46.3428 5.85466ZM41.7859 12.7039C42.1449 10.2459 43.8296 8.67169 46.3152 8.67169C48.8008 8.67169 50.2646 10.1907 50.5132 12.7039H41.7859ZM70.8676 9.3069H72.7456V22.3426H76.3083V6.29655H70.8676V9.3069ZM86.1127 5.85466C81.4176 5.85466 78.0206 9.38976 78.0206 14.2781C78.0206 19.1665 81.3072 22.7845 86.1127 22.7845C90.9182 22.7845 92.6581 20.8512 93.6248 17.5923H90.0621C89.4821 19.1941 87.9631 19.8846 86.1127 19.8846C84.2623 19.8846 81.7491 18.1999 81.5005 15.3H93.8457V14.6096C93.8181 10.0802 91.581 5.85466 86.1127 5.85466ZM81.5557 12.7039C81.9148 10.2459 83.5995 8.67169 86.0851 8.67169C88.5707 8.67169 90.0344 10.1907 90.283 12.7039H81.5557ZM99.6179 2.18147H96.0552V4.28044C96.0552 5.46801 96.8561 6.32417 97.8503 6.32417H93.5972V9.11358H96.0828V17.2609C96.0828 20.0779 97.2427 22.3426 100.75 22.3426H102.794V19.5808H101.496C100.115 19.5808 99.6731 18.4208 99.6731 16.819V9.08596H102.794V6.29655H99.6731V2.18147H99.6179Z" fill=""/>
</svg>
