<svg width="593" height="558" viewBox="0 0 593 558" fill="none" xmlns="http://www.w3.org/2000/svg">
<path d="M441.185 30.1622L494.865 83.7838H493.188L359.826 217.838C342.212 235.432 317.888 245.486 292.725 245.486C267.563 245.486 243.239 235.432 225.625 217.838L92.263 83.7838L145.943 30.1622L255.82 139.919V0H331.308V139.919L441.185 30.1622Z" fill="#2C3242"/>
<path d="M19.2915 210.297L202.14 258.892H202.979C227.303 265.595 248.271 281.513 260.853 303.297C273.434 325.081 276.789 351.054 270.079 375.351L220.593 558L147.621 538.73L187.881 388.757L66.2616 459.135L28.5177 393.784L150.137 323.405L0 283.189L19.2915 210.297Z" fill="#2C3242"/>
<path d="M572.87 207.784L592.161 280.676H593L442.863 320.892L564.482 391.27L526.738 456.622L405.119 386.243L445.379 536.216L372.407 555.487L322.921 372.838C316.211 348.54 319.566 322.568 332.147 300.784C344.728 279 365.697 263.081 390.021 256.378L572.87 207.784Z" fill="#2C3242"/>
</svg>
